<svg xmlns="http://www.w3.org/2000/svg" width="24" height="25" viewBox="0 0 24 25" fill="none">
  <path d="M18.6667 0.78334H5.33334C2.57192 0.78334 0.333344 3.02192 0.333344 5.78334V19.1167C0.333344 21.8781 2.57192 24.1167 5.33334 24.1167H18.6667C21.4281 24.1167 23.6667 21.8781 23.6667 19.1167V5.78334C23.6667 3.02192 21.4281 0.78334 18.6667 0.78334Z" fill="#E2E2E2"/>
  <path d="M20.0333 18.2833L17.25 13.4667C16.75 12.6 15.5 12.6 15 13.4667L13.3667 16.2833L10.3667 11.0833C9.86667 10.2167 8.61667 10.2167 8.11667 11.0833L3.96667 18.2833C3.46667 19.15 4.08333 20.2333 5.08333 20.2333H18.9C19.9 20.2333 20.5167 19.15 20.0167 18.2833H20.0333Z" fill="white"/>
  <path d="M17.8333 8.56667C18.9103 8.56667 19.7833 7.69363 19.7833 6.61667C19.7833 5.53972 18.9103 4.66667 17.8333 4.66667C16.7564 4.66667 15.8833 5.53972 15.8833 6.61667C15.8833 7.69363 16.7564 8.56667 17.8333 8.56667Z" fill="white"/>
</svg>