<svg xmlns="http://www.w3.org/2000/svg" width="12" height="12" viewBox="0 0 12 12" fill="none">
  <path fill-rule="evenodd" clip-rule="evenodd" d="M6.88332 1.58571C6.88463 0.895354 6.32606 0.334645 5.6357 0.333331C4.94535 0.332016 4.38464 0.890593 4.38333 1.58095L4.37739 4.70019H1.25C0.559644 4.70019 0 5.25983 0 5.95019C0 6.64055 0.559644 7.20019 1.25 7.20019H4.37262L4.36666 10.3309C4.36535 11.0213 4.92392 11.582 5.61428 11.5833C6.30463 11.5846 6.86534 11.0261 6.86666 10.3357L6.87263 7.20019H10C10.6904 7.20019 11.25 6.64055 11.25 5.95019C11.25 5.25983 10.6904 4.70019 10 4.70019H6.87739L6.88332 1.58571Z" fill="#E2E2E2"/>
</svg>