<svg xmlns="http://www.w3.org/2000/svg" width="28" height="28" viewBox="0 0 28 28" fill="none">
  <path d="M14 9.33333C15.2887 9.33333 16.3334 8.28866 16.3334 7C16.3334 5.71133 15.2887 4.66666 14 4.66666C12.7114 4.66666 11.6667 5.71133 11.6667 7C11.6667 8.28866 12.7114 9.33333 14 9.33333Z" fill="#181D18"/>
  <path d="M14 23.3333C15.2887 23.3333 16.3334 22.2887 16.3334 21C16.3334 19.7113 15.2887 18.6667 14 18.6667C12.7114 18.6667 11.6667 19.7113 11.6667 21C11.6667 22.2887 12.7114 23.3333 14 23.3333Z" fill="#181D18"/>
  <path d="M14 16.3333C15.2887 16.3333 16.3334 15.2887 16.3334 14C16.3334 12.7113 15.2887 11.6667 14 11.6667C12.7114 11.6667 11.6667 12.7113 11.6667 14C11.6667 15.2887 12.7114 16.3333 14 16.3333Z" fill="#181D18"/>
</svg>