<svg xmlns="http://www.w3.org/2000/svg" width="16" height="16" viewBox="0 0 16 16" fill="none">
  <path fill-rule="evenodd" clip-rule="evenodd" d="M12.4614 2.00333C12.4938 1.99893 12.5267 1.99667 12.56 1.99667C13.8023 1.99667 14.79 3.02277 14.79 4.25333V9.59333C14.79 10.8327 13.8003 11.85 12.56 11.85H11.79V13.4067C11.79 13.6706 11.6475 13.9141 11.4173 14.0433C11.1871 14.1725 10.905 14.1673 10.6797 14.0298L7.10817 11.85H3.56667C2.32434 11.85 1.33667 10.8239 1.33667 9.59333V4.26C1.33667 3.02068 2.3264 2.00333 3.56667 2.00333H12.4614ZM12.633 3.46033C12.6111 3.46232 12.589 3.46333 12.5667 3.46333H3.56667C3.15361 3.46333 2.79667 3.80599 2.79667 4.26V9.59333C2.79667 10.0428 3.15567 10.39 3.56667 10.39H7.31334C7.44752 10.39 7.5791 10.427 7.69364 10.4969L10.33 12.1059V11.12C10.33 10.7168 10.6568 10.39 11.06 10.39H12.56C12.9731 10.39 13.33 10.0473 13.33 9.59333V4.25333C13.33 3.83072 13.0126 3.49849 12.633 3.46033Z" fill="#2B75CB"/>
</svg>