<svg xmlns="http://www.w3.org/2000/svg" width="20" height="20" viewBox="0 0 20 20" fill="none">
  <rect x="0.5" y="0.5" width="19" height="19" rx="9.5" fill="#F6F6F6"/>
  <rect x="0.5" y="0.5" width="19" height="19" rx="9.5" stroke="#E2E2E2"/>
  <path d="M14.0956 5.91096C13.842 5.65743 13.4325 5.65743 13.1789 5.91096L10 9.0834L6.82107 5.90446C6.56754 5.65093 6.15798 5.65093 5.90445 5.90446C5.65091 6.158 5.65091 6.56755 5.90445 6.82109L9.08338 10L5.90445 13.179C5.65091 13.4325 5.65091 13.8421 5.90445 14.0956C6.15798 14.3491 6.56754 14.3491 6.82107 14.0956L10 10.9167L13.1789 14.0956C13.4325 14.3491 13.842 14.3491 14.0956 14.0956C14.3491 13.8421 14.3491 13.4325 14.0956 13.179L10.9166 10L14.0956 6.82109C14.3426 6.57405 14.3426 6.158 14.0956 5.91096Z" fill="#8F8F8F"/>
</svg>