<svg xmlns="http://www.w3.org/2000/svg" width="16" height="16" viewBox="0 0 16 16" fill="none">
  <path fill-rule="evenodd" clip-rule="evenodd" d="M4.92668 2.36993C3.19678 2.36993 1.03668 3.94014 1.03668 6.7866C1.03668 7.92353 1.51784 8.94845 2.14345 9.8055C2.77113 10.6654 3.5886 11.4182 4.37393 12.0314C5.16348 12.6479 5.94855 13.145 6.53442 13.4875C6.82833 13.6593 7.07451 13.7936 7.24919 13.8859C7.42485 13.9787 7.52964 14.0298 7.52866 14.0293C7.65224 14.0911 7.78851 14.1233 7.92668 14.1233C8.02631 14.1177 8.15814 14.0927 8.19131 14.083C8.2078 14.0777 8.23398 14.0686 8.24382 14.0649C8.26121 14.0583 8.27472 14.0525 8.27921 14.0505C8.29048 14.0457 8.29973 14.0415 8.30367 14.0396C8.31322 14.0353 8.32275 14.0307 8.33063 14.0269C8.34735 14.0189 8.36864 14.0085 8.39368 13.996C8.44418 13.9707 8.51476 13.9348 8.60248 13.8887C8.77796 13.7964 9.02455 13.6622 9.31862 13.4905C9.90489 13.1481 10.6901 12.6507 11.4797 12.0337C12.2651 11.42 13.0825 10.6666 13.7101 9.80621C14.3356 8.94872 14.8167 7.92345 14.8167 6.7866C14.8167 3.92416 12.6005 2.36993 10.9267 2.36993C9.52068 2.36993 8.52184 3.0724 7.92732 3.80037C7.34404 3.07745 6.38013 2.36993 4.92668 2.36993Z" fill="#FF5449"/>
</svg>