<svg xmlns="http://www.w3.org/2000/svg" width="16" height="16" viewBox="0 0 16 16" fill="none">
  <path fill-rule="evenodd" clip-rule="evenodd" d="M1.33331 6.86C1.33331 4.13141 3.39224 2.66667 4.99998 2.66667C6.5234 2.66667 7.47301 3.48755 7.99939 4.24424C7.9996 4.24452 7.99979 4.24478 7.99997 4.245C7.99997 4.245 7.99998 4.245 7.99998 4.245C7.99998 4.245 7.99999 4.245 8 4.245C8.00017 4.24477 8.00037 4.24452 8.00058 4.24422C8.53109 3.48173 9.52881 2.66667 11 2.66667C12.5549 2.66667 14.6666 4.12532 14.6666 6.86C14.6666 7.93282 14.2124 8.91254 13.603 9.74799C12.9919 10.5856 12.1918 11.3245 11.4155 11.9311C10.636 12.5402 9.85976 13.032 9.2793 13.371C8.98836 13.5409 8.74469 13.6735 8.57185 13.7644C8.48545 13.8098 8.41627 13.8451 8.36725 13.8695C8.3429 13.8817 8.32264 13.8916 8.30717 13.899C8.30231 13.9014 8.29705 13.9039 8.29176 13.9064C8.28904 13.9077 8.28631 13.9089 8.28361 13.9102C8.28027 13.9117 8.27305 13.915 8.2644 13.9187C8.26093 13.9202 8.25073 13.9246 8.23764 13.9296C8.23024 13.9323 8.21061 13.9392 8.19824 13.9432C8.17338 13.9504 8.07461 13.9691 7.99998 13.9733C7.89648 13.9733 7.79441 13.9492 7.70184 13.903C7.70215 13.9031 7.59982 13.8532 7.42684 13.7618C7.25459 13.6708 7.01124 13.538 6.72042 13.3681C6.14026 13.0289 5.3641 12.5374 4.58467 11.9288C3.80842 11.3226 3.00819 10.5843 2.39714 9.74723C1.78762 8.91223 1.33331 7.93288 1.33331 6.86ZM4.99998 4C4.11439 4 2.66665 4.88193 2.66665 6.86C2.66665 7.55046 2.96067 8.25777 3.47407 8.96111C3.98593 9.66233 4.6832 10.314 5.40528 10.8779C6.1242 11.4393 6.8472 11.8977 7.39329 12.2169C7.63912 12.3606 7.84764 12.4753 8.0019 12.5575C8.1554 12.476 8.36265 12.3623 8.60691 12.2196C9.1527 11.9009 9.87561 11.4423 10.5945 10.8805C11.3165 10.3163 12.0138 9.66398 12.5258 8.96222C13.0392 8.2583 13.3333 7.55052 13.3333 6.86C13.3333 4.88802 11.8451 4 11 4C10.0725 4 9.44401 4.50346 9.09415 5.00704L9.09235 5.00962C8.56022 5.76791 7.43974 5.76791 6.90761 5.00962L6.9058 5.00704L6.90581 5.00704C6.5519 4.49763 5.96851 4 4.99998 4Z" fill="#ff5449"/>
</svg>