<svg width="14" height="12" viewBox="0 0 14 12" fill="none" xmlns="http://www.w3.org/2000/svg">
<g id="Group">
<path id="Vector" d="M12.2638 1.22565H1.73612C0.905518 1.22565 0.232178 1.89899 0.232178 2.72959V10.2493C0.232178 11.0799 0.905518 11.7533 1.73612 11.7533H12.2638C13.0944 11.7533 13.7677 11.0799 13.7677 10.2493V2.72959C13.7677 1.89899 13.0944 1.22565 12.2638 1.22565Z" fill="#AAAAAA"/>
<g id="Group_2">
<path id="Vector_2" d="M6.99985 9.87335C8.86871 9.87335 10.3837 8.35834 10.3837 6.48947C10.3837 4.62061 8.86871 3.10559 6.99985 3.10559C5.13098 3.10559 3.61597 4.62061 3.61597 6.48947C3.61597 8.35834 5.13098 9.87335 6.99985 9.87335Z" fill="white"/>
<path id="Vector_3" d="M6.99982 8.7453C8.24573 8.7453 9.25574 7.73529 9.25574 6.48938C9.25574 5.24347 8.24573 4.23346 6.99982 4.23346C5.75391 4.23346 4.7439 5.24347 4.7439 6.48938C4.7439 7.73529 5.75391 8.7453 6.99982 8.7453Z" fill="#AAAAAA"/>
</g>
<path id="Vector_4" d="M3.23999 1.50395L3.78141 0.413585C3.90925 0.157914 4.17244 0 4.45819 0H9.54153C9.82728 0 10.0905 0.157914 10.2108 0.413585L10.7522 1.50395H3.23999Z" fill="#AAAAAA"/>
</g>
</svg>
