<svg width="322" height="196" viewBox="0 0 322 196" fill="none" xmlns="http://www.w3.org/2000/svg">
<path d="M320.005 38.2726C320.005 38.2726 316.127 35.9021 311.84 45.1423C307.548 54.3824 305.99 59.6764 305.99 59.6764C305.99 59.6764 304.839 61.6239 303.489 60.4248C302.139 59.2302 300.227 55.7675 298.038 56.4833C295.764 57.2223 295.101 59.8205 295.672 63.5807C296.247 67.3409 297.203 75.6236 297.286 76.3719C297.37 77.1063 296.985 78.2079 295.936 77.5432C294.888 76.8739 288.764 70.5201 285.929 73.611C283.094 76.7019 286.411 86.9135 286.75 88.0337C287.089 89.1538 286.889 89.6512 286.36 89.9486C285.831 90.2508 283.976 87.9175 282.162 86.1838C280.348 84.4454 277.935 82.7536 276.451 84.6732C274.961 86.5928 274.743 94.3549 282.551 106.663L286.541 112.129L293.301 111.506C307.688 109.293 313.375 104.023 313.839 101.634C314.303 99.2492 311.445 98.5474 308.945 98.3196C306.444 98.0919 303.47 98.2267 303.35 97.6317C303.229 97.0368 303.466 96.558 304.533 96.0747C305.6 95.5913 315.458 91.3756 315.913 87.2017C316.368 83.0278 307.562 82.5909 306.37 82.2377C305.178 81.8844 305.753 80.8712 306.361 80.4482C306.978 80.0159 313.835 75.289 317.036 73.2485C320.237 71.208 321.754 68.9956 320.812 66.7925C319.908 64.6684 316.048 65.505 314.262 65.2726C312.475 65.0448 313.181 62.8928 313.181 62.8928C313.181 62.8928 316.131 58.2309 320.256 48.9118C324.375 39.5926 319.926 38.2168 319.926 38.2168" fill="#F5F5F5"/>
<path d="M316.15 46.5413C316.15 46.5413 316.127 46.611 316.076 46.7412C316.015 46.8806 315.936 47.0712 315.834 47.3175C315.612 47.8335 315.291 48.5771 314.879 49.53C314.048 51.4496 312.819 54.2198 311.292 57.6314C308.24 64.4639 303.944 73.8621 299.165 84.227C294.387 94.5966 290.067 103.986 286.977 110.799C285.437 114.202 284.194 116.958 283.326 118.873C282.899 119.816 282.565 120.556 282.333 121.067C282.222 121.308 282.134 121.499 282.069 121.634C282.009 121.759 281.972 121.824 281.972 121.824C281.972 121.824 281.995 121.755 282.046 121.625C282.106 121.485 282.185 121.295 282.287 121.048C282.51 120.532 282.83 119.789 283.243 118.836C284.073 116.916 285.298 114.146 286.829 110.734C289.882 103.902 294.178 94.5037 298.956 84.1341C303.735 73.7691 308.054 64.3802 311.144 57.5663C312.684 54.164 313.928 51.4077 314.795 49.4928C315.222 48.5492 315.561 47.8102 315.793 47.2989C315.904 47.0572 315.992 46.8667 316.057 46.7319C316.117 46.6064 316.154 46.5413 316.154 46.5413H316.15Z" fill="#8F8F8F"/>
<path d="M300.515 61.4334C300.515 61.4334 300.599 61.5914 300.705 61.8842C300.817 62.177 300.96 62.6093 301.137 63.1438C301.485 64.2128 301.921 65.7048 302.375 67.3595C302.816 68.9863 303.215 70.4597 303.521 71.5985C303.661 72.1004 303.777 72.5281 303.874 72.8813C303.957 73.1834 303.999 73.3554 303.981 73.36C303.967 73.3647 303.897 73.2067 303.786 72.9092C303.679 72.6117 303.531 72.1841 303.364 71.6449C303.03 70.5713 302.607 69.0746 302.153 67.4199C301.703 65.7931 301.294 64.3244 300.979 63.1903C300.84 62.6883 300.719 62.2607 300.622 61.9075C300.538 61.6053 300.501 61.4334 300.515 61.4287V61.4334Z" fill="#8F8F8F"/>
<path d="M304.607 73.4577C304.588 73.3973 307.613 72.3515 311.367 71.1244C315.12 69.8927 318.182 68.9492 318.2 69.0096C318.219 69.07 315.194 70.1158 311.441 71.3429C307.688 72.5699 304.63 73.5181 304.607 73.4577Z" fill="#8F8F8F"/>
<path d="M296.548 89.0516C296.548 89.0516 296.725 89.019 297.045 89.0051C297.416 88.9912 297.866 88.9772 298.4 88.9586C299.545 88.9168 301.123 88.8564 302.863 88.7262C304.602 88.6007 306.175 88.4287 307.312 88.2986C307.841 88.2382 308.291 88.1871 308.657 88.1452C308.977 88.1127 309.154 88.0987 309.154 88.1173C309.154 88.1313 308.982 88.1731 308.667 88.2335C308.351 88.294 307.896 88.373 307.326 88.4566C306.194 88.6286 304.616 88.8238 302.872 88.9493C301.128 89.0795 299.541 89.1166 298.395 89.1166C297.82 89.1166 297.356 89.1074 297.036 89.0888C296.715 89.0748 296.539 89.0609 296.539 89.0423L296.548 89.0516Z" fill="#8F8F8F"/>
<path d="M290.461 78.9887C290.461 78.9887 290.573 79.1096 290.744 79.3559C290.912 79.6022 291.148 79.9555 291.44 80.4017C292.02 81.2895 292.804 82.5258 293.658 83.897C294.512 85.2681 295.277 86.5184 295.82 87.4294C296.094 87.8849 296.307 88.2568 296.451 88.5124C296.595 88.7727 296.669 88.9168 296.655 88.9261C296.641 88.9354 296.544 88.8052 296.372 88.5589C296.205 88.3125 295.968 87.9593 295.676 87.5131C295.096 86.6253 294.312 85.389 293.459 84.0132C292.605 82.642 291.839 81.3917 291.297 80.4807C291.027 80.0252 290.809 79.6534 290.666 79.3977C290.522 79.1375 290.448 78.9934 290.461 78.9841V78.9887Z" fill="#8F8F8F"/>
<path d="M281.6 91.845C281.6 91.845 281.74 92.0077 281.953 92.3191C282.19 92.6724 282.491 93.1232 282.848 93.6577C283.595 94.7918 284.611 96.3675 285.725 98.1198C286.838 99.8674 287.836 101.462 288.546 102.619C288.88 103.172 289.158 103.632 289.381 103.995C289.571 104.325 289.673 104.506 289.659 104.515C289.645 104.525 289.52 104.353 289.306 104.041C289.07 103.688 288.768 103.237 288.411 102.703C287.664 101.569 286.648 99.9929 285.535 98.2406C284.421 96.493 283.424 94.9034 282.714 93.746C282.38 93.1929 282.101 92.7328 281.879 92.3702C281.689 92.0402 281.586 91.859 281.6 91.8497V91.845Z" fill="#8F8F8F"/>
<path d="M289.557 104.157C289.557 104.157 289.78 104.116 290.188 104.088C290.638 104.055 291.213 104.013 291.904 103.967C293.352 103.865 295.356 103.716 297.56 103.488C299.763 103.265 301.754 103.014 303.197 102.819C303.883 102.726 304.459 102.652 304.904 102.596C305.308 102.545 305.53 102.521 305.535 102.54C305.535 102.554 305.317 102.605 304.918 102.684C304.519 102.763 303.939 102.865 303.22 102.982C301.786 103.214 299.791 103.493 297.583 103.716C295.375 103.944 293.366 104.065 291.914 104.125C291.185 104.153 290.601 104.171 290.192 104.171C289.784 104.171 289.562 104.171 289.562 104.153L289.557 104.157Z" fill="#8F8F8F"/>
<path d="M43.7352 80.604C54.5589 73.3672 57.1987 59.6742 56.9667 47.3293C56.9296 45.2656 57.1894 43.0996 56.229 41.2776C55.2641 39.4556 52.9722 38.1867 51.0933 39.0233C49.5344 39.7205 48.8339 41.4914 47.9431 42.9509C46.7601 44.8937 45.0203 46.488 42.9837 47.4919C41.6475 48.1519 40.0005 48.5424 38.7015 47.808C36.92 46.7994 36.7437 44.3453 36.7901 42.2955C36.8736 38.4795 36.9571 34.6589 37.0406 30.8429C37.087 28.7932 37.1241 26.7016 36.5117 24.7494C35.8993 22.7973 34.5029 20.966 32.5404 20.3897C30.578 19.8133 28.1238 20.9009 27.6737 22.8996C27.4882 23.7315 27.6459 24.6007 27.5763 25.4513C27.5067 26.3019 27.0892 27.2361 26.268 27.4592C25.4376 27.687 24.6164 27.092 24.0086 26.4831C21.9024 24.3823 20.492 21.6957 19.1791 19.0231C17.8615 16.3506 16.5903 13.6222 14.6835 11.3354C12.7767 9.05326 10.1184 7.22661 7.15381 7.01746C4.18926 6.80365 1.00201 8.56988 0.204039 11.4377C-0.593932 14.3148 1.06696 17.2709 2.88559 19.6367C5.58107 23.1459 8.79151 26.2647 12.3731 28.8582C13.018 29.3277 13.7185 29.8343 13.9598 30.5966C14.3866 31.9677 13.0597 33.3063 11.6865 33.734C10.1323 34.2173 8.46211 34.0361 6.84298 34.1988C5.22384 34.3614 3.46088 35.04 2.82992 36.5413C1.94844 38.6236 3.6882 40.8453 5.40477 42.3095C8.85182 45.2423 12.7999 47.5756 17.0264 49.1791C18.5435 49.7555 20.1394 50.2621 21.3503 51.3405C22.5612 52.4188 23.2756 54.2687 22.5101 55.7002C21.7446 57.1365 19.8332 57.5687 18.2373 57.2527C16.646 56.9366 15.231 56.0581 13.7185 55.4678C10.8885 54.3616 7.20485 54.5011 5.34446 56.9087C4.11967 58.489 3.98048 60.7154 4.55577 62.6304C5.13105 64.5453 6.33728 66.2046 7.61775 67.7385C12.0994 73.1022 17.8754 77.4527 24.4447 79.8139C31.0141 82.1797 37.1288 82.8815 43.7306 80.6087" fill="#EBEBEB"/>
<path d="M42.8863 80.8456C41.1466 74.5941 36.3773 59.8786 33.538 52.9578C32.8235 51.2288 32.1137 49.523 31.4132 47.8404C30.7126 46.1625 30.0214 44.4985 29.2373 42.9136C27.6878 39.7343 25.9573 36.7968 24.2268 34.0592C22.4963 31.3169 20.7519 28.7791 19.1003 26.4179C17.444 24.0568 15.862 21.8862 14.3357 19.9712C11.2876 16.1227 8.46685 13.3107 6.45336 11.4608C5.44662 10.5312 4.64401 9.83399 4.09192 9.36919C3.82284 9.14609 3.61407 8.96947 3.46097 8.84397C3.31715 8.72777 3.23828 8.672 3.23828 8.672C3.23828 8.672 3.30323 8.74172 3.43777 8.86721C3.58623 8.99735 3.78573 9.18327 4.04553 9.41567C4.5837 9.89906 5.37239 10.6056 6.36522 11.5491C8.3555 13.4269 11.1438 16.2528 14.1594 20.106C15.6718 22.0256 17.2445 24.2008 18.8869 26.5667C20.5246 28.9325 22.2597 31.4749 23.9809 34.2126C25.7021 36.9502 27.4233 39.8831 28.9636 43.0483C29.7384 44.6287 30.425 46.2787 31.1255 47.9612C31.8214 49.6438 32.5313 51.3496 33.2457 53.074C36.085 59.9902 40.8543 74.687 42.608 80.92" fill="#8F8F8F"/>
<path d="M29.1631 42.8857C29.1631 42.8857 29.2559 42.5789 29.3673 42.0119C29.4786 41.4448 29.6178 40.6221 29.7755 39.6042C30.0957 37.5684 30.439 34.7424 30.8148 31.6236C31.1905 28.5049 31.5849 25.6928 31.9468 23.6663C32.1231 22.6531 32.2762 21.835 32.3921 21.2726C32.5035 20.7102 32.5545 20.3942 32.536 20.3895C32.5174 20.3849 32.4246 20.6916 32.2762 21.2494C32.1231 21.8071 31.9375 22.6205 31.7334 23.6291C31.3158 25.651 30.8843 28.4677 30.5086 31.5911C30.1421 34.682 29.808 37.4801 29.5575 39.5763C29.4322 40.5524 29.3255 41.3658 29.242 41.9933C29.1678 42.565 29.1353 42.881 29.1585 42.8857H29.1631Z" fill="#8F8F8F"/>
<path d="M2.59814 37.5638C2.59814 37.5638 2.69093 37.5917 2.87187 37.6103C3.08992 37.6335 3.34972 37.6567 3.66056 37.6893C4.34255 37.7543 5.33073 37.8473 6.55089 38.0007C8.98656 38.2889 12.3408 38.8141 16.0106 39.5531C19.6803 40.3014 22.9743 41.1195 25.3403 41.7888C26.5234 42.1141 27.4744 42.4023 28.1332 42.5975C28.4348 42.6858 28.6853 42.7602 28.8941 42.8206C29.0704 42.8671 29.1632 42.8903 29.1678 42.8764C29.1678 42.8671 29.0843 42.8253 28.9173 42.7602C28.7132 42.6858 28.4673 42.5929 28.175 42.4813C27.5301 42.2489 26.5837 41.9282 25.4053 41.575C23.0531 40.8545 19.7592 39.9993 16.0755 39.2463C12.3965 38.5027 9.02831 38.0146 6.57872 37.7776C5.35393 37.6521 4.3611 37.5917 3.67448 37.5591C3.359 37.5498 3.0992 37.5452 2.88115 37.5359C2.70021 37.5359 2.60278 37.5359 2.60278 37.5498L2.59814 37.5638Z" fill="#8F8F8F"/>
<path d="M40.3162 72.3305C40.3162 72.3305 40.3858 72.2236 40.4971 72.0098C40.6178 71.7635 40.7709 71.4474 40.9611 71.0616C41.3601 70.2389 41.9121 69.0305 42.5756 67.5292C43.9024 64.5266 45.6051 60.3295 47.4284 55.6676C49.2516 51.0057 50.9218 46.7993 52.193 43.7781C52.8239 42.3 53.3389 41.0869 53.7147 40.2084C53.8817 39.8134 54.0209 39.488 54.1276 39.237C54.2204 39.0139 54.2621 38.8931 54.2529 38.8884C54.2436 38.8884 54.1833 38.9953 54.0719 39.2091C53.9513 39.4555 53.7982 39.7715 53.608 40.1573C53.209 40.98 52.6569 42.1885 51.9935 43.6898C50.6666 46.6924 48.964 50.8895 47.1407 55.5514C45.3174 60.2086 43.6473 64.4197 42.3761 67.4362C41.7451 68.9143 41.2302 70.1274 40.8544 71.0059C40.6874 71.4056 40.5482 71.7263 40.4415 71.9773C40.3487 72.2004 40.3069 72.3212 40.3162 72.3259V72.3305Z" fill="#8F8F8F"/>
<path d="M5.08948 60.5201C5.08948 60.5201 5.20546 60.5805 5.44207 60.6641C5.70651 60.7525 6.04519 60.8686 6.46737 61.0127C7.39524 61.3242 8.67571 61.7518 10.2438 62.2723C13.4311 63.3414 17.8153 64.8705 22.6541 66.5717C27.493 68.2729 31.8911 69.7742 35.1016 70.7874C36.7068 71.294 38.0058 71.6938 38.9105 71.954C39.3373 72.0749 39.6852 72.1725 39.9543 72.2469C40.1956 72.3119 40.3208 72.3398 40.3255 72.3305C40.3255 72.3212 40.2095 72.2701 39.9729 72.1864C39.7084 72.0981 39.3698 71.9819 38.9476 71.8378C38.0197 71.5264 36.7392 71.0988 35.1711 70.5782C31.9839 69.5092 27.5997 67.98 22.7608 66.2789C17.922 64.5777 13.5238 63.0811 10.318 62.0632C8.71282 61.5565 7.4138 61.1568 6.50912 60.8965C6.0823 60.7757 5.73435 60.6781 5.46527 60.6037C5.22402 60.5386 5.09876 60.5108 5.09412 60.5201H5.08948Z" fill="#8F8F8F"/>
<path d="M234.148 0H292.636L281.191 8.15253V14.9572C281.191 21.9059 275.484 27.5392 268.446 27.5392H231.744C224.706 27.5392 219 21.9059 219 14.9572C219 6.69772 225.783 0.00464785 234.148 0.00464785V0Z" fill="#DEDEDE"/>
<path d="M271.327 9.09607C271.327 9.16114 261.562 9.21691 249.518 9.21691C237.474 9.21691 227.708 9.16114 227.708 9.09607C227.708 9.031 237.469 8.97522 249.518 8.97522C261.566 8.97522 271.327 9.031 271.327 9.09607Z" fill="#3A3A3A"/>
<path d="M271.327 13.6232C271.327 13.6882 261.562 13.744 249.518 13.744C237.474 13.744 227.708 13.6882 227.708 13.6232C227.708 13.5581 237.469 13.5023 249.518 13.5023C261.566 13.5023 271.327 13.5581 271.327 13.6232Z" fill="#3A3A3A"/>
<path d="M133.136 148.461H63.9259L75.1996 156.613V172.649C75.1996 174.499 76.6981 175.995 78.5399 175.995H133.136C134.982 175.995 136.476 174.494 136.476 172.649V151.812C136.476 149.962 134.978 148.465 133.136 148.465V148.461Z" fill="#DEDEDE"/>
<path d="M130.25 159.797C130.25 159.862 119.812 159.918 106.937 159.918C94.0632 159.918 83.6246 159.862 83.6246 159.797C83.6246 159.732 94.0632 159.676 106.937 159.676C119.812 159.676 130.25 159.732 130.25 159.797Z" fill="#3A3A3A"/>
<path d="M130.25 165.951C130.25 166.016 119.812 166.072 106.937 166.072C94.0632 166.072 83.6246 166.016 83.6246 165.951C83.6246 165.886 94.0632 165.83 106.937 165.83C119.812 165.83 130.25 165.886 130.25 165.951Z" fill="#3A3A3A"/>
<path d="M274.447 93.6251H193.448C183.509 93.6251 175.452 101.697 175.452 111.655V177.702C175.452 187.66 183.509 195.732 193.448 195.732H274.447C284.385 195.732 292.443 187.66 292.443 177.702V111.655C292.443 101.697 284.385 93.6251 274.447 93.6251Z" fill="#00AF50"/>
<g opacity="0.4">
<path d="M274.447 93.6251H193.448C183.509 93.6251 175.452 101.697 175.452 111.655V177.702C175.452 187.66 183.509 195.732 193.448 195.732H274.447C284.385 195.732 292.443 187.66 292.443 177.702V111.655C292.443 101.697 284.385 93.6251 274.447 93.6251Z" fill="black"/>
</g>
<path d="M292.41 129.224H309.933L292.016 147.174L292.41 129.224Z" fill="#00AF50"/>
<g opacity="0.4">
<path d="M292.41 129.224H309.933L292.016 147.174L292.41 129.224Z" fill="black"/>
</g>
<path d="M172.649 140.258L165.305 131.91C163.32 129.921 162.638 128.959 163.037 128.61C163.566 128.146 163.338 128.299 167.463 131.404C167.463 131.404 161.617 126.923 163.644 126.895C164.002 126.891 164.995 127.472 166.057 128.169C164.609 126.937 164.21 126.105 164.484 125.71C164.957 125.027 168.534 127.509 170.177 128.708C168.831 127.704 166.266 125.752 165.811 125.143C165.194 124.306 166.447 124.376 167.467 124.725C168.613 125.115 174.946 128.355 176.82 129.191C178.11 129.768 178.565 128.596 178.565 128.596C179.256 125.691 181.344 123.795 182.146 123.549C182.953 123.302 183.561 124.33 182.991 125.069C182.531 125.668 182.067 126.895 181.757 127.829C181.501 128.601 181.367 129.405 181.381 130.214C181.395 131.153 181.446 131.948 181.506 132.622L188.215 141.848L176.987 148.369L172.645 140.253L172.649 140.258Z" fill="#D6D6D6"/>
<path d="M170.01 132.687C169.935 132.794 168.627 131.892 167.096 130.679C165.56 129.466 164.387 128.401 164.475 128.304C164.558 128.206 165.867 129.103 167.388 130.312C168.915 131.52 170.089 132.584 170.01 132.687Z" fill="#979797"/>
<path d="M171.443 131.218C171.369 131.325 169.926 130.446 168.219 129.252C166.512 128.062 165.189 127.007 165.264 126.9C165.338 126.793 166.781 127.671 168.488 128.866C170.195 130.056 171.517 131.111 171.443 131.218Z" fill="#979797"/>
<path d="M172.483 129.656C172.408 129.763 171.03 128.954 169.402 127.848C167.774 126.742 166.507 125.756 166.581 125.65C166.655 125.543 168.033 126.351 169.666 127.458C171.295 128.564 172.557 129.549 172.487 129.656H172.483Z" fill="#979797"/>
<path d="M182.137 133.89L208.897 167.886L202.768 182.178C202.768 182.178 195.429 180.551 193.202 177.451C190.975 174.351 172.649 140.254 172.649 140.254L182.137 133.886V133.89Z" fill="#D6D6D6"/>
<path d="M250.067 86.3185C251.992 87.9917 251.987 90.9386 251.765 93.481C251.542 96.0234 251.375 98.9191 253.129 100.769C254.576 102.294 257.207 102.958 257.545 105.036C257.703 106.003 257.197 107.048 256.334 107.518C255.476 107.992 254.326 107.857 253.592 107.206C254.158 108.847 253.769 110.897 252.349 111.892C250.929 112.886 248.554 112.273 248.113 110.595C248.382 111.706 247.571 112.956 246.448 113.16C245.325 113.365 244.128 112.482 243.984 111.348" fill="#1B3620"/>
<path d="M222.495 103.479C222.017 104.748 220.402 105.44 219.154 104.92C217.906 104.399 217.266 102.758 217.832 101.527C218.273 100.56 219.317 99.8627 219.419 98.8029C219.54 97.5201 218.236 96.6091 217.076 96.0513C215.916 95.4936 214.566 94.7685 214.441 93.4857C214.32 92.2493 215.424 91.2872 216.348 90.4598C217.271 89.6325 218.185 88.3543 217.614 87.2481C217.322 86.6857 216.714 86.3603 216.324 85.8583C215.457 84.7521 215.912 82.9906 217.016 82.1214C218.12 81.2522 219.655 81.1314 221.038 81.3824C222.421 81.6333 223.72 82.205 225.07 82.6048C229.51 83.9294 234.501 83.2741 238.45 80.8478" fill="#1B3620"/>
<path d="M230.711 133.454C235.698 134.462 240.574 131.278 241.655 126.296L248.239 96.056C249.969 88.6983 245.297 81.3638 237.911 79.8346L237.22 79.7323C230.266 78.7098 223.696 83.2137 222.124 90.0741C220.658 96.4557 219.122 103.53 218.658 107.002C217.698 114.188 224.698 116.358 224.698 116.358L223.441 122.415C222.393 127.481 225.654 132.431 230.711 133.458V133.454Z" fill="#D6D6D6"/>
<path d="M223.409 94.815C223.311 95.3542 223.682 95.8794 224.244 95.9956C224.801 96.1071 225.334 95.7632 225.431 95.2287C225.529 94.6895 225.158 94.1643 224.596 94.0481C224.035 93.9365 223.506 94.2805 223.404 94.8197L223.409 94.815Z" fill="#1B3620"/>
<path d="M223.144 93.811C223.251 93.9644 224.109 93.5043 225.209 93.667C226.308 93.8157 227.037 94.4989 227.176 94.3827C227.245 94.3316 227.148 94.0713 226.837 93.7646C226.526 93.4578 225.974 93.1231 225.288 93.0255C224.601 92.9279 223.989 93.0952 223.617 93.3091C223.242 93.5182 223.093 93.746 223.144 93.8157V93.811Z" fill="#1B3620"/>
<path d="M234.167 96.6045C234.07 97.1437 234.441 97.6689 235.002 97.7851C235.559 97.8966 236.093 97.5527 236.19 97.0182C236.288 96.479 235.916 95.9538 235.355 95.8376C234.794 95.726 234.265 96.07 234.163 96.6091L234.167 96.6045Z" fill="#1B3620"/>
<path d="M233.935 95.6052C234.042 95.7585 234.9 95.2984 236 95.4611C237.099 95.6098 237.828 96.2931 237.967 96.1769C238.032 96.1257 237.944 95.8655 237.624 95.5587C237.313 95.2519 236.761 94.9173 236.074 94.8197C235.388 94.7221 234.775 94.8894 234.404 95.1032C234.028 95.3123 233.88 95.5401 233.931 95.6052H233.935Z" fill="#1B3620"/>
<path d="M228.744 103.195C228.758 103.135 228.09 102.916 227.004 102.61C226.726 102.54 226.471 102.442 226.452 102.247C226.415 102.033 226.577 101.75 226.763 101.438C227.125 100.797 227.51 100.123 227.909 99.4165C229.509 96.5348 230.711 94.1457 230.595 94.0806C230.479 94.0156 229.087 96.3024 227.487 99.1841C227.097 99.8952 226.73 100.574 226.373 101.225C226.22 101.527 225.984 101.866 226.067 102.308C226.113 102.531 226.294 102.712 226.471 102.786C226.642 102.87 226.8 102.893 226.939 102.921C228.048 103.144 228.739 103.251 228.749 103.191L228.744 103.195Z" fill="#1B3620"/>
<path d="M234.279 91.2407C234.344 91.5568 235.462 91.5754 236.733 91.9193C238.009 92.24 238.992 92.7699 239.206 92.5282C239.303 92.412 239.159 92.1006 238.784 91.752C238.408 91.3988 237.781 91.0269 237.021 90.8271C236.26 90.6272 235.531 90.6458 235.03 90.7713C234.529 90.8921 234.255 91.092 234.283 91.2407H234.279Z" fill="#1B3620"/>
<path d="M224.016 90.6783C224.174 90.9572 224.967 90.8085 225.881 90.9293C226.8 91.0176 227.542 91.343 227.756 91.1106C227.853 90.9944 227.765 90.7248 227.463 90.4413C227.167 90.1577 226.638 89.8835 226.007 89.8091C225.376 89.7394 224.8 89.8835 224.448 90.0927C224.086 90.3018 223.947 90.5435 224.012 90.6783H224.016Z" fill="#1B3620"/>
<path d="M241.614 87.0482C241.614 87.0482 241.637 87.0715 241.646 87.0854C242.653 88.1545 243.219 89.5721 243.205 91.0408C243.205 91.092 243.205 91.1431 243.205 91.1896C243.186 93.2765 242.829 95.3495 242.834 97.4411C242.834 99.528 243.237 101.713 244.541 103.339C245.075 104.009 246.114 104.571 246.726 103.967C246.963 103.734 247.046 103.39 247.121 103.065C248.225 98.1801 250.21 93.9923 250.957 88.8238C251.161 87.4154 250.693 86.0024 249.672 85.0124C248.707 84.0782 247.506 83.0835 246.221 83.474C244.935 83.869 243.052 85.8909 241.985 86.7089" fill="#1B3620"/>
<path d="M245.348 98.947C245.478 98.9098 250.484 98.2126 249.607 103.093C248.735 107.973 244.022 106.091 244.04 105.947C244.059 105.807 245.348 98.947 245.348 98.947Z" fill="#D6D6D6"/>
<path d="M245.859 104.367C245.882 104.353 245.933 104.441 246.063 104.534C246.193 104.622 246.425 104.71 246.694 104.659C247.241 104.562 247.821 103.823 248.002 102.944C248.095 102.503 248.076 102.061 247.984 101.685C247.9 101.299 247.714 101.011 247.464 100.918C247.218 100.811 247.005 100.936 246.921 101.062C246.833 101.187 246.847 101.29 246.819 101.294C246.805 101.304 246.731 101.192 246.805 101.001C246.842 100.908 246.921 100.802 247.051 100.732C247.186 100.657 247.366 100.639 247.543 100.69C247.914 100.783 248.192 101.192 248.294 101.606C248.42 102.029 248.447 102.521 248.345 103.019C248.137 103.995 247.473 104.827 246.731 104.906C246.374 104.934 246.105 104.78 245.979 104.636C245.849 104.487 245.845 104.376 245.863 104.371L245.859 104.367Z" fill="#979797"/>
<path d="M246.272 84.2595C247.765 82.4746 244.875 79.1699 242.569 78.0544C240.264 76.9389 236.909 77.6501 234.386 78.0963C232.794 78.3798 231.18 78.8585 229.593 78.5611C228.531 78.3612 227.566 77.8174 226.605 77.3154C225.645 76.8088 224.643 76.3207 223.562 76.2371C222.481 76.1534 221.298 76.5624 220.746 77.4967C220.194 78.4309 220.579 79.8764 221.618 80.1832C220.37 79.2397 218.268 79.9322 217.823 81.4335C217.378 82.9348 218.765 84.6638 220.324 84.5523C219.707 83.9202 218.51 84.6359 218.468 85.5237C218.426 86.4068 219.122 87.1551 219.869 87.6246C221.78 88.8238 224.202 88.8842 226.42 88.4845C228.637 88.0801 230.758 87.2574 232.966 86.8019C235.174 86.3464 238.881 85.4865 240.876 86.537C242.347 87.3132 243.149 89.3397 244.082 89.0515C244.986 88.7773 245.65 87.9685 245.951 87.0715C246.253 86.1744 246.262 85.2123 246.262 84.2641" fill="#1B3620"/>
<path d="M255.815 106.928C255.815 106.928 255.912 106.914 256.07 106.816C256.228 106.723 256.441 106.533 256.599 106.212C256.747 105.896 256.845 105.45 256.757 104.952C256.678 104.446 256.348 103.934 255.88 103.516C255.406 103.098 254.794 102.772 254.126 102.489C253.463 102.201 252.73 101.945 252.071 101.494C251.412 101.053 250.892 100.365 250.582 99.5559C250.261 98.7518 250.132 97.8408 250.15 96.9159C250.201 95.052 250.716 93.3137 250.841 91.673C250.994 90.0415 250.753 88.4937 250.062 87.4294C249.375 86.365 248.42 85.8398 247.747 85.6864C247.408 85.5981 247.134 85.6027 246.954 85.6074C246.773 85.626 246.675 85.6399 246.68 85.6492C246.68 85.6817 247.07 85.5934 247.724 85.7793C248.369 85.956 249.273 86.4858 249.913 87.5223C250.558 88.5542 250.781 90.0508 250.614 91.6544C250.479 93.2626 249.955 95.0009 249.904 96.9112C249.886 97.864 250.02 98.8076 250.359 99.6489C250.688 100.49 251.245 101.225 251.946 101.685C252.641 102.149 253.388 102.405 254.047 102.679C254.711 102.949 255.309 103.256 255.768 103.646C256.223 104.037 256.534 104.511 256.622 104.975C256.715 105.44 256.641 105.863 256.511 106.17C256.228 106.797 255.782 106.895 255.815 106.923V106.928Z" fill="black"/>
<path d="M221.46 80.0716C221.46 80.0716 221.391 80.0298 221.247 79.9601C221.177 79.9229 221.084 79.8857 220.973 79.8532C220.862 79.8113 220.732 79.7742 220.583 79.7509C219.994 79.6301 219.001 79.7277 218.125 80.5039C217.531 81.1778 217.146 82.2422 217.248 83.4135C217.327 84.5894 217.967 85.8351 219.039 86.7275C220.101 87.6339 221.548 88.2009 223.093 88.3636C224.643 88.5356 226.271 88.3775 227.909 88.0661C230.577 87.5549 233.003 86.5323 235.007 85.3192C236.019 84.7335 236.974 84.1711 237.935 83.7946C238.89 83.4089 239.846 83.2415 240.718 83.2229C242.477 83.1904 243.854 83.7156 244.717 84.1711C245.585 84.6359 245.993 85.0171 246.012 84.9892C246.012 84.9892 245.631 84.5802 244.764 84.0875C243.906 83.6041 242.514 83.0417 240.718 83.051C239.828 83.051 238.839 83.2183 237.86 83.6041C236.877 83.9806 235.903 84.543 234.891 85.124C232.892 86.3185 230.498 87.3225 227.858 87.8244C226.239 88.1312 224.629 88.2846 223.117 88.1265C221.604 87.9732 220.208 87.4294 219.178 86.5648C218.138 85.7096 217.517 84.529 217.433 83.4042C217.322 82.2794 217.679 81.2569 218.231 80.6015C219.043 79.8578 220.003 79.7323 220.579 79.8253C221.168 79.9182 221.456 80.0949 221.465 80.0716H221.46Z" fill="black"/>
<path d="M224.174 76.0047C224.174 76.0047 224.123 76.4137 224.346 77.1016C224.573 77.7802 225.167 78.7191 226.267 79.4163C226.809 79.7695 227.464 80.067 228.21 80.225C228.953 80.3877 229.774 80.4203 230.618 80.3505C232.321 80.2204 234.107 79.6394 235.977 79.1514C237.842 78.6633 239.716 78.4123 241.331 78.8446C242.945 79.2583 244.179 80.2436 244.968 81.2104C245.77 82.1865 246.169 83.1533 246.36 83.8319C246.545 84.5151 246.568 84.9148 246.596 84.9102C246.606 84.9102 246.596 84.8126 246.582 84.622C246.573 84.4314 246.522 84.1572 246.448 83.8086C246.285 83.1114 245.9 82.1168 245.098 81.0989C244.304 80.0949 243.052 79.063 241.382 78.6215C239.711 78.1613 237.786 78.417 235.912 78.9097C234.028 79.3977 232.265 79.9833 230.595 80.1181C229.765 80.1925 228.967 80.1646 228.248 80.0159C227.524 79.8718 226.884 79.5929 226.355 79.2629C225.278 78.6029 224.68 77.7151 224.429 77.0644C224.184 76.3998 224.197 75.9954 224.17 76L224.174 76.0047Z" fill="black"/>
<path d="M226.545 106.853C226.628 107.327 226.712 107.811 226.921 108.243C227.134 108.675 227.496 109.061 227.96 109.182C228.456 109.312 229.004 109.117 229.37 108.754C229.737 108.396 229.941 107.894 230.024 107.388C230.099 106.928 230.006 106.342 229.565 106.193C229.384 106.133 229.185 106.165 228.995 106.198C228.136 106.351 227.283 106.509 226.424 106.663" fill="#979797"/>
<path d="M226.995 108.801C227.032 108.731 227.468 109.098 228.271 109.042C228.661 109.015 229.124 108.861 229.472 108.494C229.816 108.131 230.043 107.569 229.987 106.993C229.978 106.849 229.936 106.709 229.895 106.584C229.834 106.458 229.848 106.467 229.746 106.449C229.644 106.444 229.468 106.467 229.329 106.477C229.185 106.486 229.041 106.5 228.902 106.509C228.345 106.551 227.844 106.584 227.422 106.602C226.577 106.644 226.053 106.639 226.044 106.579C226.035 106.519 226.554 106.416 227.389 106.3C227.807 106.24 228.308 106.179 228.865 106.114C229.004 106.1 229.148 106.082 229.292 106.068C229.445 106.054 229.565 106.026 229.769 106.031C229.867 106.031 230.001 106.058 230.108 106.151C230.215 106.24 230.261 106.347 230.298 106.435C230.359 106.607 230.405 106.774 230.419 106.955C230.488 107.676 230.201 108.35 229.76 108.782C229.31 109.219 228.735 109.363 228.289 109.354C227.835 109.349 227.487 109.205 227.278 109.07C227.069 108.936 226.986 108.824 227.004 108.805L226.995 108.801Z" fill="#1B3620"/>
<path d="M224.694 116.354C224.694 116.354 229.37 118.129 233.921 116.837C233.921 116.837 230.488 119.719 224.225 118.613L224.694 116.349V116.354Z" fill="#979797"/>
<path d="M231.829 182.992C231.829 182.992 231.588 182.829 231.189 182.504C230.99 182.336 230.744 182.136 230.442 181.927C230.145 181.713 229.816 181.453 229.426 181.207C229.041 180.951 228.619 180.672 228.146 180.407C227.682 180.119 227.162 179.863 226.619 179.585C225.52 179.055 224.276 178.548 222.926 178.134C221.576 177.735 220.254 177.479 219.043 177.316C218.435 177.251 217.86 177.182 217.317 177.163C216.775 177.121 216.269 177.126 215.81 177.126C215.346 177.117 214.928 177.154 214.562 177.168C214.195 177.182 213.88 177.21 213.62 177.242C213.105 177.293 212.817 177.312 212.817 177.298C212.817 177.279 213.095 177.228 213.61 177.149C213.866 177.107 214.181 177.061 214.552 177.038C214.919 177.01 215.341 176.959 215.805 176.959C216.269 176.945 216.779 176.931 217.327 176.963C217.874 176.968 218.459 177.038 219.071 177.093C220.291 177.247 221.627 177.502 222.996 177.902C224.355 178.316 225.613 178.841 226.717 179.385C227.259 179.673 227.784 179.938 228.248 180.235C228.721 180.51 229.143 180.798 229.524 181.067C229.913 181.323 230.233 181.597 230.526 181.825C230.823 182.048 231.059 182.257 231.249 182.438C231.634 182.787 231.843 182.987 231.829 183.001V182.992Z" fill="#FFFBFF"/>
<path d="M204.564 159.12L208.373 142.605C209.829 136.396 211.555 130.428 214.45 129.721V131.641L213.211 178.822C213.211 178.822 205.454 187.672 195.563 182.75C192.473 181.211 186.837 170.405 186.837 170.405C186.837 170.405 173.74 146.956 174.283 145.891C174.825 144.827 182.842 134.481 183.659 133.965L204.559 159.11L204.564 159.12Z" fill="#00AF50"/>
<path d="M243.711 125.064C251.273 126.514 259.786 130.934 263.706 142.252C265.135 146.389 275.551 176.879 275.551 176.879L257.791 176.508L254.901 170.219L256.311 180.417L257.513 194.969L212.678 195.722L212.993 173.807L213.425 130.209C213.425 130.209 213.931 129.549 221.66 125.273C226.462 122.619 243.711 125.055 243.711 125.055V125.064Z" fill="#00AF50"/>
<g opacity="0.2">
<path d="M248.183 154.207C248.921 163.41 249.765 166.254 250.503 175.457C250.572 176.326 250.646 177.214 250.985 178.014C251.324 178.818 251.987 179.533 252.841 179.705C254.145 179.97 255.843 180.919 256.214 179.636L254.975 170.772C254.975 170.772 254.683 169.103 253.75 167.03C250.999 160.914 249.983 160.551 248.183 154.207Z" fill="black"/>
</g>
<path d="M221.66 130L221.808 129.043L223.242 119.858C223.33 119.305 223.826 118.91 224.383 118.957L242.036 120.435C243.145 120.528 243.971 121.499 243.892 122.61L243.497 127.946L237.986 135.15L230.048 136.391" fill="#00AF50"/>
<path d="M212.794 147.267C212.859 147.267 212.915 154.462 212.915 163.335C212.915 172.208 212.859 179.403 212.794 179.403C212.729 179.403 212.673 172.208 212.673 163.335C212.673 154.462 212.729 147.267 212.794 147.267Z" fill="#1B3620"/>
<path d="M258.167 177.986C258.167 177.986 258.144 177.953 258.111 177.883C258.074 177.8 258.023 177.698 257.967 177.567C257.838 177.27 257.657 176.861 257.429 176.345C256.965 175.262 256.302 173.724 255.49 171.832C253.871 167.997 251.644 162.726 249.185 156.907C247.965 153.988 246.801 151.209 245.738 148.676C245.177 147.425 244.801 146.142 244.597 144.939C244.383 143.73 244.3 142.591 244.291 141.55C244.267 139.468 244.578 137.781 244.996 136.693C245.047 136.558 245.093 136.428 245.14 136.307C245.195 136.191 245.251 136.084 245.302 135.982C245.399 135.778 245.488 135.61 245.58 135.489C245.659 135.373 245.724 135.28 245.78 135.201C245.826 135.136 245.849 135.108 245.854 135.108C245.887 135.127 245.464 135.629 245.089 136.726C244.704 137.813 244.421 139.482 244.462 141.55C244.518 143.605 244.796 146.105 245.942 148.592C247.009 151.12 248.178 153.9 249.403 156.814C251.839 162.647 254.043 167.923 255.643 171.767C256.427 173.672 257.063 175.22 257.508 176.308C257.717 176.833 257.884 177.247 258.005 177.549C258.056 177.679 258.097 177.786 258.13 177.874C258.158 177.949 258.167 177.986 258.162 177.986H258.167Z" fill="#1B3620"/>
<path d="M249.213 126.667C249.213 126.667 249.051 126.839 248.698 127.114C248.345 127.393 247.789 127.755 247.005 128.104C246.221 128.443 245.214 128.745 244.022 128.94C242.829 129.14 241.461 129.266 239.939 129.345C238.422 129.414 236.756 129.382 234.975 129.419C233.198 129.461 231.286 129.572 229.361 130.102C227.454 130.618 225.483 131.571 224.082 133.221C223.395 134.044 222.88 135.043 222.616 136.121C222.342 137.195 222.337 138.362 222.667 139.445C222.843 139.984 223.112 140.486 223.446 140.932C223.785 141.374 224.216 141.736 224.699 141.992C225.176 142.247 225.724 142.378 226.248 142.317C226.772 142.266 227.264 142.006 227.607 141.615C228.303 140.821 228.433 139.677 228.294 138.673C228.22 138.167 228.071 137.669 227.853 137.223C227.631 136.777 227.338 136.363 227.028 135.977C225.756 134.444 223.979 133.556 222.272 133.156C220.551 132.747 218.858 132.831 217.401 133.212C215.939 133.579 214.696 134.183 213.671 134.811C212.646 135.434 211.838 136.089 211.203 136.651C210.567 137.209 210.117 137.692 209.802 138.009C209.658 138.167 209.542 138.287 209.454 138.38C209.375 138.464 209.333 138.506 209.328 138.501C209.328 138.501 209.89 137.739 211.138 136.577C211.764 136.005 212.571 135.331 213.597 134.695C214.622 134.053 215.87 133.43 217.354 133.049C218.825 132.649 220.551 132.556 222.309 132.965C224.054 133.37 225.877 134.267 227.19 135.843C227.51 136.242 227.807 136.661 228.048 137.13C228.28 137.604 228.438 138.12 228.512 138.65C228.591 139.18 228.591 139.733 228.484 140.277C228.378 140.816 228.16 141.355 227.774 141.783C227.394 142.21 226.847 142.503 226.267 142.559C225.687 142.624 225.093 142.48 224.578 142.206C224.063 141.931 223.604 141.55 223.246 141.081C222.894 140.611 222.616 140.086 222.43 139.519C222.082 138.385 222.091 137.172 222.374 136.061C222.653 134.946 223.177 133.918 223.891 133.063C225.343 131.362 227.357 130.4 229.292 129.879C231.245 129.349 233.175 129.242 234.961 129.21C236.747 129.182 238.408 129.224 239.92 129.168C241.433 129.103 242.801 128.987 243.989 128.801C245.177 128.62 246.179 128.331 246.958 128.011C247.738 127.681 248.299 127.337 248.656 127.072C248.842 126.946 248.967 126.83 249.06 126.765C249.153 126.695 249.199 126.663 249.199 126.663L249.213 126.667Z" fill="#FFFBFF"/>
<path d="M264.555 146.012C264.555 146.012 264.486 146.031 264.356 146.045C264.226 146.054 264.036 146.082 263.785 146.087C263.289 146.11 262.57 146.105 261.684 146.036C260.797 145.97 259.749 145.836 258.589 145.678C257.429 145.52 256.158 145.343 254.813 145.269C253.472 145.204 252.191 145.306 251.055 145.552C249.923 145.803 248.939 146.184 248.192 146.644C246.675 147.555 246.128 148.578 246.077 148.522C246.072 148.522 246.105 148.457 246.174 148.35C246.253 148.243 246.341 148.071 246.513 147.885C246.819 147.49 247.348 146.979 248.104 146.5C248.856 146.012 249.858 145.608 251.008 145.338C252.164 145.078 253.467 144.967 254.827 145.032C256.186 145.106 257.462 145.292 258.622 145.459C259.781 145.631 260.821 145.785 261.702 145.868C262.579 145.957 263.293 145.989 263.79 145.994C264.282 145.998 264.56 145.994 264.56 146.012H264.555Z" fill="#FFFBFF"/>
<path d="M253.407 166.849C253.402 166.91 252.474 166.519 250.744 166.621C249.881 166.663 248.837 166.845 247.654 167.175C246.466 167.495 245.149 167.965 243.664 168.425C242.189 168.88 240.505 169.313 238.663 169.299C236.831 169.299 234.859 168.936 232.966 168.113C231.064 167.314 229.241 166.036 227.77 164.33C227.032 163.484 226.387 162.513 225.928 161.439C225.478 160.365 225.227 159.157 225.399 157.948C225.575 156.754 226.137 155.61 227.046 154.839C227.501 154.458 228.03 154.16 228.61 154.039C229.185 153.914 229.783 153.937 230.335 154.095C230.887 154.253 231.412 154.518 231.825 154.913C232.238 155.304 232.548 155.806 232.66 156.359C232.78 156.907 232.725 157.483 232.534 157.99C232.344 158.501 232.029 158.948 231.667 159.324C230.939 160.082 230.034 160.588 229.12 160.946C228.661 161.118 228.187 161.253 227.723 161.332C227.491 161.374 227.26 161.425 227.028 161.462C226.796 161.49 226.568 161.518 226.336 161.541C224.508 161.741 222.787 161.541 221.275 161.188C219.758 160.825 218.449 160.277 217.364 159.682C216.278 159.092 215.415 158.455 214.761 157.879C214.599 157.734 214.446 157.6 214.297 157.474C214.163 157.339 214.037 157.209 213.917 157.088C213.675 156.856 213.485 156.647 213.341 156.466C213.202 156.298 213.091 156.163 213.007 156.066C212.933 155.973 212.896 155.926 212.901 155.926C212.901 155.926 212.947 155.968 213.026 156.052C213.114 156.145 213.23 156.275 213.374 156.438C213.522 156.61 213.717 156.814 213.963 157.042C214.084 157.158 214.214 157.284 214.348 157.414C214.497 157.539 214.65 157.669 214.817 157.809C215.476 158.371 216.338 158.989 217.424 159.566C218.505 160.142 219.804 160.677 221.307 161.025C222.806 161.365 224.508 161.555 226.308 161.346C226.531 161.318 226.758 161.29 226.986 161.262C227.213 161.225 227.44 161.174 227.668 161.132C228.132 161.053 228.582 160.918 229.032 160.751C229.918 160.402 230.799 159.905 231.495 159.175C231.839 158.813 232.135 158.39 232.312 157.916C232.488 157.442 232.539 156.916 232.423 156.41C232.21 155.392 231.3 154.597 230.261 154.328C229.742 154.179 229.18 154.16 228.651 154.281C228.118 154.393 227.617 154.671 227.195 155.034C226.341 155.764 225.798 156.851 225.631 157.995C225.469 159.143 225.705 160.314 226.141 161.355C226.587 162.401 227.213 163.354 227.941 164.186C229.384 165.864 231.175 167.123 233.045 167.918C234.91 168.732 236.849 169.099 238.654 169.108C240.468 169.131 242.129 168.718 243.604 168.271C245.084 167.825 246.415 167.365 247.608 167.058C248.8 166.742 249.858 166.57 250.73 166.542C251.166 166.51 251.551 166.552 251.885 166.561C252.215 166.607 252.502 166.631 252.725 166.686C252.938 166.738 253.105 166.779 253.231 166.812C253.342 166.84 253.402 166.858 253.402 166.863L253.407 166.849Z" fill="#FFFBFF"/>
<path d="M212.641 161.894C212.604 161.913 212.39 161.402 211.94 160.644C211.49 159.886 210.771 158.896 209.792 157.976C208.809 157.061 207.774 156.41 206.985 156.015C206.201 155.62 205.677 155.438 205.691 155.401C205.696 155.387 205.83 155.415 206.071 155.485C206.313 155.55 206.651 155.68 207.06 155.861C207.876 156.224 208.953 156.865 209.955 157.8C210.957 158.738 211.671 159.766 212.084 160.56C212.293 160.956 212.441 161.286 212.525 161.523C212.613 161.755 212.65 161.89 212.636 161.894H212.641Z" fill="#FFFBFF"/>
<path d="M194.635 181.788C194.635 181.788 194.608 181.751 194.561 181.672C194.51 181.579 194.45 181.467 194.371 181.323C194.204 181.012 193.963 180.556 193.666 179.956C193.081 178.762 192.218 177.019 191.541 174.723C191.216 173.575 190.942 172.278 190.877 170.87C190.836 170.163 190.877 169.429 190.966 168.685C191.072 167.941 191.258 167.184 191.513 166.431C192.056 164.944 192.914 163.442 194.236 162.303C195.531 161.169 197.317 160.375 199.187 160.565C200.105 160.663 201.024 161.039 201.627 161.755C202.221 162.452 202.508 163.41 202.314 164.297C202.216 164.739 201.98 165.148 201.655 165.446C201.335 165.752 200.931 165.952 200.523 166.064C199.692 166.296 198.811 166.147 198.101 165.771C197.382 165.399 196.797 164.851 196.329 164.26C195.86 163.665 195.494 163.024 195.215 162.373C194.673 161.062 194.496 159.715 194.594 158.515C194.691 157.312 195.062 156.261 195.512 155.424C195.962 154.583 196.491 153.942 196.964 153.472C197.442 153.003 197.864 152.691 198.161 152.506C198.305 152.408 198.426 152.348 198.505 152.301C198.583 152.259 198.625 152.236 198.625 152.241C198.63 152.25 198.472 152.348 198.189 152.547C197.902 152.747 197.498 153.068 197.034 153.542C196.575 154.016 196.064 154.658 195.633 155.49C195.201 156.322 194.849 157.353 194.765 158.529C194.682 159.705 194.858 161.016 195.401 162.294C195.675 162.931 196.036 163.554 196.496 164.13C196.955 164.702 197.521 165.227 198.203 165.576C198.88 165.929 199.697 166.064 200.462 165.845C201.228 165.65 201.915 165.055 202.082 164.246C202.258 163.452 201.993 162.554 201.441 161.913C200.894 161.262 200.031 160.9 199.159 160.807C197.377 160.626 195.642 161.388 194.39 162.485C193.104 163.591 192.26 165.055 191.722 166.51C191.467 167.249 191.286 167.988 191.174 168.718C191.082 169.452 191.04 170.168 191.077 170.865C191.133 172.255 191.397 173.538 191.708 174.681C192.357 176.968 193.193 178.715 193.754 179.919C194.037 180.51 194.255 180.97 194.417 181.304C194.487 181.453 194.543 181.574 194.589 181.667C194.626 181.751 194.645 181.792 194.64 181.792L194.635 181.788Z" fill="#FFFBFF"/>
<path d="M188.911 140.751C188.911 140.751 188.934 140.816 188.952 140.946C188.971 141.076 189.003 141.262 189.022 141.508C189.068 142.001 189.091 142.717 189.022 143.595C188.892 145.348 188.27 147.797 186.73 150.037C185.19 152.278 183.13 153.737 181.543 154.486C180.75 154.867 180.073 155.104 179.599 155.234C179.363 155.308 179.177 155.341 179.052 155.373C178.927 155.401 178.857 155.411 178.857 155.401C178.852 155.383 179.112 155.304 179.571 155.146C180.035 154.988 180.694 154.727 181.469 154.332C183.014 153.551 185.023 152.097 186.535 149.898C188.043 147.7 188.679 145.301 188.855 143.577C188.948 142.708 188.952 142.001 188.934 141.513C188.915 141.025 188.897 140.751 188.915 140.751H188.911Z" fill="#FFFBFF"/>
<path d="M268.615 160.904C268.647 160.946 267.738 161.323 266.824 162.545C266.365 163.145 265.901 163.916 265.372 164.776C264.843 165.636 264.184 166.542 263.391 167.402C261.8 169.127 260.004 170.307 258.636 170.981C257.954 171.33 257.374 171.548 256.975 171.692C256.571 171.827 256.344 171.892 256.339 171.874C256.334 171.86 256.548 171.762 256.942 171.604C257.332 171.432 257.893 171.19 258.561 170.828C259.893 170.121 261.651 168.936 263.215 167.235C263.999 166.384 264.648 165.501 265.186 164.655C265.724 163.809 266.207 163.033 266.694 162.438C267.181 161.843 267.659 161.43 268.026 161.202C268.207 161.086 268.355 161.007 268.457 160.965C268.559 160.918 268.615 160.895 268.619 160.904H268.615Z" fill="#FFFBFF"/>
<path d="M243.544 125.608C243.544 125.608 243.469 125.636 243.33 125.664C243.163 125.691 242.959 125.729 242.713 125.775C242.175 125.863 241.396 125.984 240.435 126.114C238.505 126.375 235.833 126.677 232.873 126.895C231.393 127.002 229.978 127.1 228.684 127.049C227.389 127.002 226.23 126.788 225.302 126.468C224.369 126.156 223.678 125.743 223.237 125.422C223.015 125.259 222.852 125.124 222.75 125.022C222.643 124.925 222.592 124.869 222.597 124.864C222.611 124.85 222.838 125.05 223.288 125.343C223.738 125.636 224.43 126.017 225.353 126.305C226.271 126.598 227.413 126.788 228.688 126.826C229.964 126.867 231.375 126.765 232.855 126.658C235.81 126.44 238.482 126.166 240.417 125.947C241.354 125.84 242.124 125.752 242.704 125.687C243.242 125.626 243.544 125.598 243.548 125.617L243.544 125.608Z" fill="#1B3620"/>
<path d="M275.319 180.17C276.789 187.821 270.981 194.937 263.201 195.016L228.062 194.625L228.985 183.224L259.113 178.72" fill="#D6D6D6"/>
<path d="M231.161 183.745C230.999 183.8 228.971 182.885 227.153 182.043C225.223 181.151 223.107 180.737 220.982 180.844L212.604 181.272C212.604 181.272 213.119 182.657 214.009 183.15C214.896 183.642 220.106 183.749 220.106 183.749L219.841 184.023C218.742 185.158 217.248 185.813 215.67 185.85L214.872 185.869C214.279 185.822 213.694 185.706 213.123 185.525L211.059 184.688C210.433 184.405 209.774 184.451 209.5 185.083C209.254 185.655 209.435 186.44 211.142 187.3C212.098 187.784 215.633 189.006 215.633 189.006C215.633 189.006 215.684 189.987 215.837 190.503C215.99 191.019 217.382 191.535 217.382 191.535C217.382 191.535 218.259 193.338 218.616 193.752C218.779 193.938 220.036 194.328 221.372 194.704C223.534 195.313 225.821 195.299 227.974 194.653L231.166 193.7V183.958" fill="#D6D6D6"/>
<path d="M219.702 190.108C219.702 190.163 218.705 190.108 217.526 189.796C216.343 189.485 215.452 189.043 215.476 188.992C215.499 188.936 216.413 189.29 217.577 189.592C218.742 189.898 219.711 190.043 219.702 190.108Z" fill="#979797"/>
<path d="M219.405 192.074C219.405 192.129 218.862 192.162 218.227 191.99C217.586 191.818 217.141 191.516 217.169 191.465C217.197 191.409 217.67 191.623 218.282 191.786C218.89 191.953 219.41 192.013 219.405 192.074Z" fill="#979797"/>
<path d="M220.936 182.992C220.936 182.992 220.713 183.284 220.291 183.684C219.864 184.084 219.243 184.614 218.468 185.069C217.689 185.525 216.904 185.78 216.329 185.897C215.754 186.013 215.387 186.022 215.387 185.999C215.369 185.924 216.839 185.785 218.366 184.888C219.127 184.446 219.748 183.94 220.198 183.573C220.644 183.201 220.922 182.968 220.945 182.992H220.936Z" fill="#979797"/>
<path d="M232.015 182.206L231.161 195.1L264.263 195.113C266.509 195.113 268.717 194.505 270.642 193.343C275.115 190.651 277.42 185.446 276.414 180.319C276.075 178.223 275.277 175.773 274.28 173.166L257.638 175.908L258.172 177.986L232.02 182.211L232.015 182.206Z" fill="#00AF50"/>
<path d="M265.836 176.907C265.836 176.907 265.72 176.94 265.502 176.986C265.256 177.028 264.936 177.089 264.537 177.158C263.669 177.302 262.458 177.507 260.974 177.753C257.94 178.237 253.792 178.897 249.208 179.631C244.62 180.333 240.468 180.97 237.429 181.439C235.94 181.658 234.724 181.834 233.857 181.96C233.453 182.016 233.128 182.057 232.882 182.09C232.66 182.118 232.544 182.127 232.539 182.118C232.539 182.108 232.655 182.085 232.873 182.039C233.119 181.997 233.439 181.936 233.838 181.867C234.706 181.723 235.917 181.518 237.401 181.272C240.435 180.788 244.583 180.128 249.167 179.394C253.755 178.692 257.902 178.055 260.941 177.591C262.431 177.372 263.646 177.196 264.514 177.07C264.917 177.014 265.242 176.972 265.488 176.94C265.711 176.912 265.827 176.903 265.831 176.912L265.836 176.907Z" fill="#1B3620"/>
<path d="M248.898 195.123C248.842 195.113 249.097 194.193 249.13 192.673C249.13 192.292 249.139 191.879 249.083 191.437C249.06 190.991 248.967 190.526 248.879 190.033C248.666 189.057 248.318 188.007 247.803 186.975C247.283 185.943 246.634 185.046 245.993 184.279C245.826 184.093 245.664 183.912 245.506 183.735C245.344 183.559 245.172 183.41 245.014 183.252C244.704 182.931 244.374 182.676 244.087 182.429C242.903 181.476 242.064 181.035 242.092 180.993C242.101 180.979 242.31 181.086 242.685 181.295C242.871 181.397 243.103 181.523 243.354 181.699C243.599 181.876 243.906 182.048 244.198 182.299C244.495 182.541 244.833 182.792 245.154 183.108C245.316 183.266 245.492 183.415 245.659 183.591C245.822 183.768 245.989 183.954 246.16 184.14C246.824 184.911 247.487 185.818 248.016 186.873C248.54 187.928 248.888 189.001 249.097 189.996C249.181 190.498 249.269 190.977 249.283 191.428C249.329 191.879 249.31 192.301 249.301 192.687C249.306 193.073 249.236 193.417 249.208 193.719C249.181 194.021 249.12 194.282 249.074 194.491C248.976 194.909 248.921 195.137 248.902 195.132L248.898 195.123Z" fill="#FFFBFF"/>
<path d="M269.046 194.151C269.046 194.151 268.49 194.175 267.511 193.965C267.028 193.849 266.43 193.682 265.794 193.361C265.158 193.04 264.472 192.58 263.859 191.916C263.252 191.256 262.714 190.386 262.435 189.359C262.305 188.843 262.199 188.3 262.189 187.737C262.152 187.175 262.203 186.584 262.328 185.999C262.458 185.413 262.672 184.828 263.015 184.293C263.349 183.758 263.827 183.284 264.407 182.968C264.982 182.648 265.66 182.466 266.346 182.522C267.033 182.569 267.715 182.913 268.165 183.466C268.615 184.009 268.87 184.725 268.773 185.427C268.68 186.138 268.197 186.719 267.631 187.059C266.471 187.751 265.131 187.742 263.971 187.561C261.6 187.165 259.754 185.748 258.793 184.237C257.8 182.722 257.55 181.225 257.522 180.235C257.494 179.231 257.652 178.692 257.652 178.692C257.684 178.692 257.555 179.241 257.615 180.231C257.675 181.207 257.944 182.671 258.937 184.144C259.897 185.604 261.707 186.97 264.008 187.342C265.135 187.514 266.434 187.505 267.506 186.859C268.026 186.543 268.452 186.017 268.531 185.395C268.615 184.776 268.387 184.121 267.975 183.624C267.562 183.117 266.954 182.815 266.323 182.768C265.692 182.713 265.056 182.885 264.518 183.182C263.414 183.782 262.788 184.939 262.547 186.055C262.421 186.617 262.37 187.189 262.403 187.737C262.403 188.286 262.505 188.815 262.63 189.317C262.89 190.317 263.405 191.163 263.985 191.813C264.574 192.469 265.237 192.924 265.854 193.25C266.476 193.575 267.056 193.752 267.534 193.886C268.494 194.119 269.051 194.128 269.046 194.161V194.151Z" fill="#FFFBFF"/>
<path d="M137.738 18.496H54.8373C44.7467 18.496 36.5675 26.6904 36.5675 36.7997V66.398H18.6781L36.5675 84.3205V104.437C36.5675 114.546 44.7467 122.741 54.8373 122.741H137.738C147.829 122.741 156.008 114.546 156.008 104.437V36.7997C156.008 26.6904 147.829 18.496 137.738 18.496Z" fill="#C5FFC9"/>
<path d="M103.871 21.6287C103.347 22.9859 104.247 24.4733 105.258 25.5191C106.269 26.5695 107.49 27.5642 107.81 28.9865C108.074 30.181 107.633 31.422 107.74 32.6398C107.851 33.8854 108.519 35.0056 108.9 36.1954C109.591 38.3521 109.313 40.7086 108.696 42.8885C108.19 44.678 107.443 46.4349 106.209 47.82C104.975 49.2051 103.198 50.1858 101.347 50.1533C100.823 50.144 100.252 50.0278 99.9088 49.6327C99.6119 49.2888 99.5469 48.8054 99.4913 48.3545C98.4289 39.0075 98.4289 29.5396 99.4913 20.1925" fill="#1B3620"/>
<path d="M102.892 51.7894C106.928 51.6127 110.658 55.4845 110.338 59.5189C114.425 60.5136 117.311 65.0221 116.513 69.1588C116.249 70.5253 115.645 71.8267 115.562 73.2118C115.469 74.7271 116.007 76.1958 116.3 77.6878C116.829 80.379 116.541 83.2236 115.492 85.7567C114.857 87.2952 113.669 88.8848 112.008 88.9313C110.881 88.9638 109.837 88.2294 109.206 87.2905C108.58 86.3516 108.301 85.2222 108.079 84.116C107.36 80.4859 107.142 76.7536 106.149 73.1886C105.156 69.6236 103.221 66.1097 100.002 64.2924C98.2247 63.2884 96.0906 62.8143 94.6755 61.3363C93.1956 59.7885 92.8569 57.339 93.6317 55.3404C94.4065 53.3418 96.1694 51.8173 98.1783 51.0875" fill="#1B3620"/>
<path d="M74.9536 24.9567C74.9025 23.2276 76.4985 21.8937 78.1037 21.2615C79.7089 20.6294 81.4951 20.3877 82.924 19.4256C84.1906 18.5704 85.0442 17.2364 86.1159 16.1488C88.7464 13.4762 92.8569 12.37 96.471 13.3554C100.085 14.3454 103.064 17.3898 103.977 21.0291C104.594 23.4879 104.172 26.3975 102.238 28.0336C99.9922 29.93 96.6612 29.5117 93.7801 28.9214C90.8991 28.3311 87.6422 27.7501 85.2391 29.442C83.7916 30.4645 82.9565 32.1238 82.0704 33.6623C81.1842 35.2008 80.0708 36.7718 78.396 37.3481C76.7212 37.9245 74.4432 36.9298 74.3783 35.1543" fill="#1B3620"/>
<path d="M81.7549 25.3099C80.2656 25.4726 79.1475 26.7461 79.18 28.2474L80.9012 67.2903C80.9754 71.9011 87.7025 74.4947 92.6295 74.3785C97.6076 74.2623 97.7653 71.8174 97.8303 67.4298C97.9323 60.0999 97.9277 57.3483 97.9277 57.3902C97.9277 57.3902 104.214 56.3304 105.499 48.1082C106.139 44.018 105.917 37.3156 105.559 31.8403C105.239 26.9088 101.964 20.8665 97.0601 21.3963L81.7549 25.3099Z" fill="#F6F6F6"/>
<path d="M104.144 37.0042C104.168 37.562 103.713 38.0361 103.133 38.0686C102.553 38.1011 102.066 37.6782 102.047 37.1204C102.029 36.5626 102.479 36.0886 103.059 36.056C103.639 36.0235 104.126 36.4464 104.149 37.0042H104.144Z" fill="#1B3620"/>
<path d="M104.117 35.3309C103.987 35.4704 103.189 34.8801 102.057 34.8847C100.925 34.8754 100.094 35.4611 99.9736 35.3217C99.9133 35.2612 100.048 35.0102 100.405 34.7453C100.762 34.4804 101.365 34.2247 102.071 34.2247C102.776 34.2247 103.37 34.485 103.713 34.75C104.061 35.0149 104.182 35.2659 104.117 35.3263V35.3309Z" fill="#1B3620"/>
<path d="M93.265 37.0041C93.2882 37.5619 92.8336 38.036 92.2537 38.0685C91.6737 38.1011 91.1866 37.6781 91.168 37.1203C91.1495 36.5626 91.5995 36.0885 92.1794 36.056C92.7593 36.0234 93.2465 36.4464 93.265 37.0041Z" fill="#1B3620"/>
<path d="M92.9867 35.5679C92.8568 35.7074 92.0589 35.1171 90.9268 35.1217C89.7948 35.1124 88.9644 35.6981 88.8438 35.5587C88.7835 35.4982 88.9134 35.2472 89.2752 34.9823C89.6325 34.7174 90.2356 34.4617 90.9408 34.4617C91.646 34.4617 92.2398 34.722 92.5831 34.9869C92.9311 35.2519 93.0517 35.5029 92.9867 35.5633V35.5679Z" fill="#1B3620"/>
<path d="M97.1159 43.9715C97.1112 43.9064 97.8118 43.7856 98.9531 43.6368C99.2407 43.6043 99.5144 43.5485 99.5655 43.3487C99.635 43.1395 99.5098 42.8281 99.3706 42.4888C99.0969 41.787 98.8092 41.0526 98.5123 40.2857C97.32 37.1483 96.4524 34.5687 96.5777 34.5222C96.703 34.4757 97.7747 36.981 98.9716 40.1183C99.2593 40.8899 99.533 41.6289 99.7974 42.3354C99.9088 42.6654 100.094 43.0373 99.9505 43.4742C99.8717 43.6926 99.6629 43.846 99.4773 43.8971C99.2917 43.9529 99.1294 43.9576 98.9855 43.9668C97.8396 44.0319 97.1251 44.0366 97.1205 43.9715H97.1159Z" fill="#1B3620"/>
<path d="M97.9277 57.3948C97.9277 57.3948 92.4068 57.762 86.9324 54.4805C86.9324 54.4805 89.6093 60.1232 97.821 59.333L97.9277 57.3902V57.3948Z" fill="#B5B5B5"/>
<path d="M96.6426 46.7091C96.2344 46.17 95.5199 45.8772 94.8101 45.9562C94.3183 46.0119 93.8219 46.249 93.525 46.6487C93.228 47.0484 93.1677 47.6201 93.4368 48.0013C93.743 48.4289 94.3833 48.5311 94.9214 48.3731C95.4596 48.2197 95.9235 47.8618 96.3689 47.5039C96.4895 47.4063 96.6148 47.3041 96.6937 47.1693C96.7679 47.0345 96.7864 46.8579 96.6937 46.7463" fill="#B5B5B5"/>
<path d="M93.7848 44.7663C93.9703 44.757 93.975 45.9887 95.0281 46.8579C96.0813 47.7317 97.3896 47.5923 97.3988 47.7642C97.4174 47.8432 97.1066 48.0059 96.5545 48.0199C96.0117 48.0385 95.2183 47.8665 94.5735 47.332C93.9286 46.7975 93.6549 46.0817 93.6085 45.5797C93.5621 45.0638 93.6966 44.7616 93.7801 44.7663H93.7848Z" fill="#1B3620"/>
<path d="M93.4925 33.5833C93.3811 33.8901 92.2491 33.746 90.9223 33.9133C89.5908 34.0481 88.5191 34.4432 88.3428 34.1643C88.2639 34.0342 88.4495 33.7414 88.8809 33.4439C89.3078 33.1464 89.9944 32.8582 90.7924 32.7699C91.5903 32.6816 92.3187 32.8071 92.8058 33.0023C93.293 33.1975 93.5389 33.4392 93.4925 33.588V33.5833Z" fill="#1B3620"/>
<path d="M103.694 32.0495C103.495 32.3098 102.716 32.0402 101.778 32.0309C100.841 31.9891 100.048 32.2075 99.8624 31.9379C99.7835 31.8078 99.9087 31.5475 100.252 31.3058C100.595 31.0641 101.166 30.8642 101.811 30.8782C102.456 30.8968 103.012 31.1292 103.342 31.3941C103.676 31.659 103.783 31.924 103.694 32.0495Z" fill="#1B3620"/>
<path d="M76.0253 52.3564C78.28 52.8119 80.7389 52.1194 82.423 50.5483C84.1071 48.9773 84.9793 46.5743 84.6916 44.2875C84.4364 42.2703 83.3508 40.2159 84.0467 38.3056C84.97 35.7771 88.5052 35.0009 89.4423 32.4817C89.9898 31.0176 89.498 29.3025 90.115 27.8663C90.695 26.5137 92.1146 25.7375 93.4925 25.2402C94.8704 24.7382 96.3503 24.3942 97.5102 23.4925C98.67 22.5908 99.3938 20.885 98.6422 19.6208C92.5229 20.3552 86.487 21.8239 80.7157 23.9852C79.3749 24.4872 77.9692 25.0868 77.1805 26.2813C76.3407 27.5409 76.3825 29.1724 76.4521 30.6876C76.7954 38.0686 75.6727 44.9801 76.0206 52.3611" fill="#1B3620"/>
<path d="M74.0721 50.0371C74.0721 50.0371 74.0257 50.0278 73.9376 49.9952C73.8494 49.9673 73.7242 49.9069 73.5618 49.814C73.2509 49.628 72.8334 49.2423 72.5365 48.6008C72.2442 47.9687 72.0725 47.0856 72.2674 46.1049C72.4623 45.1242 73.0282 44.1156 73.7566 43.1209C74.4757 42.1169 75.3851 41.099 76.0067 39.8022C76.3129 39.1562 76.5403 38.4404 76.5495 37.6828C76.5635 36.9252 76.3222 36.1675 76.067 35.396C75.8072 34.6291 75.5521 33.7924 75.5845 32.9093C75.6217 32.0355 75.8722 31.1524 76.3315 30.3715C76.7861 29.5907 77.4403 28.8935 78.2475 28.4194C79.0548 27.9174 80.0198 27.7454 80.9523 27.6478C81.8894 27.5409 82.822 27.4898 83.657 27.1737C84.5014 26.8716 85.1556 26.2255 85.5592 25.4586C85.9721 24.6917 86.2087 23.8504 86.4592 23.0324C86.7051 22.2143 86.9974 21.4149 87.3825 20.6852C88.1387 19.2211 89.2057 17.9986 90.4584 17.2224C91.711 16.4462 93.1074 16.1302 94.3554 16.2092C95.6081 16.2882 96.6937 16.7902 97.4221 17.4688C98.1551 18.1427 98.5865 18.9143 98.7953 19.579C99.0087 20.2436 99.018 20.7967 98.9855 21.1593C98.953 21.5218 98.8881 21.7077 98.8881 21.7077C98.8742 21.7077 98.9206 21.5172 98.9345 21.1593C98.953 20.8014 98.9252 20.2576 98.7025 19.6115C98.4845 18.9654 98.053 18.2217 97.3293 17.5757C96.6148 16.925 95.5617 16.4555 94.3461 16.3858C93.1353 16.3161 91.7806 16.6368 90.5697 17.3991C89.3588 18.1613 88.3196 19.3605 87.5866 20.7967C87.2108 21.5125 86.9278 22.2934 86.6866 23.1114C86.436 23.9248 86.2041 24.78 85.7726 25.5795C85.5592 25.9792 85.2855 26.3603 84.9421 26.6764C84.6035 26.9971 84.1859 27.2388 83.7452 27.4061C82.8591 27.7361 81.908 27.7873 80.9801 27.8942C80.0523 27.9918 79.1383 28.1591 78.3728 28.6332C77.6027 29.084 76.9764 29.7487 76.5356 30.497C76.0949 31.2453 75.849 32.0866 75.8119 32.9233C75.784 33.7599 76.016 34.5593 76.2758 35.3309C76.531 36.1025 76.7769 36.888 76.7583 37.6921C76.7444 38.4869 76.5031 39.2352 76.183 39.8952C75.5382 41.2245 74.6103 42.2378 73.8865 43.2278C73.1535 44.2085 72.5922 45.1892 72.388 46.1421C72.1839 47.0903 72.337 47.9548 72.6107 48.573C72.8844 49.2004 73.2788 49.5862 73.5757 49.7814C73.8726 49.9813 74.0628 50.0278 74.0582 50.0464L74.0721 50.0371Z" fill="#455A64"/>
<path d="M97.9139 14.1966C97.9139 14.1966 98.0345 14.2105 98.234 14.2942C98.4335 14.3779 98.7072 14.5266 99.0088 14.7637C99.6119 15.2285 100.322 16.1302 100.503 17.32C100.679 18.5146 100.261 19.5836 99.8207 20.2018C99.598 20.5178 99.3799 20.7409 99.2176 20.8804C99.0505 21.0152 98.9485 21.0756 98.9392 21.0663C98.9067 21.0338 99.2871 20.7456 99.6769 20.1088C100.067 19.4906 100.428 18.4727 100.261 17.3526C100.094 16.2371 99.4495 15.3679 98.8974 14.8892C98.3407 14.3965 97.8953 14.2338 97.9139 14.192V14.1966Z" fill="#455A64"/>
<path d="M116.091 70.609C116.063 70.5997 116.235 70.3115 116.327 69.7398C116.425 69.1728 116.378 68.3036 115.924 67.374C115.483 66.4397 114.56 65.552 113.335 64.9571C112.723 64.6549 112.041 64.4179 111.322 64.2366C110.598 64.0507 109.832 63.8927 109.062 63.6463C108.297 63.4 107.55 63.0653 106.988 62.5122C106.408 61.9777 106.13 61.2201 106.009 60.5368C105.884 59.8443 105.842 59.1889 105.689 58.6033C105.541 58.0176 105.267 57.5203 104.942 57.1252C104.288 56.3258 103.5 55.9493 102.957 55.7727C102.4 55.6053 102.075 55.6053 102.075 55.5821C102.075 55.5728 102.159 55.5728 102.312 55.5775C102.465 55.5821 102.692 55.6146 102.98 55.6844C103.541 55.8377 104.372 56.2003 105.068 57.0183C105.411 57.4227 105.713 57.9479 105.875 58.5568C106.042 59.1657 106.093 59.8257 106.223 60.4997C106.348 61.1643 106.603 61.8476 107.146 62.3449C107.666 62.8562 108.38 63.1815 109.127 63.4186C109.879 63.6603 110.64 63.8183 111.373 64.0089C112.106 64.1994 112.802 64.4458 113.428 64.7572C114.685 65.3754 115.636 66.3189 116.072 67.2996C116.522 68.2757 116.541 69.1821 116.411 69.7584C116.351 70.0512 116.267 70.265 116.202 70.4045C116.133 70.5439 116.091 70.6136 116.086 70.609H116.091Z" fill="#455A64"/>
<path d="M80.4048 56.0515C76.2479 54.936 72.6571 50.8598 71.2003 46.8021C69.7436 42.7491 69.7436 38.3149 70.1147 34.0202C70.3838 30.9061 70.9312 27.6199 72.9911 25.2774C76.0995 21.7449 79.463 19.9415 84.1627 20.0902" fill="#1B3620"/>
<path d="M104.669 65.1151L100.795 64.139C101.704 63.4139 101.959 62.489 101.565 61.4339C101.101 60.1975 99.9134 59.3841 98.6051 59.2354L80.9384 57.2368C80.3074 57.1671 79.6904 57.5157 79.4584 58.1106C78.6744 60.1046 78.6465 61.7453 79.3796 63.0374H79.2961L75.8954 63.716L70.1379 114.723L107.94 112.952L104.678 65.1151H104.669Z" fill="white"/>
<path d="M99.1108 64.3342C99.1108 64.3342 98.8603 64.3993 98.401 64.469C97.9417 64.5433 97.2736 64.627 96.4478 64.706C94.7916 64.8687 92.4905 64.971 89.9574 64.8455C87.4196 64.7153 85.1417 64.3853 83.5086 64.06C82.6921 63.8973 82.038 63.7485 81.5879 63.6277C81.1379 63.5115 80.892 63.4371 80.8967 63.4232C80.8967 63.4092 81.1565 63.4464 81.6111 63.5394C82.0658 63.6323 82.7246 63.7532 83.5411 63.8926C85.1742 64.1715 87.4428 64.4783 89.9713 64.6038C92.4951 64.7293 94.7869 64.6503 96.4386 64.5341C97.2644 64.4783 97.9324 64.4179 98.3964 64.3714C98.8603 64.3295 99.1155 64.3109 99.1155 64.3295L99.1108 64.3342Z" fill="#1B3620"/>
<path d="M82.024 72.4403C81.9683 72.4031 82.5622 71.4177 83.3462 70.2372C84.1349 69.0566 84.8169 68.1316 84.8726 68.1688C84.9282 68.206 84.3344 69.1914 83.5504 70.3719C82.7663 71.5525 82.0797 72.4775 82.024 72.4403Z" fill="#8F8F8F"/>
<path d="M94.207 73.3048C94.1559 73.3466 93.4044 72.496 92.5275 71.4038C91.6507 70.3115 90.9872 69.3958 91.0383 69.354C91.0893 69.3122 91.8409 70.1628 92.7177 71.255C93.5946 72.3473 94.258 73.263 94.207 73.3048Z" fill="#8F8F8F"/>
<path d="M88.547 79.7887C88.482 79.8026 88.2269 78.6639 87.9764 77.2509C87.7258 75.8379 87.5774 74.6852 87.6423 74.6713C87.7073 74.6573 87.9624 75.7961 88.213 77.2091C88.4635 78.622 88.6119 79.7747 88.547 79.7887Z" fill="#8F8F8F"/>
<path d="M97.849 80.1884C97.8954 80.2349 96.935 81.2621 95.7009 82.4752C94.4669 83.693 93.4323 84.6365 93.3859 84.59C93.3395 84.5436 94.2998 83.5164 95.5339 82.3032C96.7634 81.0855 97.8026 80.1419 97.849 80.1884Z" fill="#8F8F8F"/>
<path d="M85.3736 88.8801C85.3458 88.9312 84.1906 88.2294 83.0632 87.0256C81.9266 85.8264 81.2956 84.6365 81.3513 84.6086C81.4116 84.5668 82.1261 85.6823 83.2395 86.8582C84.3483 88.0388 85.4154 88.8197 85.3736 88.8801Z" fill="#8F8F8F"/>
<path d="M89.382 95.5918C89.4006 95.6615 88.3243 96.0054 87.0995 96.6561C85.87 97.3022 84.9793 97.9994 84.9329 97.9436C84.8911 97.9018 85.7309 97.1024 86.9835 96.4423C88.2361 95.7777 89.3681 95.5313 89.3774 95.5918H89.382Z" fill="#8F8F8F"/>
<path d="M95.9004 96.0287C95.8772 96.0473 95.5896 95.7498 95.1628 95.2339C94.7359 94.718 94.1653 93.9882 93.5715 93.1562C92.9776 92.3243 92.4766 91.548 92.1286 90.9763C91.7807 90.4046 91.5904 90.0375 91.6183 90.0189C91.6461 90.0003 91.892 90.3349 92.2724 90.8834C92.7085 91.5062 93.2142 92.222 93.7709 93.0168C94.3416 93.8023 94.8566 94.5134 95.3019 95.127C95.6963 95.6661 95.9329 96.0054 95.9051 96.0287H95.9004Z" fill="#8F8F8F"/>
<path d="M96.5545 101.75C96.5684 101.815 95.3251 102.145 93.7616 102.401C92.1981 102.661 90.9177 102.75 90.9084 102.685C90.8991 102.615 92.1656 102.424 93.7198 102.164C95.274 101.908 96.5359 101.685 96.5498 101.75H96.5545Z" fill="#8F8F8F"/>
<path d="M86 63.6138C85.9675 63.5859 86.1902 63.3349 86.3804 62.8422C86.5753 62.3542 86.6959 61.6198 86.5799 60.825C86.4639 60.0256 86.1856 59.3377 85.9814 58.845C85.7727 58.3523 85.6381 58.0455 85.6706 58.0269C85.6984 58.013 85.8886 58.2919 86.1392 58.7706C86.3851 59.254 86.7005 59.9512 86.8212 60.7925C86.9418 61.6337 86.784 62.4146 86.5382 62.9119C86.2923 63.4139 86.0185 63.637 86 63.6184V63.6138Z" fill="#8F8F8F"/>
<path d="M93.0611 59.7978C93.1121 59.7653 93.5482 60.4021 93.757 61.3224C93.975 62.238 93.8683 63.0049 93.808 62.9956C93.7384 62.9956 93.7291 62.252 93.5204 61.3781C93.3209 60.4997 92.9961 59.835 93.0611 59.8025V59.7978Z" fill="#8F8F8F"/>
<path d="M124.91 96.1356L142.498 65.1941L144.618 59.8257C144.618 59.8257 150.097 48.0152 150.483 46.8161C150.923 45.4263 151.698 45.3055 152.199 45.5053C152.979 45.8121 153.229 46.9788 152.886 48.1779C152.765 48.5916 150.636 55.0802 150.636 55.0802C150.636 55.0802 151.104 54.6386 152.454 53.7276C153.804 52.8166 156.282 52.8445 158.569 53.6625C160.856 54.4806 161.427 54.9128 161.153 55.8145C161.042 56.1771 160.745 56.4048 160.42 56.5443C159.887 56.772 159.274 56.7674 158.727 56.5814C155.043 55.3218 153.41 56.9858 153.41 56.9858L153.132 57.6877C153.132 57.6877 155.901 56.7999 157.474 58.0549C157.729 58.2594 157.915 58.4871 158.049 58.7288C159.028 59.0542 159.826 59.9047 160.068 60.9134C160.318 61.9638 159.965 63.1351 159.177 63.8695C158.801 64.2181 158.23 64.4737 157.78 64.2227C157.544 64.0879 157.395 63.8462 157.251 63.6138C157.177 63.493 157.094 63.3675 157.001 63.2652L155.948 65.1244C155.948 65.1244 153.364 69.1728 152.436 71.0599L140.332 103.373C138.652 107.853 133.637 110.084 129.193 108.323C124.363 106.408 122.34 100.653 124.91 96.131V96.1356Z" fill="#F6F6F6"/>
<path d="M143.704 65.0919C144.326 65.4962 145.184 65.222 145.741 64.734C146.303 64.2506 146.678 63.5859 147.203 63.0654C148.771 61.499 151.392 61.3503 152.881 59.7095C153.09 59.4818 153.275 59.1332 153.095 58.8822C152.928 58.6498 152.58 58.6777 152.301 58.7335C149.903 59.2076 147.504 59.6863 145.106 60.1604" fill="#F6F6F6"/>
<path d="M145.105 60.1604C145.101 60.1325 145.37 60.0488 145.866 59.928C146.363 59.8025 147.082 59.6398 147.977 59.44C148.905 59.2401 149.963 59.017 151.113 58.7706C151.41 58.7102 151.712 58.6451 152.023 58.5847C152.315 58.5475 152.682 58.3663 153.122 58.6219C153.336 58.7567 153.419 59.0635 153.359 59.2773C153.308 59.4957 153.201 59.6584 153.076 59.8071C152.83 60.0767 152.566 60.3184 152.264 60.5229C151.067 61.3549 149.754 61.6942 148.706 62.2427C148.177 62.5076 147.708 62.8144 147.342 63.1769C146.971 63.5348 146.678 63.9438 146.372 64.2924C145.787 65.0268 145.003 65.3893 144.465 65.3661C143.913 65.3568 143.686 65.0965 143.704 65.0919C143.723 65.0547 143.964 65.2453 144.456 65.2034C144.948 65.1662 145.607 64.8269 146.145 64.1019C146.428 63.7533 146.706 63.3303 147.096 62.9306C147.485 62.5262 147.982 62.1869 148.529 61.9034C149.61 61.3177 150.919 60.9552 152.023 60.1836C152.297 59.9977 152.542 59.7653 152.756 59.5376C152.955 59.3098 153.03 59.0309 152.881 58.9566C152.737 58.8497 152.403 58.9147 152.097 58.9798C151.786 59.0402 151.485 59.096 151.188 59.1518C150.028 59.3656 148.965 59.5608 148.033 59.7328C147.133 59.8908 146.405 60.0117 145.899 60.0907C145.393 60.165 145.11 60.1929 145.105 60.165V60.1604Z" fill="#B5B5B5"/>
<path d="M153.03 57.7016C153.076 57.7295 153.173 57.1253 153.855 56.5861C154.189 56.3212 154.681 56.1399 155.247 56.1306C155.813 56.112 156.435 56.2468 157.08 56.442C157.725 56.6326 158.36 56.8231 158.963 56.8696C159.567 56.9161 160.123 56.8371 160.545 56.6233C160.977 56.4141 161.181 56.033 161.218 55.7773C161.26 55.5217 161.218 55.3823 161.209 55.3823C161.181 55.3823 161.186 55.5217 161.116 55.7541C161.046 55.9818 160.852 56.284 160.462 56.4513C160.077 56.6186 159.553 56.6744 158.987 56.6186C158.416 56.5628 157.808 56.3723 157.154 56.1771C156.505 55.9819 155.846 55.8471 155.233 55.8796C154.626 55.9028 154.078 56.1306 153.735 56.4373C153.382 56.7395 153.197 57.0788 153.108 57.3158C153.02 57.5575 153.016 57.6969 153.03 57.7016Z" fill="#B5B5B5"/>
<path d="M153.006 47.7178C152.969 47.7085 152.816 48.2058 152.575 49.0053C152.301 49.893 151.976 50.9574 151.615 52.1287C151.234 53.2953 150.896 54.3504 150.608 55.2382C150.348 56.033 150.186 56.5257 150.223 56.5396C150.255 56.5536 150.478 56.0841 150.789 55.3033C151.1 54.5224 151.489 53.4301 151.874 52.2124C152.259 50.9946 152.566 49.8744 152.761 49.061C152.955 48.243 153.044 47.7317 153.006 47.7224V47.7178Z" fill="#B5B5B5"/>
<path d="M154.022 59.6398C154.022 59.6398 154.18 59.6398 154.445 59.6119C154.7 59.5933 155.131 59.5701 155.456 59.8862C155.614 60.0349 155.674 60.2719 155.618 60.5322C155.572 60.7925 155.428 61.0575 155.289 61.3549C155.15 61.6431 155.006 62.0196 155.117 62.424C155.233 62.8097 155.553 63.1211 155.943 63.2559C156.342 63.3954 156.769 63.3164 157.098 63.1397C157.432 62.9585 157.701 62.7028 157.868 62.3914C158.165 61.7872 158.291 61.2108 158.374 60.7182C158.448 60.2255 158.444 59.8164 158.388 59.5422C158.328 59.2633 158.235 59.1332 158.226 59.1425C158.203 59.1518 158.258 59.2912 158.286 59.5562C158.309 59.8211 158.286 60.2115 158.189 60.6856C158.087 61.1504 157.933 61.7221 157.65 62.2706C157.372 62.7726 156.676 63.2141 156.031 63.0003C155.716 62.8934 155.461 62.6378 155.373 62.3496C155.284 62.0568 155.386 61.7453 155.516 61.4618C155.642 61.1736 155.795 60.8855 155.841 60.5741C155.901 60.2719 155.804 59.928 155.591 59.7514C155.164 59.3888 154.686 59.4678 154.431 59.5143C154.157 59.5701 154.018 59.6259 154.022 59.6445V59.6398Z" fill="#B5B5B5"/>
<path d="M157.057 62.9074C157.057 62.9074 156.964 63.0282 156.973 63.2838C156.982 63.5302 157.112 63.9299 157.511 64.1948C157.901 64.4551 158.527 64.5016 159.075 64.2134C159.622 63.9253 160.044 63.3629 160.258 62.7075C160.471 62.0475 160.448 61.3596 160.258 60.7925C160.072 60.2208 159.729 59.7839 159.399 59.4911C159.065 59.1936 158.736 59.0356 158.504 58.9519C158.272 58.8683 158.133 58.8543 158.128 58.8729C158.105 58.9194 158.657 59.0403 159.265 59.6352C159.562 59.928 159.863 60.3463 160.016 60.8716C160.179 61.3921 160.188 62.0242 159.998 62.6285C159.808 63.2281 159.423 63.7393 158.954 63.9996C158.49 64.2599 157.952 64.2413 157.609 64.0415C157.261 63.8416 157.112 63.5023 157.075 63.2838C157.033 63.0561 157.075 62.9213 157.052 62.9167L157.057 62.9074Z" fill="#B5B5B5"/>
<path d="M151.202 65.817C151.202 65.817 150.993 65.6729 150.58 65.6264C150.172 65.5799 149.555 65.6403 148.965 66.0122L149.165 66.147C149.225 65.8634 149.272 65.5567 149.3 65.236C149.457 63.4418 148.887 62.0567 148.831 62.0939C148.752 62.1125 149.188 63.4883 149.03 65.2127C149.003 65.5241 148.961 65.8216 148.914 66.0958L148.859 66.398L149.114 66.2306C149.634 65.882 150.195 65.7937 150.575 65.7891C150.965 65.7891 151.197 65.8495 151.206 65.817H151.202Z" fill="#B5B5B5"/>
<path d="M154.862 54.792C154.793 54.8013 154.895 55.3497 155.386 55.7774C155.874 56.2096 156.43 56.2375 156.43 56.1678C156.444 56.0888 155.99 55.954 155.563 55.5775C155.131 55.2103 154.936 54.7688 154.862 54.7966V54.792Z" fill="#B5B5B5"/>
<path d="M99.9552 121.811L118.346 121.992L115.251 108.62L116.286 111.144C118.239 115.908 122.869 119.022 128.014 119.022C133.832 119.022 137.85 114.686 140.313 109.406C146.066 97.0606 151.61 77.1812 151.61 77.1812L140.392 67.3089C132.278 82.6891 124.646 96.052 124.646 96.052C124.646 96.052 122.442 89.3449 120.744 83.3584C119.042 77.3764 119.055 74.2298 116.439 71.2411C112.421 66.6536 106.692 65.5102 101.37 64.139L101.171 88.9778L99.9552 121.811Z" fill="#00A74C"/>
<path d="M78.9203 103.312L112.417 109.847L114.05 122.741H62.6918C56.7348 122.82 51.998 117.753 52.4666 111.804C53.2042 102.406 54.0069 90.8323 54.6192 85.938C55.0925 82.122 56.6142 78.1759 58.4143 74.7782C61.0077 69.8885 69.6462 63.6045 77.2222 63.2977L78.6558 95.2618" fill="#00A74C"/>
<g opacity="0.4">
<path d="M99.9552 121.811L118.346 121.992L115.251 108.62L116.286 111.144C118.239 115.908 122.869 119.022 128.014 119.022C133.832 119.022 137.85 114.686 140.313 109.406C146.066 97.0606 151.61 77.1812 151.61 77.1812L140.392 67.3089C132.278 82.6891 124.646 96.052 124.646 96.052C124.646 96.052 122.442 89.3449 120.744 83.3584C119.042 77.3764 119.055 74.2298 116.439 71.2411C112.421 66.6536 106.692 65.5102 101.37 64.139L101.171 88.9778L99.9552 121.811Z" fill="black"/>
<path d="M78.9203 103.312L109.132 108.866C110.389 109.099 111.387 110.07 111.651 111.325L114.05 122.745H62.6918C56.7348 122.824 51.998 117.758 52.4666 111.809C53.2042 102.41 54.0069 90.837 54.6192 85.9427C55.0925 82.1267 56.6142 78.1806 58.4143 74.783C61.0077 69.8933 69.6462 63.6093 77.2222 63.3025L78.6558 95.2665" fill="black"/>
</g>
<path d="M72.5411 102.378C72.5411 102.378 72.5272 102.271 72.5272 102.071C72.5272 101.843 72.5272 101.555 72.5272 101.193C72.5272 100.398 72.5365 99.3009 72.5457 97.9576C72.5457 95.2293 72.4993 91.4598 72.2859 87.2998C72.1839 85.2222 72.0447 83.2422 71.9009 81.4434C71.7663 79.6447 71.6086 78.0272 71.2282 76.7211C70.8616 75.415 70.2724 74.4575 69.7528 73.9184C69.2332 73.3699 68.8482 73.17 68.8714 73.1422C68.8714 73.1422 69.2703 73.3141 69.8224 73.8533C70.3745 74.3878 71.0055 75.3546 71.3952 76.6746C71.8034 77.9946 71.9797 79.6307 72.1282 81.4248C72.2859 83.2236 72.4251 85.2083 72.5318 87.2906C72.7452 91.4551 72.7684 95.2293 72.722 97.9623C72.6988 99.3288 72.6617 100.435 72.6246 101.197C72.606 101.56 72.5875 101.848 72.5782 102.076C72.5643 102.276 72.555 102.382 72.5457 102.382L72.5411 102.378Z" fill="#1B3620"/>
<path d="M111.767 110.758C111.739 110.786 111.433 110.279 110.547 109.768C110.106 109.517 109.531 109.28 108.835 109.085C108.139 108.885 107.332 108.732 106.436 108.55C102.859 107.821 97.9138 106.803 92.4394 105.775C86.9603 104.748 81.9823 103.921 78.3775 103.345C76.5913 103.056 75.1392 102.824 74.1046 102.657C73.6175 102.573 73.2324 102.508 72.9448 102.461C72.6803 102.415 72.5411 102.387 72.5411 102.378C72.5411 102.369 72.685 102.378 72.9494 102.415C73.237 102.452 73.6267 102.503 74.1139 102.564C75.1253 102.699 76.5913 102.903 78.396 103.173C82.0101 103.707 86.9928 104.507 92.4765 105.538C97.9556 106.566 102.897 107.607 106.464 108.383C107.355 108.578 108.167 108.746 108.867 108.955C109.568 109.164 110.148 109.419 110.589 109.689C111.029 109.954 111.326 110.233 111.507 110.433C111.605 110.53 111.66 110.619 111.702 110.67C111.744 110.726 111.762 110.753 111.758 110.758H111.767Z" fill="#1B3620"/>
<path d="M72.6432 102.378C72.6524 102.42 72.0261 102.568 71.0704 102.954C70.5926 103.145 70.0405 103.414 69.4513 103.754C68.8667 104.102 68.2497 104.525 67.6466 105.027C67.0481 105.538 66.5285 106.073 66.0831 106.594C65.647 107.119 65.2851 107.616 65.016 108.053C64.4686 108.927 64.2181 109.522 64.1763 109.503C64.1624 109.499 64.2134 109.345 64.3201 109.071C64.4222 108.797 64.6078 108.416 64.8676 107.96C65.1228 107.505 65.4753 106.984 65.9068 106.445C66.3475 105.91 66.8764 105.357 67.4842 104.837C68.1012 104.325 68.7368 103.898 69.3353 103.554C69.9431 103.219 70.5091 102.959 71.0055 102.787C71.4972 102.61 71.9055 102.494 72.1931 102.438C72.4808 102.378 72.6385 102.355 72.6432 102.369V102.378Z" fill="#1B3620"/>
<path d="M115.896 110.409C115.896 110.409 115.864 110.303 115.826 110.089C115.789 109.852 115.738 109.545 115.673 109.164C115.543 108.36 115.376 107.198 115.182 105.757C114.792 102.88 114.319 98.8918 113.92 94.4763C113.525 90.0607 113.279 86.0495 113.154 83.1492C113.089 81.699 113.047 80.5231 113.034 79.7097C113.029 79.3239 113.024 79.0125 113.02 78.7754C113.02 78.5616 113.02 78.4501 113.029 78.4501C113.038 78.4501 113.052 78.5616 113.066 78.7754C113.08 79.0125 113.103 79.3239 113.126 79.7097C113.173 80.5463 113.242 81.7129 113.326 83.1445C113.498 86.0448 113.767 90.0467 114.161 94.4577C114.56 98.8686 115.005 102.857 115.353 105.738C115.525 107.161 115.669 108.318 115.771 109.15C115.817 109.536 115.85 109.842 115.878 110.079C115.901 110.293 115.905 110.405 115.901 110.405L115.896 110.409Z" fill="#1B3620"/>
<path d="M127.003 105.413C127.003 105.413 126.896 105.315 126.734 105.106C126.571 104.902 126.358 104.586 126.117 104.186C125.634 103.382 125.091 102.187 124.762 100.788C124.437 99.3846 124.395 98.0738 124.47 97.1396C124.507 96.6701 124.558 96.2937 124.613 96.038C124.664 95.7824 124.702 95.6429 124.72 95.6429C124.762 95.6476 124.669 96.2193 124.641 97.1442C124.609 98.0692 124.678 99.352 124.994 100.728C125.319 102.104 125.824 103.284 126.265 104.098C126.701 104.916 127.035 105.385 127.003 105.408V105.413Z" fill="#1B3620"/>
<path d="M72.4065 85.1106C72.4065 85.1106 72.3462 85.1292 72.2349 85.1478C72.1189 85.1571 71.9519 85.1943 71.7292 85.1943C71.2884 85.2222 70.6482 85.1943 69.8688 85.0502C69.0894 84.9061 68.1893 84.6226 67.229 84.2229C66.2686 83.8231 65.248 83.3119 64.1763 82.7773C63.1092 82.2475 62.0654 81.7966 61.0865 81.4806C60.1076 81.1691 59.1936 80.9879 58.4188 80.96C56.86 80.881 55.9414 81.3039 55.9321 81.2435C55.9321 81.2342 55.9832 81.211 56.0899 81.1691C56.2012 81.132 56.3543 81.0576 56.5724 81.0065C56.9945 80.881 57.6348 80.7787 58.4281 80.7927C59.2214 80.802 60.1586 80.9693 61.1561 81.2714C62.1535 81.5782 63.2113 82.029 64.283 82.5635C65.3547 83.0981 66.3661 83.614 67.3125 84.0183C68.2589 84.4227 69.1404 84.7248 69.8966 84.8829C71.4183 85.2222 72.4019 85.0548 72.4019 85.1106H72.4065Z" fill="#FFFBFF"/>
<path d="M78.1409 83.9765C78.1502 84.0416 76.93 84.3065 75.4129 84.5668C73.8959 84.8271 72.6525 84.9805 72.6432 84.9154C72.634 84.8504 73.8541 84.5854 75.3712 84.3251C76.8883 84.0648 78.1316 83.9115 78.1409 83.9765Z" fill="#FFFBFF"/>
<path d="M72.1979 93.9557C72.1979 93.9557 71.9612 94.0766 71.5251 94.2485C71.0844 94.4205 70.4395 94.6529 69.6369 94.9132C68.0317 95.4384 65.7677 96.0519 63.2253 96.5028C61.9541 96.7259 60.734 96.8886 59.6205 97.0001C58.5117 97.1163 57.4911 97.1767 56.6421 97.0791C55.793 96.9955 55.125 96.7584 54.7074 96.526C54.4987 96.4098 54.3456 96.3076 54.2481 96.2286C54.1507 96.1495 54.1043 96.1077 54.109 96.0984C54.1229 96.0798 54.3316 96.2425 54.7538 96.4424C55.176 96.6422 55.8255 96.8514 56.6606 96.9072C57.4957 96.9769 58.4932 96.9072 59.5973 96.7724C60.7061 96.6515 61.917 96.4796 63.1836 96.2611C65.7167 95.8149 67.9714 95.2292 69.5859 94.7459C70.3931 94.5088 71.0427 94.2997 71.4927 94.1556C71.9427 94.0115 72.1932 93.9371 72.1979 93.9511V93.9557Z" fill="#FFFBFF"/>
<path d="M78.0109 96.4005C78.0109 96.4656 76.8789 96.54 75.4824 96.5632C74.086 96.5865 72.954 96.5493 72.954 96.4842C72.954 96.4191 74.086 96.3448 75.4824 96.3215C76.8789 96.2983 78.0109 96.3355 78.0109 96.4005Z" fill="#FFFBFF"/>
<path d="M54.1367 117.577C54.1367 117.577 54.146 117.488 54.1878 117.33C54.2388 117.144 54.2991 116.912 54.3733 116.633C54.4151 116.48 54.4615 116.312 54.5125 116.131C54.5728 115.95 54.647 115.759 54.7259 115.55C54.8883 115.137 55.0414 114.648 55.3012 114.151C55.4218 113.895 55.5471 113.631 55.677 113.356C55.8115 113.082 55.9832 112.813 56.1456 112.524C56.4564 111.939 56.8693 111.367 57.2869 110.749C58.1683 109.554 59.2539 108.323 60.539 107.188C61.8427 106.068 63.2113 105.167 64.5103 104.455C65.1784 104.125 65.8001 103.795 66.4218 103.568C66.728 103.447 67.0202 103.317 67.3125 103.219C67.6048 103.126 67.8832 103.038 68.1522 102.954C68.6811 102.768 69.1822 102.68 69.6183 102.578C69.8363 102.531 70.0358 102.48 70.226 102.448C70.4116 102.424 70.5833 102.401 70.741 102.378C71.0287 102.341 71.2653 102.313 71.4555 102.29C71.6179 102.271 71.706 102.266 71.706 102.276C71.706 102.285 71.6225 102.303 71.4601 102.341C71.2699 102.378 71.0379 102.42 70.7549 102.475C70.5972 102.503 70.4302 102.531 70.2446 102.564C70.059 102.601 69.8595 102.661 69.6461 102.712C69.2193 102.829 68.7229 102.926 68.2033 103.122C67.9388 103.21 67.6651 103.303 67.3775 103.4C67.0898 103.498 66.8068 103.637 66.5006 103.758C65.8882 103.991 65.2758 104.325 64.6171 104.655C63.3319 105.371 61.9865 106.268 60.6968 107.374C59.4256 108.499 58.3493 109.712 57.4631 110.888C57.0456 111.492 56.6327 112.055 56.3172 112.631C56.1548 112.915 55.9785 113.18 55.844 113.449C55.7095 113.719 55.5796 113.984 55.4543 114.23C55.1899 114.723 55.0228 115.197 54.8512 115.606C54.7677 115.81 54.6842 116.001 54.6192 116.178C54.5635 116.354 54.5079 116.522 54.4615 116.67C54.3687 116.945 54.2945 117.172 54.2341 117.354C54.1785 117.507 54.146 117.591 54.1367 117.586V117.577Z" fill="#FFFBFF"/>
<path d="M77.4032 103.298C77.4542 103.34 76.3872 103.995 75.4964 105.696C75.0557 106.538 74.6706 107.616 74.4294 108.852C74.1835 110.089 74.0861 111.479 73.9886 112.938C73.8912 114.397 73.7845 115.801 73.5154 117.051C73.251 118.302 72.8334 119.389 72.3509 120.235C71.8684 121.077 71.3395 121.672 70.9359 122.029C70.7318 122.206 70.5694 122.336 70.4488 122.415C70.3328 122.494 70.2679 122.536 70.2632 122.527C70.2122 122.485 71.2932 121.848 72.2025 120.156C72.6525 119.32 73.0468 118.246 73.2974 117.01C73.5525 115.773 73.6546 114.384 73.7474 112.924C73.8448 111.465 73.9469 110.061 74.2113 108.811C74.4711 107.56 74.8747 106.468 75.3433 105.617C75.8165 104.772 76.3361 104.167 76.7351 103.805C76.9346 103.623 77.097 103.493 77.2176 103.414C77.3336 103.331 77.3939 103.293 77.4032 103.298Z" fill="#FFFBFF"/>
<path d="M85.3226 122.82C85.2577 122.82 85.3319 118.813 85.4943 113.877C85.6567 108.936 85.8422 104.939 85.9072 104.939C85.9721 104.939 85.8979 108.945 85.7355 113.886C85.5731 118.822 85.3876 122.824 85.3226 122.824V122.82Z" fill="#FFFBFF"/>
<path d="M97.9138 122.127C97.9138 122.127 97.8257 121.927 97.7097 121.546C97.6494 121.355 97.5798 121.123 97.5195 120.849C97.4592 120.575 97.3756 120.263 97.3246 119.91C97.1947 119.213 97.1066 118.367 97.0787 117.428C97.0648 116.489 97.1158 115.453 97.2736 114.379C97.4452 113.305 97.705 112.301 98.002 111.409C98.3128 110.521 98.6468 109.74 98.9809 109.113C99.134 108.792 99.3056 108.522 99.4494 108.276C99.5886 108.03 99.7232 107.83 99.8391 107.667C100.066 107.342 100.196 107.165 100.21 107.175C100.252 107.202 99.751 107.923 99.1386 109.187C98.8278 109.819 98.5123 110.595 98.22 111.474C97.9417 112.357 97.6865 113.352 97.5195 114.407C97.3617 115.467 97.3061 116.489 97.3107 117.414C97.3293 118.344 97.3942 119.176 97.5055 119.873C97.7097 121.263 97.9741 122.104 97.9277 122.113L97.9138 122.127Z" fill="#FFFBFF"/>
<path d="M76.531 70.7577C76.5124 70.7996 75.798 70.4742 74.5917 70.0838C73.3901 69.6933 71.6875 69.275 69.7668 69.1031C67.8461 68.9357 66.0971 69.0473 64.8444 69.2239C63.5918 69.3959 62.8309 69.5864 62.817 69.5446C62.817 69.5307 62.998 69.4702 63.3413 69.3726C63.6846 69.275 64.1856 69.1635 64.8166 69.0519C66.0692 68.8335 67.8415 68.6894 69.7853 68.8614C71.7292 69.038 73.4458 69.4888 74.6428 69.9211C75.2412 70.1395 75.7191 70.3348 76.0392 70.4928C76.3593 70.6462 76.5356 70.7391 76.5264 70.7531L76.531 70.7577Z" fill="#FFFBFF"/>
<path d="M113.182 90.2977C113.182 90.3303 112.523 90.3117 111.461 90.2699C110.398 90.228 108.932 90.1722 107.313 90.1304C105.694 90.0886 104.228 90.0746 103.166 90.0607C102.103 90.0467 101.444 90.0375 101.444 90.0003C101.444 89.9817 101.607 89.9631 101.904 89.9445C102.201 89.9212 102.632 89.9027 103.161 89.8887C104.223 89.8562 105.694 89.8469 107.318 89.8887C108.942 89.9305 110.408 90.0142 111.465 90.0979C111.994 90.1397 112.426 90.1815 112.718 90.2187C113.015 90.2559 113.177 90.2791 113.177 90.2977H113.182Z" fill="#FFFBFF"/>
<path d="M122.34 88.5641C122.354 88.6059 121.76 88.8058 120.856 89.252C119.951 89.6982 118.754 90.4233 117.608 91.4458C116.462 92.473 115.604 93.5792 115.061 94.4298C114.513 95.2804 114.249 95.8474 114.207 95.8288C114.193 95.8242 114.249 95.6755 114.36 95.4105C114.467 95.1456 114.657 94.7784 114.917 94.3368C115.432 93.4537 116.286 92.3057 117.45 91.2645C118.619 90.2234 119.853 89.5076 120.786 89.0986C121.255 88.8941 121.64 88.7453 121.913 88.671C122.187 88.5873 122.34 88.5501 122.345 88.5687L122.34 88.5641Z" fill="#FFFBFF"/>
<path d="M117.821 73.6627C117.821 73.7231 116.875 73.514 115.465 73.9927C114.759 74.2158 113.961 74.6016 113.085 75.0524C112.208 75.4987 111.243 76.0239 110.143 76.3771C107.944 77.0975 105.796 77.0371 104.33 76.7583C103.592 76.6188 103.008 76.4375 102.614 76.2935C102.224 76.1447 102.01 76.0425 102.02 76.0285C102.034 75.982 102.892 76.3539 104.358 76.5863C105.815 76.8187 107.916 76.8512 110.069 76.1447C111.145 75.8008 112.101 75.2895 112.983 74.8526C113.864 74.411 114.685 74.0392 115.409 73.83C116.133 73.6116 116.75 73.5558 117.172 73.579C117.381 73.579 117.543 73.6116 117.654 73.6255C117.766 73.6441 117.821 73.6581 117.817 73.6627H117.821Z" fill="#FFFBFF"/>
<path d="M115.506 104.818C115.506 104.818 115.321 104.92 114.968 105.069C114.792 105.143 114.574 105.232 114.314 105.315C114.054 105.399 113.762 105.511 113.433 105.594C112.774 105.789 111.971 105.957 111.071 106.087C110.171 106.203 109.169 106.268 108.12 106.245C107.072 106.208 106.074 106.082 105.184 105.91C104.293 105.729 103.5 105.511 102.855 105.278C102.525 105.176 102.242 105.046 101.987 104.948C101.732 104.851 101.519 104.748 101.347 104.665C101.004 104.497 100.818 104.395 100.823 104.381C100.841 104.339 101.607 104.706 102.906 105.12C103.555 105.329 104.339 105.529 105.221 105.696C106.107 105.85 107.086 105.971 108.125 106.008C109.16 106.036 110.148 105.975 111.043 105.873C111.934 105.757 112.732 105.608 113.391 105.436C114.708 105.102 115.497 104.781 115.511 104.823L115.506 104.818Z" fill="#FFFBFF"/>
<path d="M126.168 118.571C126.168 118.571 126.098 118.525 125.987 118.423C125.88 118.316 125.704 118.172 125.509 117.953C125.105 117.535 124.576 116.875 124.043 115.982C122.957 114.207 122.034 111.386 121.974 108.197C121.918 105.013 122.54 102.178 123.027 100.175C123.277 99.1707 123.5 98.362 123.662 97.8042C123.741 97.5486 123.801 97.3394 123.857 97.1674C123.904 97.0233 123.931 96.949 123.941 96.949C123.95 96.949 123.936 97.0326 123.904 97.1814C123.862 97.358 123.815 97.5718 123.755 97.8321C123.616 98.4317 123.426 99.2358 123.194 100.216C122.748 102.229 122.159 105.046 122.215 108.197C122.275 111.344 123.157 114.128 124.187 115.899C124.697 116.791 125.198 117.46 125.578 117.893C125.954 118.33 126.181 118.557 126.163 118.571H126.168Z" fill="#FFFBFF"/>
<path d="M143.05 102.787C143.013 102.843 142.252 102.001 140.596 101.406C139.775 101.104 138.764 100.853 137.627 100.635C136.49 100.402 135.224 100.193 133.929 99.7796C131.341 98.9523 129.309 97.4696 128.051 96.2379C127.416 95.6197 126.961 95.0666 126.664 94.6715C126.511 94.4763 126.409 94.3136 126.335 94.2067C126.265 94.0998 126.228 94.0394 126.237 94.0347C126.251 94.0254 126.423 94.2346 126.738 94.6111C127.054 94.9829 127.532 95.5128 128.172 96.1124C129.443 97.3022 131.461 98.7338 134.008 99.5472C135.275 99.9516 136.537 100.17 137.673 100.412C138.815 100.644 139.835 100.918 140.661 101.244C141.487 101.569 142.104 101.955 142.489 102.266C142.693 102.41 142.823 102.554 142.92 102.643C143.013 102.731 143.06 102.782 143.055 102.791L143.05 102.787Z" fill="#FFFBFF"/>
<path d="M148.358 87.2766C148.358 87.2766 148.167 87.1325 147.861 86.8443C147.708 86.7002 147.523 86.5236 147.291 86.3284C147.063 86.1332 146.813 85.9008 146.511 85.673C145.927 85.1943 145.198 84.6737 144.359 84.1438C143.51 83.6279 142.545 83.1073 141.496 82.6518C140.438 82.2056 139.399 81.8663 138.439 81.6061C137.474 81.3644 136.597 81.1924 135.85 81.0994C135.479 81.039 135.14 81.0204 134.839 80.9879C134.542 80.9553 134.282 80.9414 134.073 80.9321C133.651 80.9089 133.419 80.8856 133.419 80.8717C133.419 80.8531 133.651 80.8438 134.078 80.8391C134.291 80.8345 134.551 80.8391 134.848 80.8577C135.149 80.8763 135.493 80.8856 135.869 80.9367C136.625 81.0111 137.516 81.1645 138.494 81.3969C139.469 81.6432 140.522 81.9825 141.589 82.438C142.651 82.8982 143.626 83.4327 144.475 83.9626C145.319 84.5064 146.047 85.0502 146.618 85.5475C146.915 85.7846 147.156 86.0263 147.379 86.2354C147.602 86.4399 147.782 86.6259 147.926 86.7839C148.214 87.0953 148.367 87.2719 148.358 87.2812V87.2766Z" fill="#FFFBFF"/>
<path d="M107.763 65.9424C107.777 65.9703 107.443 66.1469 106.882 66.3654C106.32 66.5885 105.527 66.8534 104.632 67.0626C103.732 67.2717 102.906 67.3879 102.303 67.4344C101.7 67.4809 101.328 67.4762 101.324 67.4437C101.319 67.3693 102.799 67.2438 104.576 66.8255C106.353 66.4165 107.735 65.8727 107.763 65.9378V65.9424Z" fill="#FFFBFF"/>
<path d="M124.219 131.409C124.479 132.311 123.727 133.175 122.799 133.05C122.298 132.98 121.885 132.627 121.737 132.139L121.347 130.675L121.403 130.693C121.649 131.572 120.804 132.376 119.9 132.287C119.287 132.274 118.763 131.4 118.591 130.93C117.58 131.051 116.624 130.456 116.235 129.796L113.511 125.539L108.468 121.843L111.516 110.925L122.373 117.962C122.799 118.292 122.864 118.437 123.542 119.064L130.547 125.515C129.754 125.994 129.076 125.957 127.977 125.515C126.877 125.074 122.034 121.802 122.034 121.802L124.214 131.4" fill="#F6F6F6"/>
<path d="M114.936 122.424C114.936 122.424 115.061 122.48 115.26 122.615C115.372 122.694 115.492 122.778 115.618 122.866C115.757 122.959 115.924 123.089 116.068 123.256C116.212 123.424 116.346 123.638 116.434 123.889C116.518 124.13 116.606 124.386 116.699 124.651C116.884 125.195 117.084 125.785 117.292 126.399C117.705 127.64 118.067 128.769 118.318 129.592C118.568 130.414 118.708 130.926 118.675 130.935C118.643 130.944 118.448 130.452 118.155 129.643C117.863 128.834 117.478 127.719 117.061 126.478C116.856 125.859 116.666 125.274 116.485 124.725C116.402 124.46 116.318 124.205 116.239 123.958C116.165 123.731 116.054 123.531 115.929 123.368C115.803 123.201 115.664 123.085 115.53 122.978C115.409 122.875 115.302 122.782 115.196 122.694C115.015 122.536 114.922 122.443 114.931 122.429L114.936 122.424Z" fill="#B5B5B5"/>
<path d="M121.463 130.907C121.463 130.907 121.394 130.749 121.31 130.456C121.213 130.112 121.097 129.694 120.962 129.211C120.67 128.16 120.271 126.705 119.765 125.12C119.255 123.54 118.731 122.118 118.095 121.249C117.784 120.812 117.459 120.519 117.204 120.361C116.949 120.203 116.787 120.156 116.796 120.133C116.796 120.124 116.842 120.133 116.921 120.152C117 120.166 117.112 120.212 117.255 120.282C117.534 120.421 117.896 120.709 118.234 121.151C118.926 122.034 119.482 123.466 119.997 125.051C120.503 126.64 120.879 128.104 121.129 129.169C121.254 129.703 121.347 130.135 121.403 130.433C121.459 130.735 121.482 130.902 121.468 130.907H121.463Z" fill="#B5B5B5"/>
<path d="M124.265 131.567C124.265 131.567 124.182 131.4 124.075 131.079C123.959 130.707 123.815 130.256 123.644 129.722C123.291 128.574 122.818 126.984 122.312 125.227C121.825 123.494 121.38 121.927 121.041 120.719C120.86 120.156 120.568 119.771 120.299 119.585C120.034 119.389 119.844 119.366 119.849 119.343C119.849 119.338 119.9 119.334 119.988 119.352C120.076 119.371 120.206 119.413 120.354 119.506C120.656 119.678 120.999 120.082 121.203 120.663C121.584 121.811 122.034 123.401 122.549 125.162C123.055 126.924 123.5 128.518 123.811 129.68C123.95 130.219 124.071 130.679 124.168 131.056C124.247 131.381 124.284 131.567 124.265 131.572V131.567Z" fill="#B5B5B5"/>
<path d="M197.115 60.0068C197.115 60.9038 197.843 61.6336 198.739 61.6336C199.634 61.6336 200.363 60.9038 200.363 60.0068C200.363 59.1097 199.634 58.38 198.739 58.38C197.843 58.38 197.115 59.1097 197.115 60.0068Z" fill="#455A64"/>
<path d="M192.239 61.6336C193.136 61.6336 193.863 60.9052 193.863 60.0068C193.863 59.1083 193.136 58.38 192.239 58.38C191.342 58.38 190.615 59.1083 190.615 60.0068C190.615 60.9052 191.342 61.6336 192.239 61.6336Z" fill="#455A64"/>
<path d="M184.134 59.1934C183.684 59.9696 183.953 60.9689 184.728 61.4152C185.503 61.866 186.5 61.5964 186.946 60.8202C187.396 60.044 187.127 59.0447 186.352 58.5985C185.577 58.1476 184.58 58.4172 184.134 59.1934Z" fill="#455A64"/>
<path d="M192.137 41.0059C192.137 41.0059 192.026 40.9967 191.808 41.0013C191.571 41.0059 191.251 41.0152 190.843 41.0292C190.629 41.0385 190.393 41.0385 190.133 41.0617C189.873 41.0989 189.59 41.1361 189.284 41.1826C188.973 41.2291 188.644 41.2755 188.291 41.3267C187.943 41.415 187.572 41.5033 187.182 41.6009C185.623 42.0006 183.735 42.6885 181.801 43.9528C179.871 45.1938 177.866 46.9693 176.238 49.3816C174.642 51.7985 173.408 54.8336 173.083 58.2499C173.051 59.1051 172.949 59.9743 173.032 60.8574C173.065 61.299 173.055 61.7452 173.12 62.1914C173.185 62.6376 173.255 63.0838 173.32 63.5346C173.682 65.3148 174.21 67.1415 175.129 68.838C176.024 70.5391 177.18 72.1613 178.585 73.6021C180.024 75.0151 181.698 76.2422 183.568 77.1857C185.428 78.1385 187.493 78.7986 189.641 79.0542C190.175 79.1611 190.717 79.1611 191.26 79.1936C191.803 79.2308 192.35 79.2494 192.898 79.2215C193.993 79.175 195.092 79.0402 196.178 78.8078C198.535 78.3059 200.757 77.3437 202.706 76.0563L202.506 76.0748C204.77 76.9858 206.988 77.8783 209.154 78.7474L209.549 78.9055L209.437 78.4964C208.765 76.0516 208.115 73.6765 207.484 71.3758L207.452 71.5524C209.317 69.0657 210.509 66.2305 211.001 63.4138C211.247 62.0055 211.353 60.6018 211.26 59.2446C211.233 58.566 211.2 57.892 211.07 57.2413C211.019 56.9159 210.968 56.5906 210.917 56.2652C210.857 55.9445 210.759 55.6331 210.685 55.3217C209.4 50.3065 206.32 46.6067 203.267 44.4873C201.741 43.4089 200.233 42.6374 198.85 42.154C198.507 42.0285 198.173 41.9123 197.857 41.7961C197.528 41.7124 197.217 41.6334 196.916 41.5544C196.614 41.48 196.326 41.4103 196.053 41.3406C195.774 41.2895 195.51 41.2569 195.259 41.2198C194.758 41.1547 194.313 41.071 193.928 41.0478C193.547 41.0338 193.223 41.0245 192.949 41.0152C192.703 41.0106 192.504 41.0059 192.35 41.0013C192.216 41.0013 192.146 41.0013 192.146 41.0106C192.146 41.0199 192.216 41.0245 192.346 41.0385C192.499 41.0524 192.694 41.0664 192.94 41.085C193.209 41.1036 193.533 41.1268 193.909 41.15C194.294 41.1779 194.73 41.2755 195.227 41.3499C197.185 41.7078 200.117 42.4933 203.114 44.6871C206.106 46.8066 209.108 50.4739 210.347 55.4007C210.421 55.7075 210.514 56.0142 210.569 56.3256C210.616 56.6417 210.667 56.9624 210.713 57.2831C210.834 57.9245 210.862 58.5799 210.889 59.2492C210.978 60.5832 210.866 61.959 210.62 63.3348C210.128 66.0957 208.955 68.8659 207.122 71.2967L207.062 71.3758L207.09 71.4734C207.716 73.7741 208.366 76.1539 209.029 78.5987L209.312 78.3477C207.145 77.4739 204.928 76.5768 202.664 75.6658L202.562 75.624L202.469 75.6844C200.562 76.9394 198.391 77.8829 196.085 78.3709C195.023 78.5987 193.951 78.7335 192.879 78.7753C192.346 78.7985 191.812 78.78 191.279 78.7474C190.75 78.7149 190.216 78.7149 189.697 78.6126C187.595 78.3663 185.582 77.7249 183.758 76.7953C181.93 75.875 180.288 74.6758 178.878 73.2954C177.495 71.887 176.363 70.3021 175.482 68.6381C174.582 66.9788 174.057 65.194 173.696 63.451C173.626 63.0094 173.561 62.5725 173.491 62.1356C173.426 61.6987 173.436 61.2618 173.403 60.8295C173.32 59.965 173.417 59.1098 173.445 58.2731C173.751 54.922 174.944 51.9333 176.498 49.5443C178.084 47.1599 180.047 45.3936 181.94 44.148C183.833 42.8837 185.693 42.1819 187.233 41.7589C187.618 41.6567 187.985 41.5591 188.328 41.4661C188.676 41.4103 189.005 41.3545 189.312 41.3034C189.613 41.2523 189.896 41.2058 190.156 41.164C190.416 41.1361 190.652 41.1268 190.861 41.1129C191.265 41.085 191.585 41.0617 191.822 41.0431C192.04 41.0245 192.151 41.0106 192.151 41.0059H192.137Z" fill="#455A64"/>
</svg>
