<svg width="24" height="24" viewBox="0 0 24 24" fill="none" xmlns="http://www.w3.org/2000/svg">
<path d="M18.6 4.45714H16.7143V3.51429C16.7143 3.26423 16.615 3.02441 16.4381 2.84759C16.2613 2.67077 16.0215 2.57143 15.7714 2.57143C15.5214 2.57143 15.2815 2.67077 15.1047 2.84759C14.9279 3.02441 14.8286 3.26423 14.8286 3.51429V4.45714H9.17143V3.51429C9.17143 3.26423 9.07209 3.02441 8.89527 2.84759C8.71845 2.67077 8.47863 2.57143 8.22857 2.57143C7.97851 2.57143 7.73869 2.67077 7.56187 2.84759C7.38505 3.02441 7.28572 3.26423 7.28572 3.51429V4.45714H5.4C4.64982 4.45714 3.93036 4.75515 3.3999 5.28561C2.86944 5.81607 2.57143 6.53553 2.57143 7.28572V18.6C2.57143 19.3502 2.86944 20.0696 3.3999 20.6001C3.93036 21.1306 4.64982 21.4286 5.4 21.4286H18.6C19.3502 21.4286 20.0696 21.1306 20.6001 20.6001C21.1306 20.0696 21.4286 19.3502 21.4286 18.6V7.28572C21.4286 6.53553 21.1306 5.81607 20.6001 5.28561C20.0696 4.75515 19.3502 4.45714 18.6 4.45714ZM19.5429 18.6C19.5429 18.8501 19.4435 19.0899 19.2667 19.2667C19.0899 19.4435 18.8501 19.5429 18.6 19.5429H5.4C5.14994 19.5429 4.91012 19.4435 4.7333 19.2667C4.55648 19.0899 4.45714 18.8501 4.45714 18.6V12H19.5429V18.6ZM19.5429 10.1143H4.45714V7.28572C4.45714 7.03565 4.55648 6.79584 4.7333 6.61902C4.91012 6.4422 5.14994 6.34286 5.4 6.34286H7.28572V7.28572C7.28572 7.53578 7.38505 7.7756 7.56187 7.95242C7.73869 8.12924 7.97851 8.22857 8.22857 8.22857C8.47863 8.22857 8.71845 8.12924 8.89527 7.95242C9.07209 7.7756 9.17143 7.53578 9.17143 7.28572V6.34286H14.8286V7.28572C14.8286 7.53578 14.9279 7.7756 15.1047 7.95242C15.2815 8.12924 15.5214 8.22857 15.7714 8.22857C16.0215 8.22857 16.2613 8.12924 16.4381 7.95242C16.615 7.7756 16.7143 7.53578 16.7143 7.28572V6.34286H18.6C18.8501 6.34286 19.0899 6.4422 19.2667 6.61902C19.4435 6.79584 19.5429 7.03565 19.5429 7.28572V10.1143Z" fill="#C5C5C5"/>
</svg>
