<svg width="28" height="28" viewBox="0 0 28 28" fill="none" xmlns="http://www.w3.org/2000/svg">
<path d="M21.7 5.2H19.5V4.1C19.5 3.80826 19.3841 3.52847 19.1778 3.32218C18.9715 3.11589 18.6917 3 18.4 3C18.1083 3 17.8285 3.11589 17.6222 3.32218C17.4159 3.52847 17.3 3.80826 17.3 4.1V5.2H10.7V4.1C10.7 3.80826 10.5841 3.52847 10.3778 3.32218C10.1715 3.11589 9.89174 3 9.6 3C9.30826 3 9.02847 3.11589 8.82218 3.32218C8.61589 3.52847 8.5 3.80826 8.5 4.1V5.2H6.3C5.42479 5.2 4.58542 5.54768 3.96655 6.16655C3.34768 6.78542 3 7.62479 3 8.5V21.7C3 22.5752 3.34768 23.4146 3.96655 24.0335C4.58542 24.6523 5.42479 25 6.3 25H21.7C22.5752 25 23.4146 24.6523 24.0335 24.0335C24.6523 23.4146 25 22.5752 25 21.7V8.5C25 7.62479 24.6523 6.78542 24.0335 6.16655C23.4146 5.54768 22.5752 5.2 21.7 5.2ZM22.8 21.7C22.8 21.9917 22.6841 22.2715 22.4778 22.4778C22.2715 22.6841 21.9917 22.8 21.7 22.8H6.3C6.00826 22.8 5.72847 22.6841 5.52218 22.4778C5.31589 22.2715 5.2 21.9917 5.2 21.7V14H22.8V21.7ZM22.8 11.8H5.2V8.5C5.2 8.20826 5.31589 7.92847 5.52218 7.72218C5.72847 7.51589 6.00826 7.4 6.3 7.4H8.5V8.5C8.5 8.79174 8.61589 9.07153 8.82218 9.27782C9.02847 9.48411 9.30826 9.6 9.6 9.6C9.89174 9.6 10.1715 9.48411 10.3778 9.27782C10.5841 9.07153 10.7 8.79174 10.7 8.5V7.4H17.3V8.5C17.3 8.79174 17.4159 9.07153 17.6222 9.27782C17.8285 9.48411 18.1083 9.6 18.4 9.6C18.6917 9.6 18.9715 9.48411 19.1778 9.27782C19.3841 9.07153 19.5 8.79174 19.5 8.5V7.4H21.7C21.9917 7.4 22.2715 7.51589 22.4778 7.72218C22.6841 7.92847 22.8 8.20826 22.8 8.5V11.8Z" fill="#181D18"/>
</svg>
