<svg width="28" height="28" viewBox="0 0 28 28" fill="none" xmlns="http://www.w3.org/2000/svg">
<path d="M11.7133 11.27L16.66 16.2167L10.045 22.8317L4.75999 23.17L5.09832 17.885L11.7133 11.27ZM11.7133 7.96833L3.44165 16.24C3.04499 16.6367 2.79999 17.1733 2.76499 17.745L2.33332 24.4183C2.27499 25.0833 2.74165 25.585 3.39499 25.585C3.42999 25.585 3.46499 25.585 3.49999 25.585L10.185 25.1533C10.7567 25.1183 11.2817 24.8733 11.69 24.4767L19.9617 16.205L11.7133 7.95667V7.96833Z" fill="#181D18"/>
<path d="M18.305 4.66666L23.2517 9.61333L20.7783 12.0867L15.8317 7.13999L18.305 4.66666ZM18.305 2.33333C17.71 2.33333 17.115 2.56666 16.66 3.02166L12.53 7.15166L20.7783 15.4L24.9083 11.27C25.8183 10.36 25.8183 8.87833 24.9083 7.96833L19.9617 3.02166C19.5067 2.56666 18.9117 2.33333 18.3167 2.33333L18.305 2.33333Z" fill="#181D18"/>
</svg>
