<svg width="16" height="16" viewBox="0 0 16 16" fill="none" xmlns="http://www.w3.org/2000/svg">
<path d="M7.99992 14.6667C11.6818 14.6667 14.6666 11.6819 14.6666 8.00001C14.6666 4.31811 11.6818 1.33334 7.99992 1.33334C4.31802 1.33334 1.33325 4.31811 1.33325 8.00001C1.33325 11.6819 4.31802 14.6667 7.99992 14.6667Z" fill="#C5C5C5"/>
<path fill-rule="evenodd" clip-rule="evenodd" d="M7.99992 4C8.36811 4 8.66659 4.29848 8.66659 4.66667V8.66667C8.66659 9.03486 8.36811 9.33333 7.99992 9.33333C7.63173 9.33333 7.33325 9.03486 7.33325 8.66667V4.66667C7.33325 4.29848 7.63173 4 7.99992 4Z" fill="white"/>
<path d="M7.99992 12C8.36811 12 8.66659 11.7015 8.66659 11.3333C8.66659 10.9651 8.36811 10.6667 7.99992 10.6667C7.63173 10.6667 7.33325 10.9651 7.33325 11.3333C7.33325 11.7015 7.63173 12 7.99992 12Z" fill="white"/>
</svg>
