<svg width="36" height="36" viewBox="0 0 36 36" fill="none" xmlns="http://www.w3.org/2000/svg">
<rect width="36" height="36" rx="4" fill="#53E07A"/>
<path d="M26.7697 22.1164C26.3801 20.9168 25.4721 20.3088 24.5956 19.721C23.8328 19.2091 23.1125 18.7254 22.6415 17.857C21.343 15.4515 20.6298 14 18.5026 14C16.3754 14 15.66 15.452 14.3585 17.8565C13.887 18.7268 13.1632 19.2115 12.3995 19.7243C11.5229 20.3126 10.6167 20.9192 10.2258 22.1164C10.0737 22.5481 9.99714 23.0066 10 23.4685C10 25.4156 11.4366 27 13.0281 27C14.6197 27 16.7163 26.1335 18.5071 26.1335C20.2978 26.1335 22.3652 27 23.9767 27C25.5881 27 26.9999 25.4156 26.9999 23.4685C27.0012 23.0063 26.9231 22.5479 26.7697 22.1164Z" fill="#005322"/>
<path d="M10.5 19C11.8807 19 13 17.433 13 15.5C13 13.567 11.8807 12 10.5 12C9.11929 12 8 13.567 8 15.5C8 17.433 9.11929 19 10.5 19Z" fill="#005322"/>
<path d="M15.5 14C16.8807 14 18 12.6569 18 11C18 9.34315 16.8807 8 15.5 8C14.1193 8 13 9.34315 13 11C13 12.6569 14.1193 14 15.5 14Z" fill="#005322"/>
<path d="M21.5 14C22.8807 14 24 12.6569 24 11C24 9.34315 22.8807 8 21.5 8C20.1193 8 19 9.34315 19 11C19 12.6569 20.1193 14 21.5 14Z" fill="#005322"/>
<path d="M26.5 19C27.8807 19 29 17.433 29 15.5C29 13.567 27.8807 12 26.5 12C25.1193 12 24 13.567 24 15.5C24 17.433 25.1193 19 26.5 19Z" fill="#005322"/>
</svg>
