<svg width="24" height="24" viewBox="0 0 24 24" fill="none" xmlns="http://www.w3.org/2000/svg">
<path d="M8.85986 21.8697C7.22085 21.2385 6.12072 20.3902 5.30033 19.2146C3.07543 16.1026 3.75458 12.0765 6.96289 9.31288C7.9472 8.46459 9.00034 7.68111 9.98368 6.81014C11.553 5.43924 12.185 3.7199 11.8101 1.71784C11.7866 1.56552 11.7866 1.39132 11.763 1C16.1884 4.26431 16.4926 8.44273 15.6731 12.9904C17.1246 12.3155 17.4995 11.5539 17.8744 8.57306C21.0357 12.7732 21.1289 20.2588 14.9939 22C16.5396 19.3887 16.2354 17.1477 13.776 15.2103C12.4412 14.1878 11.2232 13.1426 11.5746 11.2499C9.1876 12.9035 9.11782 15.1883 9.46835 17.6473C8.46139 17.0818 8.32105 16.3202 8.18068 15.4929C7.22082 17.6254 6.89301 19.736 8.85983 21.8694L8.85986 21.8697Z" fill="#C5C5C5"/>
</svg>
