<svg width="28" height="28" viewBox="0 0 28 28" fill="none" xmlns="http://www.w3.org/2000/svg">
<path fill-rule="evenodd" clip-rule="evenodd" d="M15.1667 5.83334C15.1667 5.18901 14.6444 4.66667 14 4.66667C13.3557 4.66667 12.8334 5.18901 12.8334 5.83334V12.8333H5.83335C5.18902 12.8333 4.66669 13.3557 4.66669 14C4.66669 14.6443 5.18902 15.1667 5.83335 15.1667H12.8334V22.1667C12.8334 22.811 13.3557 23.3333 14 23.3333C14.6444 23.3333 15.1667 22.811 15.1667 22.1667V15.1667H22.1667C22.811 15.1667 23.3334 14.6443 23.3334 14C23.3334 13.3557 22.811 12.8333 22.1667 12.8333H15.1667V5.83334Z" fill="#181D18"/>
</svg>
