<svg width="20" height="21" viewBox="0 0 20 21" fill="none" xmlns="http://www.w3.org/2000/svg">
<path fill-rule="evenodd" clip-rule="evenodd" d="M10.0002 4.34047V2.32391C10.0002 1.92391 9.57521 1.69891 9.28354 1.94891L6.00021 4.79891C5.77521 4.99057 5.77521 5.35724 6.00021 5.54891L9.28354 8.39891C9.56688 8.64891 10.0002 8.42391 10.0002 8.02391V6.00714C12.765 6.00717 15.0002 8.24239 15.0002 11.0071C15.0002 13.7719 12.7649 16.0071 10.0002 16.0071C7.2354 16.0071 5.00016 13.7719 5.00016 11.0071C5.00016 10.5469 4.62707 10.1738 4.16683 10.1738C3.70659 10.1738 3.3335 10.5469 3.3335 11.0071C3.3335 14.6924 6.31493 17.6738 10.0002 17.6738C13.6854 17.6738 16.6668 14.6924 16.6668 11.0071C16.6668 7.32192 13.6854 4.3405 10.0002 4.34047Z" fill="#181D18"/>
</svg>
