<svg width="28" height="28" viewBox="0 0 28 28" fill="none" xmlns="http://www.w3.org/2000/svg">
<path d="M23.24 7.98011H5.83332C5.19166 7.98011 4.66666 7.45511 4.66666 6.81344C4.66666 6.17177 5.19166 5.64677 5.83332 5.64677H23.24C23.8817 5.64677 24.4067 6.17177 24.4067 6.81344C24.4067 7.45511 23.8817 7.98011 23.24 7.98011Z" fill="#181D18"/>
<path d="M20.6033 7.91011V23.1468H8.48165V7.91011H20.6033ZM22.9366 6.32344H6.14832V23.2284C6.14832 24.4651 7.19832 25.4684 8.48165 25.4684H20.6033C21.8866 25.4684 22.9366 24.4651 22.9366 23.2284V6.32344Z" fill="#181D18"/>
<path d="M9.56662 5.985L10.465 4.18833C10.675 3.76833 11.1066 3.5 11.5733 3.5H17.5C17.9666 3.5 18.3983 3.76833 18.6083 4.18833L19.5066 5.985H9.56662Z" fill="#181D18"/>
<path fill-rule="evenodd" clip-rule="evenodd" d="M12.0516 9.99841C12.6959 9.99841 13.2183 10.5207 13.2183 11.1651V19.8801C13.2183 20.5244 12.6959 21.0467 12.0516 21.0467C11.4073 21.0467 10.8849 20.5244 10.8849 19.8801V11.1651C10.8849 10.5207 11.4073 9.99841 12.0516 9.99841Z" fill="#181D18"/>
<path fill-rule="evenodd" clip-rule="evenodd" d="M17.0216 9.99841C17.6659 9.99841 18.1883 10.5207 18.1883 11.1651V19.8801C18.1883 20.5244 17.6659 21.0467 17.0216 21.0467C16.3773 21.0467 15.8549 20.5244 15.8549 19.8801V11.1651C15.8549 10.5207 16.3773 9.99841 17.0216 9.99841Z" fill="#181D18"/>
</svg>
