<svg width="24" height="24" viewBox="0 0 24 24" fill="none" xmlns="http://www.w3.org/2000/svg">
<path d="M15.1821 5.98928C10.0197 4.32347 5.37262 7.29637 2.55178 10.387C1.67532 11.3473 1.70137 12.8081 2.57099 13.7746C3.40397 14.7003 4.23987 15.469 5.07315 16.0982L7.87302 13.2984L13.2997 7.8717L15.1821 5.98928Z" fill="#C5C5C5"/>
<path d="M8.94125 15.0585C9.72426 15.842 10.8062 16.3265 12.0014 16.3265C14.3908 16.3265 16.3279 14.3895 16.3279 12C16.3279 10.8049 15.8433 9.72294 15.0599 8.93993L17.1525 6.84732C18.551 7.61795 19.9743 8.75514 21.3977 10.3433C22.2833 11.3315 22.292 12.8272 21.372 13.7835C18.1324 17.1511 12.6232 20.3449 6.79256 17.2072L8.94125 15.0585Z" fill="#C5C5C5"/>
<path d="M12.1668 9.00456C12.1116 9.00153 12.056 9 12 9C10.3431 9 9 10.3431 9 12C9 12.056 9.00153 12.1116 9.00456 12.1668L12.1668 9.00456Z" fill="#C5C5C5"/>
<path d="M9.87858 14.1212C10.4215 14.6642 11.1715 15 12 15C13.6569 15 15 13.6569 15 12C15 11.1715 14.6642 10.4215 14.1212 9.87858L9.87858 14.1212Z" fill="#C5C5C5"/>
<path fill-rule="evenodd" clip-rule="evenodd" d="M19.435 5.29289C19.8256 5.68342 19.8256 6.31658 19.435 6.70711L6.70711 19.435C6.31658 19.8256 5.68342 19.8256 5.29289 19.435C4.90237 19.0445 4.90237 18.4113 5.29289 18.0208L18.0208 5.29289C18.4113 4.90237 19.0445 4.90237 19.435 5.29289Z" fill="#C5C5C5"/>
</svg>
