<svg width="24" height="24" viewBox="0 0 24 24" fill="none" xmlns="http://www.w3.org/2000/svg">
<path d="M12 22C17.5228 22 22 17.5228 22 12C22 6.47715 17.5228 2 12 2C6.47715 2 2 6.47715 2 12C2 17.5228 6.47715 22 12 22Z" fill="#C5C5C5"/>
<path fill-rule="evenodd" clip-rule="evenodd" d="M7.79289 7.79289C8.18342 7.40237 8.81658 7.40237 9.20711 7.79289L16.2071 14.7929C16.5976 15.1834 16.5976 15.8166 16.2071 16.2071C15.8166 16.5976 15.1834 16.5976 14.7929 16.2071L7.79289 9.20711C7.40237 8.81658 7.40237 8.18342 7.79289 7.79289Z" fill="white"/>
<path fill-rule="evenodd" clip-rule="evenodd" d="M16.2071 7.79289C16.5976 8.18342 16.5976 8.81658 16.2071 9.20711L9.20711 16.2071C8.81658 16.5976 8.18342 16.5976 7.79289 16.2071C7.40237 15.8166 7.40237 15.1834 7.79289 14.7929L14.7929 7.79289C15.1834 7.40237 15.8166 7.40237 16.2071 7.79289Z" fill="white"/>
</svg>
