<svg xmlns="http://www.w3.org/2000/svg" width="24" height="24" viewBox="0 0 24 24" fill="none">
  <path d="M12 22C17.5228 22 22 17.5228 22 12C22 6.47715 17.5228 2 12 2C6.47715 2 2 6.47715 2 12C2 17.5228 6.47715 22 12 22Z" fill="#30C462"/>
  <path fill-rule="evenodd" clip-rule="evenodd" d="M17.6567 7.75235C18.0475 8.1426 18.0479 8.77577 17.6577 9.16657L10.5877 16.2466C10.4002 16.4343 10.1457 16.5399 9.8804 16.54C9.61506 16.5401 9.36056 16.4347 9.17294 16.2471L6.34294 13.4171C5.95242 13.0265 5.95242 12.3934 6.34294 12.0029C6.73347 11.6123 7.36663 11.6123 7.75716 12.0029L9.87955 14.1252L16.2424 7.75335C16.6327 7.36255 17.2659 7.36211 17.6567 7.75235Z" fill="white"/>
</svg>