<svg xmlns="http://www.w3.org/2000/svg" width="366" height="301" viewBox="0 0 366 301" fill="none">
  <g filter="url(#filter0_d_189_739)">
    <path fill-rule="evenodd" clip-rule="evenodd" d="M242.117 53.9029C243.678 60.0338 248.793 65 255.119 65H346C352.627 65 358 70.3726 358 77V281C358 287.627 352.627 293 346 293H20C13.3726 293 8 287.627 8 281V77C8 70.3726 13.3726 65 20 65H110.881C117.207 65 122.322 60.0338 123.883 53.9029C130.601 27.5156 154.521 8 183 8C211.479 8 235.399 27.5156 242.117 53.9029Z" fill="white"/>
  </g>
  <defs>
    <filter id="filter0_d_189_739" x="0" y="0" width="366" height="301" filterUnits="userSpaceOnUse" color-interpolation-filters="sRGB">
      <feFlood flood-opacity="0" result="BackgroundImageFix"/>
      <feColorMatrix in="SourceAlpha" type="matrix" values="0 0 0 0 0 0 0 0 0 0 0 0 0 0 0 0 0 0 127 0" result="hardAlpha"/>
      <feOffset/>
      <feGaussianBlur stdDeviation="4"/>
      <feComposite in2="hardAlpha" operator="out"/>
      <feColorMatrix type="matrix" values="0 0 0 0 0 0 0 0 0 0 0 0 0 0 0 0 0 0 0.1 0"/>
      <feBlend mode="normal" in2="BackgroundImageFix" result="effect1_dropShadow_189_739"/>
      <feBlend mode="normal" in="SourceGraphic" in2="effect1_dropShadow_189_739" result="shape"/>
    </filter>
  </defs>
</svg>