<svg xmlns="http://www.w3.org/2000/svg" width="41" height="41" viewBox="0 0 41 41" fill="none">
  <path d="M35.875 10.25H32.4583L30.2887 8.08044C29.5041 7.29499 28.4434 6.84744 27.3333 6.83335H23.0625C22.8232 5.87463 22.2757 5.02103 21.5041 4.40375C20.7325 3.78647 19.7795 3.43968 18.7916 3.41669V14.2817C18.8794 16.007 19.5615 17.6487 20.722 18.9284C22.6329 20.7654 25.1323 21.8668 27.7775 22.0375L33.6712 19.68C34.3627 19.4024 34.9854 18.9774 35.4958 18.4345C36.0062 17.8916 36.3921 17.244 36.6266 16.5367L37.5833 13.9229C37.6092 13.7474 37.6092 13.5689 37.5833 13.3934V11.9584C37.5833 11.5053 37.4033 11.0708 37.0829 10.7504C36.7626 10.43 36.328 10.25 35.875 10.25ZM27.3333 13.6667C26.9954 13.6667 26.6651 13.5665 26.3842 13.3788C26.1033 13.1911 25.8843 12.9243 25.755 12.6121C25.6257 12.2999 25.5919 11.9565 25.6578 11.6251C25.7237 11.2937 25.8864 10.9893 26.1253 10.7504C26.3642 10.5115 26.6686 10.3488 27 10.2828C27.3314 10.2169 27.6749 10.2508 27.987 10.3801C28.2992 10.5094 28.566 10.7283 28.7537 11.0093C28.9414 11.2902 29.0416 11.6205 29.0416 11.9584C29.0416 12.4114 28.8616 12.846 28.5413 13.1663C28.2209 13.4867 27.7864 13.6667 27.3333 13.6667Z" fill="#003915"/>
  <path d="M19.4408 20.0558C18.2491 18.7507 17.4704 17.122 17.2029 15.375H10.25C9.79346 15.4052 9.33578 15.3375 8.90756 15.1765C8.47934 15.0155 8.09046 14.7648 7.76696 14.4413C7.44347 14.1178 7.19281 13.729 7.03179 13.3007C6.87077 12.8725 6.80309 12.4148 6.83329 11.9583C6.83329 11.5053 6.65331 11.0707 6.33293 10.7504C6.01256 10.43 5.57804 10.25 5.12496 10.25C4.67188 10.25 4.23736 10.43 3.91699 10.7504C3.59661 11.0707 3.41663 11.5053 3.41663 11.9583C3.43379 13.1439 3.71385 14.3108 4.23663 15.375C4.81293 16.4925 5.71964 17.4051 6.83329 17.9887V37.5833H11.9583V29.0417H22.2083V37.5833H27.3333V23.6946C24.3532 23.4598 21.5546 22.1696 19.4408 20.0558Z" fill="#003915"/>
</svg>