<svg xmlns="http://www.w3.org/2000/svg" width="92" height="92" viewBox="0 0 92 92" fill="none">
  <path fill-rule="evenodd" clip-rule="evenodd" d="M46.247 31.2677H44.1069C43.3043 29.5734 41.2445 26.1493 39.4254 26.0066C37.1515 25.8282 34.1642 29.2613 30.419 37.8218C26.6738 46.3823 25.1134 53.0255 30.419 59.5351C35.3322 65.563 43.6109 65.9952 46.247 66V66C46.2543 66 46.2618 66 46.2693 66C46.2767 66 46.2842 66 46.2916 66V66C48.9276 65.9952 57.2064 65.563 62.1195 59.5351C67.4251 53.0255 65.8647 46.3823 62.1195 37.8218C58.3743 29.2613 55.387 25.8282 53.1132 26.0066C51.2941 26.1493 49.2342 29.5734 48.4317 31.2677H46.2916H46.247Z" fill="#D3E8D1"/>
  <path d="M39.486 46.9619C39.5306 45.758 40.4203 44.9555 41.4032 44.9555C42.5624 44.9555 43.1608 45.9829 43.2312 46.7389C43.3516 48.0319 42.6516 49.0128 41.4032 49.0574C40.1548 49.102 39.4414 48.1657 39.486 46.9619Z" fill="#060606"/>
  <ellipse cx="41.1337" cy="45.9364" rx="0.490443" ry="0.445857" fill="#D3E8D1"/>
  <path d="M53.0514 46.9619C53.0068 45.758 52.1171 44.9555 51.1342 44.9555C49.975 44.9555 49.3767 45.9829 49.3062 46.7389C49.1858 48.0319 49.8858 49.0128 51.1342 49.0574C52.3826 49.102 53.096 48.1657 53.0514 46.9619Z" fill="#060606"/>
  <ellipse cx="50.9425" cy="45.9364" rx="0.490443" ry="0.445857" fill="#D3E8D1"/>
  <path fill-rule="evenodd" clip-rule="evenodd" d="M46.2612 59.0446V62.3439C47.0295 62.3439 48.7258 62.1478 49.3641 61.363C50.0024 60.5783 49.4232 59.3418 49.0538 58.8217L46.2612 59.0446ZM46.2611 59.0446V62.344C45.4927 62.344 43.7964 62.1478 43.1581 61.3631C42.5198 60.5784 43.099 59.3418 43.4684 58.8217L46.2611 59.0446Z" fill="#F4F4F4"/>
  <path fill-rule="evenodd" clip-rule="evenodd" d="M46.2377 48.5672C43.5111 48.5996 38.326 51.4462 37.4887 55.9236C36.6466 60.4268 39.6375 62.939 42.3076 61.7198C44.2851 60.8168 45.4886 59.6949 46.078 59.1455C46.1475 59.0807 46.2084 59.024 46.261 58.9764C46.3137 59.024 46.3746 59.0808 46.4441 59.1455C47.0335 59.6949 48.237 60.8169 50.2145 61.7198C52.8846 62.9391 55.8755 60.4268 55.0334 55.9237C54.1961 51.4462 49.0109 48.5997 46.2844 48.5673V48.567C46.2748 48.567 46.2651 48.567 46.2554 48.5671C46.2495 48.567 46.2436 48.567 46.2377 48.567V48.5672Z" fill="white"/>
  <path fill-rule="evenodd" clip-rule="evenodd" d="M46.261 57.7516V52.0001C45.2883 52.0149 43.2883 52.3924 43.0694 53.7835C42.7959 55.5223 45.6227 57.3949 46.261 57.7516ZM46.2611 57.7517V52.0001C47.2338 52.015 49.2339 52.3924 49.4527 53.7835C49.7263 55.5224 46.8995 57.395 46.2611 57.7517Z" fill="#464646"/>
  <rect x="46.0827" y="57.4395" width="0.356686" height="1.69426" fill="#464646"/>
</svg>