<svg xmlns="http://www.w3.org/2000/svg" width="22" height="22" viewBox="0 0 22 22" fill="none">
  <path fill-rule="evenodd" clip-rule="evenodd" d="M2.84518 0.488155C2.1943 -0.162718 1.13903 -0.162718 0.488155 0.488155C-0.162718 1.13903 -0.162718 2.1943 0.488155 2.84518L8.47631 10.8333L0.488155 18.8215C-0.162718 19.4724 -0.162718 20.5276 0.488155 21.1785C1.13903 21.8294 2.1943 21.8294 2.84518 21.1785L10.8333 13.1904L18.8215 21.1785C19.4724 21.8294 20.5276 21.8294 21.1785 21.1785C21.8294 20.5276 21.8294 19.4724 21.1785 18.8215L13.1904 10.8333L21.1785 2.84518C21.8294 2.1943 21.8294 1.13903 21.1785 0.488155C20.5276 -0.162718 19.4724 -0.162718 18.8215 0.488155L10.8333 8.47631L2.84518 0.488155Z" fill="#003915"/>
</svg>