<svg xmlns="http://www.w3.org/2000/svg" width="25" height="24" viewBox="0 0 25 24" fill="none">
  <path d="M21.1699 16.1164C20.7803 14.9168 19.8724 14.3088 18.9958 13.721C18.233 13.2091 17.5127 12.7254 17.0417 11.857C15.7432 9.45151 15.03 8 12.9028 8C10.7756 8 10.0602 9.45199 8.75866 11.8565C8.28718 12.7268 7.56336 13.2115 6.79969 13.7243C5.92313 14.3126 5.01691 14.9192 4.626 16.1164C4.4739 16.5481 4.39735 17.0066 4.40022 17.4685C4.40022 19.4156 5.83681 21 7.42833 21C9.01986 21 11.1165 20.1335 12.9073 20.1335C14.698 20.1335 16.7654 21 18.3769 21C19.9883 21 21.4001 19.4156 21.4001 17.4685C21.4014 17.0063 21.3233 16.5479 21.1699 16.1164Z" fill="#005322"/>
  <path d="M4.90015 13C6.28086 13 7.40015 11.433 7.40015 9.5C7.40015 7.567 6.28086 6 4.90015 6C3.51943 6 2.40015 7.567 2.40015 9.5C2.40015 11.433 3.51943 13 4.90015 13Z" fill="#005322"/>
  <path d="M9.90015 8C11.2809 8 12.4001 6.65685 12.4001 5C12.4001 3.34315 11.2809 2 9.90015 2C8.51943 2 7.40015 3.34315 7.40015 5C7.40015 6.65685 8.51943 8 9.90015 8Z" fill="#005322"/>
  <path d="M15.9001 8C17.2809 8 18.4001 6.65685 18.4001 5C18.4001 3.34315 17.2809 2 15.9001 2C14.5194 2 13.4001 3.34315 13.4001 5C13.4001 6.65685 14.5194 8 15.9001 8Z" fill="#005322"/>
  <path d="M20.9001 13C22.2809 13 23.4001 11.433 23.4001 9.5C23.4001 7.567 22.2809 6 20.9001 6C19.5194 6 18.4001 7.567 18.4001 9.5C18.4001 11.433 19.5194 13 20.9001 13Z" fill="#005322"/>
</svg>