
<svg xmlns="http://www.w3.org/2000/svg" width="32" height="32" viewBox="0 0 32 32" fill="none">
  <rect x="0.5" y="0.5" width="31" height="31" rx="15.5" fill="#00AF50"/>
  <rect x="0.5" y="0.5" width="31" height="31" rx="15.5" stroke="#00AF50"/>
  <path d="M10 10.0007C10 9.89116 10.0216 9.78274 10.0634 9.68178C10.1053 9.58081 10.1666 9.48932 10.2438 9.41266C11.1292 8.53282 12.3123 8.02806 13.552 8.00114C14.7917 7.97421 15.9949 8.42713 16.9168 9.26772L17.202 9.53784C17.7947 10.0642 18.5558 10.3543 19.3438 10.3543C20.1317 10.3543 20.8928 10.0642 21.4855 9.53784L21.6878 9.35089C22.1834 8.95312 22.9285 9.27101 22.9959 9.90761L23 10.0007V17.4126C23 17.5221 22.9784 17.6305 22.9366 17.7315C22.8947 17.8324 22.8334 17.9239 22.7563 18.0006C21.8708 18.8804 20.6877 19.3852 19.448 19.4121C18.2083 19.439 17.0051 18.9861 16.0832 18.1455L15.798 17.8754C15.224 17.3656 14.4913 17.0769 13.7283 17.0597C12.9654 17.0425 12.2208 17.2981 11.625 17.7815V23.1774C11.6248 23.3873 11.5455 23.5892 11.4033 23.7418C11.2611 23.8944 11.0669 23.9863 10.8601 23.9986C10.6534 24.0109 10.4498 23.9427 10.291 23.808C10.1322 23.6733 10.0301 23.4822 10.0057 23.2737L10 23.1774V10.0007Z" fill="white"/>
</svg>