<svg width="47" height="60" viewBox="0 0 47 60" fill="none" xmlns="http://www.w3.org/2000/svg">
<path d="M46.281 22.9595C46.281 36.8128 31.5638 52.1278 25.6031 57.7625C24.1969 59.0918 22.0691 59.1091 20.646 57.798C14.6648 52.2879 0 37.3145 0 22.9595C0 10.2793 10.3604 0 23.1405 0C35.9206 0 46.281 10.2793 46.281 22.9595Z" fill="#00AF50"/>
<rect x="4" y="4" width="38" height="38" rx="19" fill="white"/>
<path d="M31.7698 27.1164C31.3802 25.9168 30.4722 25.3088 29.5956 24.721C28.8329 24.2091 28.1126 23.7254 27.6415 22.857C26.3431 20.4515 25.6299 19 23.5027 19C21.3755 19 20.6601 20.452 19.3585 22.8565C18.887 23.7268 18.1632 24.2115 17.3995 24.7243C16.523 25.3126 15.6168 25.9192 15.2259 27.1164C15.0738 27.5481 14.9972 28.0066 15.0001 28.4685C15.0001 30.4156 16.4367 32 18.0282 32C19.6197 32 21.7164 31.1335 23.5071 31.1335C25.2979 31.1335 27.3653 32 28.9767 32C30.5882 32 32 30.4156 32 28.4685C32.0012 28.0063 31.9232 27.5479 31.7698 27.1164Z" fill="#005322"/>
<path d="M15.5 24C16.8807 24 18 22.433 18 20.5C18 18.567 16.8807 17 15.5 17C14.1193 17 13 18.567 13 20.5C13 22.433 14.1193 24 15.5 24Z" fill="#005322"/>
<path d="M20.5 19C21.8807 19 23 17.6569 23 16C23 14.3431 21.8807 13 20.5 13C19.1193 13 18 14.3431 18 16C18 17.6569 19.1193 19 20.5 19Z" fill="#005322"/>
<path d="M26.5 19C27.8807 19 29 17.6569 29 16C29 14.3431 27.8807 13 26.5 13C25.1193 13 24 14.3431 24 16C24 17.6569 25.1193 19 26.5 19Z" fill="#005322"/>
<path d="M31.5 24C32.8807 24 34 22.433 34 20.5C34 18.567 32.8807 17 31.5 17C30.1193 17 29 18.567 29 20.5C29 22.433 30.1193 24 31.5 24Z" fill="#005322"/>
</svg>
