<svg width="36" height="36" viewBox="0 0 36 36" fill="none" xmlns="http://www.w3.org/2000/svg">
<circle cx="18" cy="18" r="18" fill="#F0F0F0"/>
<path fill-rule="evenodd" clip-rule="evenodd" d="M18 11C15.2423 11 13 13.2423 13 16V16.5V22.87C13 23.52 12.38 24.01 11.75 23.84C9.59 23.28 8 21.33 8 19C8 16.8745 9.3285 15.0574 11.1999 14.3342C11.9485 11.2745 14.7116 9 18 9C21.2884 9 24.0515 11.2745 24.8001 14.3342C26.6715 15.0574 28 16.8745 28 19C28 21.0143 26.8116 22.7521 25.094 23.5414L22.8 26.6001C22.6111 26.8519 22.3148 27.0001 22 27.0001H18C17.4477 27.0001 17 26.5523 17 26.0001C17 25.4478 17.4477 25.0001 18 25.0001H21.5L23.0072 22.9905C23.0025 22.9511 23 22.9109 23 22.87V16.5V16C23 13.2423 20.7577 11 18 11Z" fill="#006D2F"/>
</svg>