<svg xmlns="http://www.w3.org/2000/svg" width="40" height="39" viewBox="0 0 40 39" fill="none">
  <path fill-rule="evenodd" clip-rule="evenodd" d="M20.3048 8.12701C15.8224 8.12701 12.1778 11.7716 12.1778 16.254V17.0667V27.4205C12.1778 28.477 11.17 29.2734 10.146 28.9971C6.63516 28.0869 4.05078 24.9174 4.05078 21.1302C4.05078 17.6754 6.21013 14.7218 9.25191 13.5465C10.4686 8.57324 14.9598 4.87622 20.3048 4.87622C25.6497 4.87622 30.1409 8.57324 31.3576 13.5465C34.3994 14.7218 36.5587 17.6754 36.5587 21.1302C36.5587 24.4043 34.6272 27.2289 31.8353 28.5118L28.1067 33.4833C27.7997 33.8926 27.3179 34.1335 26.8063 34.1335H20.3048C19.4071 34.1335 18.6794 33.4057 18.6794 32.5081C18.6794 31.6104 19.4071 30.8827 20.3048 30.8827H25.9936L28.4434 27.6163C28.4357 27.5522 28.4317 27.4869 28.4317 27.4205L28.4317 17.0667V16.254L28.4317 16.2484C28.4287 11.7686 24.7853 8.12701 20.3048 8.12701Z" fill="#006D2F"/>
</svg>