<svg xmlns="http://www.w3.org/2000/svg" width="89" height="119" viewBox="0 0 89 119" fill="none">
  <path d="M41.2041 117.29C40.3509 118.316 38.9857 119 37.7911 119C26.6989 118.658 15.436 118.145 3.83177 118.145C1.27202 118.145 -0.605127 115.922 0.248123 113.528C0.418773 113.357 0.418773 113.186 0.418773 113.015C1.44267 97.2807 1.61332 89.0638 2.12527 73.159C2.63722 54.6888 1.95462 32.1142 2.80787 13.644C2.80787 9.53953 4.34372 4.57995 8.95127 1.50159C11.1697 0.304454 20.3848 0.475472 23.1152 0.475472C32.6716 0.304454 42.3987 0.304454 51.9551 1.15955C59.293 1.84363 67.1429 3.04077 73.2863 7.14526C78.0645 10.3946 81.6481 15.5252 83.8666 20.8268C87.7915 29.5489 89.1567 39.639 88.9861 49.3872C88.8154 56.57 87.7915 63.9239 84.8905 70.5937C83.184 74.6981 80.4536 78.4606 77.0406 81.3679C72.945 84.6173 67.9961 86.6695 63.0473 88.2087C56.5626 90.2609 49.7366 90.774 42.9106 91.116C43.0813 101.377 43.2519 103.437 42.3987 113.699C42.228 115.067 42.0574 116.435 41.2041 117.29ZM44.1052 30.746C44.1052 34.5084 44.4465 56.57 44.4465 60.3325C47.5182 60.1614 50.9311 59.6484 53.6615 58.1092C55.368 57.0831 56.7332 55.5439 57.5865 53.8337C59.4636 49.3872 57.7571 39.297 55.0267 35.3635C52.8083 31.9431 48.0301 31.2591 44.1052 30.746Z" fill="white"/>
  <rect x="37.3809" y="23.45" width="23.0639" height="40.6363" fill="white"/>
</svg>