<svg xmlns="http://www.w3.org/2000/svg" width="129" height="18" viewBox="0 0 129 18" fill="none">
  <path d="M122.759 17.6426C121.682 17.6894 120.605 17.5958 119.528 17.5489C119.247 17.5489 118.615 17.5958 118.428 17.2914C118.358 17.151 118.358 16.9871 118.334 16.8466C118.287 16.1209 118.287 15.3952 118.264 14.6695C118.241 14.2481 118.217 13.5692 118.756 13.3819C118.99 13.3585 119.224 13.3819 119.458 13.4053C120.207 13.4756 121.658 13.4522 122.033 12.8201C122.267 12.4221 121.752 11.7666 121.097 11.1111C119.13 9.14466 117.632 7.99756 117.913 5.07128C118.217 1.0213 122.291 0.459456 125.919 0.389227C126.949 0.365815 127.932 0.459456 128.167 0.76379C128.354 0.974482 128.33 1.79384 128.33 2.07476C128.33 2.33228 128.307 3.80712 128.307 4.06464C128.307 4.76694 127.722 4.81377 127.183 4.81377C123.531 4.81377 122.618 6.45248 125.568 8.91056C126.973 10.0811 128.565 11.5559 128.611 13.9672C128.635 14.6695 128.447 15.3952 128.096 15.9805C127.043 17.5489 124.655 17.5255 122.759 17.6426Z" fill="#00AF50"/>
  <path d="M110.669 17.6426C109.593 17.6894 108.516 17.5958 107.439 17.5489C107.158 17.5489 106.526 17.5958 106.339 17.2914C106.268 17.151 106.268 16.9871 106.245 16.8466C106.198 16.1209 106.198 15.3952 106.175 14.6695C106.151 14.2481 106.128 13.5692 106.666 13.3819C106.9 13.3585 107.134 13.3819 107.369 13.4053C108.118 13.4756 109.569 13.4522 109.944 12.8201C110.178 12.4221 109.663 11.7666 109.007 11.1111C107.041 9.14466 105.543 7.99756 105.823 5.07128C106.128 1.0213 110.201 0.459456 113.83 0.389227C114.86 0.365815 115.843 0.459456 116.077 0.76379C116.264 0.974482 116.241 1.79384 116.241 2.07476C116.241 2.33228 116.218 3.80712 116.218 4.06464C116.218 4.76694 115.632 4.81377 115.094 4.81377C111.442 4.81377 110.529 6.45248 113.479 8.91056C114.883 10.0811 116.475 11.5559 116.522 13.9672C116.545 14.6695 116.358 15.3952 116.007 15.9805C114.953 17.5489 112.566 17.5255 110.669 17.6426Z" fill="#00AF50"/>
  <path d="M94.5789 17.3383C93.783 17.3383 92.7295 17.7596 92.7295 16.5657C92.8231 15.5357 92.8465 14.5056 92.87 13.4756C92.987 10.2684 93.0104 7.03774 93.2211 3.83053C93.2445 3.45597 93.2445 1.37245 93.3148 0.997889C93.385 0.693557 93.783 0.529685 94.0873 0.459454C94.4619 0.412634 96.4517 0.482865 96.8263 0.482865C98.7928 0.529685 100.759 0.506275 102.726 0.506275C103.451 0.506275 104.364 0.646736 104.201 1.65338C104.177 1.95771 104.154 3.87735 104.154 4.18169C104.154 4.60307 104.341 6.00768 103.639 6.00768C102.281 6.0311 100.946 5.98427 99.5887 6.0311C99.2375 6.0311 98.863 6.07792 98.5118 6.10133C98.5118 6.54612 98.5118 6.99092 98.4884 7.45912C99.6355 7.45912 100.783 7.48253 101.93 7.50594C102.351 7.50594 102.445 7.90392 102.445 8.25507C102.445 9.14466 102.468 10.0342 102.398 10.9004C102.398 11.1579 102.047 11.4857 101.766 11.4857C100.666 11.4155 99.5419 11.392 98.4182 11.4389C98.3948 11.8368 98.3948 12.2348 98.3948 12.6094C99.2844 12.6094 100.174 12.5391 101.064 12.5391C101.462 12.5391 103.405 12.5626 103.803 12.6328C104.271 12.7264 104.224 13.3585 104.177 13.7331C104.13 14.7163 104.13 15.6995 104.13 16.6828C104.13 17.4787 103.381 17.4085 102.726 17.4085C101.742 17.4085 95.5621 17.3617 94.5789 17.3383Z" fill="#00AF50"/>
  <path d="M80.2546 17.4553C79.2479 17.5957 78.2179 17.5021 77.2112 17.4553C77.0005 17.4553 75.9003 17.4318 75.6896 17.385C75.4555 17.3382 75.3384 17.0807 75.3618 16.8466C75.4555 16.2847 75.4789 13.2648 75.5023 12.703C75.5959 8.95733 75.6193 5.21169 75.5491 1.46605C75.5491 1.37241 75.5491 0.880794 75.5491 0.787153C75.5959 0.553051 75.7832 0.342358 76.0173 0.389179C76.2514 0.342358 77.3751 0.482821 77.6326 0.482821C78.2179 0.506231 81.7294 0.108256 82.0103 0.389179C82.0806 0.459409 82.2444 0.810564 82.2913 0.880794C83.4384 3.12818 84.5386 5.39897 85.4985 7.71659C85.4751 5.51603 85.4751 3.31546 85.4282 1.1149C85.4282 0.833974 85.6857 0.365768 86.0369 0.365768C87.4181 0.389179 88.893 0.225307 90.3912 0.506231C90.7424 0.506231 90.9062 1.09149 90.7658 1.39582C90.6253 1.67674 90.6253 2.87067 90.6253 3.175C90.5785 5.07123 90.5785 6.96746 90.5317 8.84028C90.5083 9.82351 90.3678 15.7463 90.2976 16.7295C90.2976 16.9871 90.1103 17.2446 89.8528 17.1743C89.5953 17.1275 88.2843 17.2212 88.0502 17.2212C86.7158 17.1743 85.3814 17.2212 84.0704 17.2446C83.93 17.2446 83.8363 17.1977 83.7427 17.0807C83.4852 16.7061 82.6892 14.6226 82.502 14.1778C81.9635 12.82 81.3783 11.4622 80.793 10.1044C80.7228 12.3518 80.676 14.5992 80.676 16.8466C80.676 17.1041 80.4887 17.4318 80.2546 17.4553Z" fill="#00AF50"/>
  <path d="M67.4049 17.3938C66.6323 17.4172 65.8598 17.3938 65.0873 17.3938C64.6659 17.3704 62.0439 17.4406 62.0439 16.6681C62.0439 16.6213 62.0673 16.4106 62.0673 16.3638C62.161 15.006 62.1142 13.6248 62.2312 12.2436C62.0907 11.9158 61.9737 11.5647 61.8566 11.2135C61.8566 11.1901 61.7864 11.0496 61.763 11.0262C61.6459 10.6048 60.6861 8.42769 60.5223 8.00631C59.6327 5.94621 58.8601 3.81587 57.9003 1.77918C57.7364 1.42803 57.6194 0.725719 58.0408 0.468207C58.3451 0.280925 58.9069 0.280925 59.3517 0.280925C60.1945 0.234105 61.0607 0.210693 61.9035 0.210693C62.1376 0.210693 63.1208 0.210693 63.3315 0.280925C63.706 0.421386 63.5656 0.795951 63.706 1.07687C64.0806 1.826 64.3615 2.62195 64.6425 3.39449C64.9936 4.35431 65.3214 5.31413 65.6491 6.29736C65.8598 5.59505 66.9601 1.98987 67.0537 1.26416C67.1474 0.561848 67.4049 0.210693 68.154 0.327746C69.3947 0.351156 70.6355 0.257515 71.8762 0.304335C71.8762 0.304335 74.147 0.397976 73.8193 1.21734C73.5618 1.826 71.8996 5.29072 71.6187 5.87598C70.6823 7.84244 69.6054 9.8089 68.5754 12.1967C68.5988 13.5545 68.669 14.4441 68.7158 15.8253C68.7158 15.9424 68.7627 16.7383 68.7627 16.8554C68.7627 17.4172 67.9667 17.3704 67.4049 17.3938Z" fill="#00AF50"/>
  <path d="M50.6197 17.1129C50.5027 17.2534 50.3154 17.347 50.1515 17.347C48.6299 17.3002 47.0848 17.23 45.4929 17.23C45.1417 17.23 44.8842 16.9257 45.0013 16.5979C45.0247 16.5745 45.0247 16.5511 45.0247 16.5277C45.1651 14.3739 45.1886 12.1968 45.2588 10.0196C45.329 7.49133 45.2354 4.40117 45.3524 1.87287C45.3524 1.31102 45.5631 0.632123 46.1952 0.210738C46.4995 0.0468671 47.7637 0.0702771 48.1382 0.0702771C49.4492 0.0468671 50.7836 0.0468671 52.0946 0.163918C53.1012 0.25756 54.1781 0.421431 55.0209 0.983278C55.6763 1.42807 56.168 2.13038 56.4723 2.8561C57.0107 4.05002 57.198 5.43123 57.1746 6.76561C57.1512 7.74884 57.0107 8.75548 56.6128 9.66848C56.3787 10.2303 56.0041 10.7454 55.5359 11.1433C54.974 11.5881 54.2951 11.869 53.6162 12.0797C52.7267 12.3607 51.7902 12.4309 50.8538 12.4777C50.8772 13.8823 50.9007 15.2167 50.7836 16.6213C50.7602 16.8086 50.7368 16.9959 50.6197 17.1129ZM51.0177 4.21389C51.0177 4.72892 51.0645 7.74884 51.0645 8.26387C51.4859 8.24046 51.9541 8.17023 52.3287 7.95953C52.5628 7.81907 52.7501 7.60838 52.8671 7.37428C53.1246 6.76561 52.8905 5.38441 52.516 4.84597C52.2116 4.37776 51.5561 4.28412 51.0177 4.21389Z" fill="#00AF50"/>
  <path d="M36.9938 17.1129C36.8767 17.2534 36.6894 17.347 36.5255 17.347C35.0039 17.3002 33.4588 17.23 31.8669 17.23C31.5158 17.23 31.2582 16.9257 31.3753 16.5979C31.3987 16.5745 31.3987 16.5511 31.3987 16.5277C31.5392 14.3739 31.5626 12.1968 31.6328 10.0196C31.703 7.49133 31.6094 4.40117 31.7264 1.87287C31.7264 1.31102 31.9371 0.632123 32.5692 0.210738C32.8735 0.0468671 34.1377 0.0702771 34.5123 0.0702771C35.8232 0.0468671 37.1576 0.0468671 38.4686 0.163918C39.4752 0.25756 40.5521 0.421431 41.3949 0.983278C42.0504 1.42807 42.542 2.13038 42.8463 2.8561C43.3848 4.05002 43.572 5.43123 43.5486 6.76561C43.5252 7.74884 43.3848 8.75548 42.9868 9.66848C42.7527 10.2303 42.3781 10.7454 41.9099 11.1433C41.3481 11.5881 40.6692 11.869 39.9903 12.0797C39.1007 12.3607 38.1643 12.4309 37.2279 12.4777C37.2513 13.8823 37.2747 15.2167 37.1576 16.6213C37.1342 16.8086 37.1108 16.9959 36.9938 17.1129ZM37.3917 4.21389C37.3917 4.72892 37.4386 7.74884 37.4386 8.26387C37.8599 8.24046 38.3281 8.17023 38.7027 7.95953C38.9368 7.81907 39.1241 7.60838 39.2411 7.37428C39.4987 6.76561 39.2646 5.38441 38.89 4.84597C38.5857 4.37776 37.9302 4.28412 37.3917 4.21389Z" fill="#00AF50"/>
  <path d="M22.5975 17.1831C21.8016 17.1831 21.0056 17.2065 20.2331 17.0427C17.0493 16.434 15.2935 13.5311 14.919 10.3942C14.6849 8.42769 14.8019 6.43782 14.8253 4.44795C14.8487 3.60518 14.8253 2.76241 14.8487 1.94305C14.8956 1.45144 14.8487 0.117053 15.6447 0.117053C17.0025 0.117053 18.3837 -0.0468199 19.6713 0.117053C20.2331 0.187282 20.7247 0.397975 20.7247 0.913001C20.7247 1.63872 20.5608 6.03985 20.5608 6.76556C20.5374 8.12336 20.5608 10.8858 22.5507 11.1199C24.4938 11.2369 24.8215 8.217 24.7513 6.57828C24.6811 4.65864 24.6342 2.83264 24.4704 0.936411C24.4469 0.561847 24.5172 0.234104 25.0088 0.163872H25.0322C25.3365 0.140463 25.6409 0.140463 25.9452 0.140463C26.3432 0.140463 28.7778 0.0234114 29.1992 0C29.6674 0 29.6908 0.515026 29.6908 0.866179C29.7377 3.39449 29.9015 5.9228 29.8547 8.4511C29.8079 11.8456 29.3397 14.9592 25.875 16.5745C24.8449 17.0427 23.6978 17.1597 22.5975 17.1831Z" fill="#00AF50"/>
  <path d="M6.40538 17.1129C6.28832 17.2534 6.10104 17.347 5.93717 17.347C4.4155 17.3002 2.87043 17.23 1.27853 17.23C0.927375 17.23 0.669862 16.9257 0.786913 16.5979C0.810324 16.5745 0.810324 16.5511 0.810324 16.5277C0.950785 14.3739 0.974195 12.1968 1.04443 10.0196C1.11466 7.49133 1.02102 4.40117 1.13807 1.87287C1.13807 1.31102 1.34876 0.632123 1.98084 0.210738C2.28517 0.0468671 3.54932 0.0702771 3.92389 0.0702771C5.23486 0.0468671 6.56925 0.0468671 7.88022 0.163918C8.88686 0.25756 9.96373 0.421431 10.8065 0.983278C11.462 1.42807 11.9536 2.13038 12.2579 2.8561C12.7964 4.05002 12.9837 5.43123 12.9602 6.76561C12.9368 7.74884 12.7964 8.75548 12.3984 9.66848C12.1643 10.2303 11.7897 10.7454 11.3215 11.1433C10.7597 11.5881 10.0808 11.869 9.40189 12.0797C8.5123 12.3607 7.57589 12.4309 6.63948 12.4777C6.66289 13.8823 6.6863 15.2167 6.56925 16.6213C6.54584 16.8086 6.52243 16.9959 6.40538 17.1129ZM6.80335 4.21389C6.80335 4.72892 6.85017 7.74884 6.85017 8.26387C7.27155 8.24046 7.73976 8.17023 8.11432 7.95953C8.34843 7.81907 8.53571 7.60838 8.65276 7.37428C8.91027 6.76561 8.67617 5.38441 8.30161 4.84597C7.99727 4.37776 7.34179 4.28412 6.80335 4.21389Z" fill="#00AF50"/>
</svg>