<svg width="20" height="20" viewBox="0 0 20 20" fill="none" xmlns="http://www.w3.org/2000/svg">
<path d="M10 18.3333C14.6024 18.3333 18.3333 14.6024 18.3333 10C18.3333 5.39762 14.6024 1.66666 10 1.66666C5.39763 1.66666 1.66667 5.39762 1.66667 10C1.66667 14.6024 5.39763 18.3333 10 18.3333Z" fill="#C5C5C5"/>
<path fill-rule="evenodd" clip-rule="evenodd" d="M10 5.04166C10.4602 5.04166 10.8333 5.41476 10.8333 5.875V14.125C10.8333 14.5852 10.4602 14.9583 10 14.9583C9.53976 14.9583 9.16667 14.5852 9.16667 14.125V5.875C9.16667 5.41476 9.53976 5.04166 10 5.04166Z" fill="white"/>
<path fill-rule="evenodd" clip-rule="evenodd" d="M5.04167 10C5.04167 9.53976 5.41476 9.16666 5.875 9.16666H14.125C14.5852 9.16666 14.9583 9.53976 14.9583 10C14.9583 10.4602 14.5852 10.8333 14.125 10.8333H5.875C5.41476 10.8333 5.04167 10.4602 5.04167 10Z" fill="white"/>
</svg>