<svg xmlns="http://www.w3.org/2000/svg" width="24" height="24" viewBox="0 0 24 24" fill="none">
  <path fill-rule="evenodd" clip-rule="evenodd" d="M14.3626 3.76773C14.2466 2.77609 13.3976 2 12.3761 2C11.3558 2 10.5076 2.76565 10.39 3.76233C6.93641 4.64705 4.37604 7.78329 4.37604 11.52V14.28C4.37604 14.44 4.33604 14.59 4.26604 14.73L3.10604 17.07C2.77604 17.73 3.25604 18.52 3.99604 18.52L9.3761 18.52C9.3761 20.18 10.7161 21.52 12.3761 21.52C14.0361 21.52 15.3761 20.18 15.3761 18.52L20.756 18.52C21.496 18.52 21.986 17.74 21.646 17.07L20.476 14.73C20.406 14.59 20.366 14.44 20.366 14.28H20.376V11.79C20.376 8.03223 17.8705 4.69462 14.3626 3.76773Z" fill="#C5C5C5"/>
</svg>