<svg xmlns="http://www.w3.org/2000/svg" width="24" height="24" viewBox="0 0 24 24" fill="none">
  <path d="M21 5H7C6.44772 5 6 5.44772 6 6C6 6.55228 6.44772 7 7 7H21C21.5523 7 22 6.55228 22 6C22 5.44772 21.5523 5 21 5Z" fill="#C5C5C5"/>
  <path d="M3 7C3.55228 7 4 6.55228 4 6C4 5.44772 3.55228 5 3 5C2.44772 5 2 5.44772 2 6C2 6.55228 2.44772 7 3 7Z" fill="#C5C5C5"/>
  <path d="M21 11H7C6.44772 11 6 11.4477 6 12C6 12.5523 6.44772 13 7 13H21C21.5523 13 22 12.5523 22 12C22 11.4477 21.5523 11 21 11Z" fill="#C5C5C5"/>
  <path d="M3 13C3.55228 13 4 12.5523 4 12C4 11.4477 3.55228 11 3 11C2.44772 11 2 11.4477 2 12C2 12.5523 2.44772 13 3 13Z" fill="#C5C5C5"/>
  <path d="M21 17H7C6.44772 17 6 17.4477 6 18C6 18.5523 6.44772 19 7 19H21C21.5523 19 22 18.5523 22 18C22 17.4477 21.5523 17 21 17Z" fill="#C5C5C5"/>
  <path d="M3 19C3.55228 19 4 18.5523 4 18C4 17.4477 3.55228 17 3 17C2.44772 17 2 17.4477 2 18C2 18.5523 2.44772 19 3 19Z" fill="#C5C5C5"/>
</svg>