<svg xmlns="http://www.w3.org/2000/svg" width="20" height="20" viewBox="0 0 20 20" fill="none">
  <path d="M9.99998 10.0106C12.7643 10.0106 15.0053 7.76964 15.0053 5.00529C15.0053 2.24095 12.7643 0 9.99998 0C7.23564 0 4.99469 2.24095 4.99469 5.00529C4.99469 7.76964 7.23564 10.0106 9.99998 10.0106Z" fill="#C5C5C5"/>
  <path d="M18 20H2C0.899471 20 0 19.1006 0 18V17.2064C0 14.8466 1.60847 12.836 3.91534 12.3281C7.89418 11.4392 12.1058 11.4392 16.0847 12.3281C18.3915 12.836 20 14.8466 20 17.2064V18C20 19.1006 19.1005 20 18 20Z" fill="#C5C5C5"/>
</svg>