<svg xmlns="http://www.w3.org/2000/svg" width="20" height="20" viewBox="0 0 20 20" fill="none">
  <path d="M8.36666 8.05L11.9 11.5833L7.17499 16.3083L3.4 16.55L3.64166 12.775L8.36666 8.05ZM8.36666 5.69167L2.45833 11.6C2.175 11.8833 2 12.2667 1.975 12.675L1.66666 17.4417C1.625 17.9167 1.95833 18.275 2.425 18.275C2.45 18.275 2.475 18.275 2.5 18.275L7.27499 17.9667C7.68333 17.9417 8.05833 17.7667 8.35 17.4833L14.2583 11.575L8.36666 5.68333V5.69167Z" fill="#8F8F8F"/>
  <path d="M13.075 3.33333L16.6083 6.86666L14.8417 8.63333L11.3083 5.1L13.075 3.33333ZM13.075 1.66666C12.65 1.66666 12.225 1.83333 11.9 2.15833L8.95001 5.10833L14.8417 11L17.7917 8.05C18.4417 7.4 18.4417 6.34166 17.7917 5.69166L14.2583 2.15833C13.9333 1.83333 13.5083 1.66666 13.0833 1.66666L13.075 1.66666Z" fill="#8F8F8F"/>
</svg>