<svg width="28" height="28" viewBox="0 0 28 28" fill="none" xmlns="http://www.w3.org/2000/svg">
<circle cx="14" cy="14" r="13.5" fill="white" stroke="#E2E2E2"/>
<path d="M19.2638 9.22563H8.73619C7.90558 9.22563 7.23224 9.89897 7.23224 10.7296V18.2493C7.23224 19.0799 7.90558 19.7533 8.73619 19.7533H19.2638C20.0944 19.7533 20.7678 19.0799 20.7678 18.2493V10.7296C20.7678 9.89897 20.0944 9.22563 19.2638 9.22563Z" fill="#AAAAAA"/>
<path d="M14 17.8733C15.8689 17.8733 17.3839 16.3583 17.3839 14.4894C17.3839 12.6206 15.8689 11.1056 14 11.1056C12.1311 11.1056 10.6161 12.6206 10.6161 14.4894C10.6161 16.3583 12.1311 17.8733 14 17.8733Z" fill="white"/>
<path d="M14 16.7453C15.2459 16.7453 16.2559 15.7353 16.2559 14.4894C16.2559 13.2435 15.2459 12.2334 14 12.2334C12.7541 12.2334 11.7441 13.2435 11.7441 14.4894C11.7441 15.7353 12.7541 16.7453 14 16.7453Z" fill="#AAAAAA"/>
<path d="M10.2401 9.50395L10.7816 8.41359C10.9094 8.15791 11.1726 8 11.4583 8H16.5417C16.8274 8 17.0906 8.15791 17.2109 8.41359L17.7523 9.50395H10.2401Z" fill="#AAAAAA"/>
</svg>