<svg xmlns="http://www.w3.org/2000/svg" width="88" height="88" viewBox="0 0 88 88" fill="none">
  <circle cx="44" cy="44" r="44" fill="#F0F0F0"/>
  <path fill-rule="evenodd" clip-rule="evenodd" d="M44.0959 26.3212H41.5281C40.565 24.2881 38.0932 20.1791 35.9103 20.0079C33.1816 19.7939 29.5969 23.9136 25.1027 34.1862C20.6085 44.4587 18.7359 52.4307 25.1027 60.2421C30.9983 67.4754 40.9324 67.9943 44.0959 68V68C44.1049 68 44.1138 68 44.1228 68C44.1319 68 44.1408 68 44.1497 68V68C47.3132 67.9943 57.2474 67.4754 63.143 60.2421C69.5097 52.4307 67.6372 44.4587 63.143 34.1862C58.6487 23.9136 55.064 19.7939 52.3354 20.0079C50.1525 20.1791 47.6806 24.2881 46.7176 26.3212H44.1497H44.0959Z" fill="#D7D7D7"/>
  <path fill-rule="evenodd" clip-rule="evenodd" d="M44.1129 59.6535V63.6127C45.0349 63.6127 47.0705 63.3773 47.8364 62.4357C48.6024 61.494 47.9074 60.0102 47.4641 59.386L44.1129 59.6535ZM44.1127 59.6536V63.6128C43.1906 63.6128 41.1551 63.3774 40.3891 62.4357C39.6231 61.4941 40.3182 60.0103 40.7615 59.3861L44.1127 59.6536Z" fill="#F4F4F4"/>
  <path fill-rule="evenodd" clip-rule="evenodd" d="M44.085 47.0807C40.8131 47.1197 34.5911 50.5355 33.5864 55.9083C32.5758 61.3121 36.1649 64.3269 39.3691 62.8637C41.742 61.7802 43.1863 60.4339 43.8936 59.7746C43.9768 59.697 44.0499 59.6289 44.113 59.5718C44.1762 59.6289 44.2493 59.697 44.3326 59.7747C45.0399 60.434 46.4842 61.7803 48.8571 62.8638C52.0613 64.327 55.6504 61.3122 54.6398 55.9084C53.635 50.5356 47.4131 47.1198 44.1412 47.0808V47.0804C44.1291 47.0804 44.1169 47.0804 44.1046 47.0805C44.0981 47.0805 44.0915 47.0805 44.085 47.0805V47.0807Z" fill="white"/>
  <path fill-rule="evenodd" clip-rule="evenodd" d="M44.1128 58.1019V51.2001C42.9456 51.2179 40.5455 51.6709 40.2829 53.3402C39.9546 55.4268 43.3468 57.6739 44.1128 58.1019ZM44.113 58.102V51.2001C45.2802 51.2179 47.6803 51.6709 47.9429 53.3402C48.2712 55.4268 44.879 57.6739 44.113 58.102Z" fill="#A6A6A6"/>
  <rect x="43.8991" y="57.7274" width="0.428023" height="2.03311" fill="#A6A6A6"/>
</svg>