<svg xmlns="http://www.w3.org/2000/svg" width="24" height="24" viewBox="0 0 24 24" fill="none">
  <path fill-rule="evenodd" clip-rule="evenodd" d="M12.29 15.43C11.65 15.43 11.13 14.91 11.13 14.27C11.13 11.92 12.59 10.99 13.66 10.3C14.57 9.72 15.09 9.35 15.29 8.48C15.46 7.72 15.33 7.06 14.88 6.5C14.31 5.78 13.29 5.32 12.29 5.32C10.65 5.32 9.32 6.65 9.32 8.29C9.32 8.93 8.8 9.45 8.16 9.45C7.52 9.45 7 8.93 7 8.29C7 5.37 9.37 3 12.29 3C13.99 3 15.68 3.79 16.69 5.05C17.57 6.16 17.88 7.56 17.55 9C17.13 10.84 15.85 11.66 14.91 12.26C13.9 12.91 13.45 13.24 13.45 14.28C13.45 14.92 12.93 15.44 12.29 15.44M12.31 17.31C11.29 17.31 10.46 18.14 10.46 19.16C10.46 20.18 11.29 21.01 12.31 21.01C13.33 21.01 14.16 20.18 14.16 19.16C14.16 18.14 13.33 17.31 12.31 17.31Z" fill="#C5C5C5"/>
</svg>