<svg xmlns="http://www.w3.org/2000/svg" width="12" height="4" viewBox="0 0 12 4" fill="none">
  <path d="M1.33335 3.16665C1.97769 3.16665 2.50002 2.64431 2.50002 1.99998C2.50002 1.35565 1.97769 0.833313 1.33335 0.833313C0.689021 0.833313 0.166687 1.35565 0.166687 1.99998C0.166687 2.64431 0.689021 3.16665 1.33335 3.16665Z" fill="white"/>
  <path d="M6.00004 3.16665C6.64437 3.16665 7.16671 2.64431 7.16671 1.99998C7.16671 1.35565 6.64437 0.833313 6.00004 0.833313C5.35571 0.833313 4.83337 1.35565 4.83337 1.99998C4.83337 2.64431 5.35571 3.16665 6.00004 3.16665Z" fill="white"/>
  <path d="M10.6667 3.16665C11.311 3.16665 11.8333 2.64431 11.8333 1.99998C11.8333 1.35565 11.311 0.833313 10.6667 0.833313C10.0223 0.833313 9.5 1.35565 9.5 1.99998C9.5 2.64431 10.0223 3.16665 10.6667 3.16665Z" fill="white"/>
</svg>