<svg width="28" height="28" viewBox="0 0 28 28" fill="none" xmlns="http://www.w3.org/2000/svg">
<g id="Component 79">
<path id="Vector" d="M21.35 3.5H6.65C4.9103 3.5 3.5 4.9103 3.5 6.65V21.35C3.5 23.0897 4.9103 24.5 6.65 24.5H21.35C23.0897 24.5 24.5 23.0897 24.5 21.35V6.65C24.5 4.9103 23.0897 3.5 21.35 3.5Z" fill="#AAAAAA"/>
<path id="Vector_2" d="M9.91667 12.8333C11.5275 12.8333 12.8333 11.5275 12.8333 9.91667C12.8333 8.30584 11.5275 7 9.91667 7C8.30584 7 7 8.30584 7 9.91667C7 11.5275 8.30584 12.8333 9.91667 12.8333Z" fill="white"/>
<path id="Vector_3" d="M11.3764 16.8151L9.46751 19.9506C9.08372 20.593 9.56851 21.3889 10.3462 21.3889H14.1538C14.9315 21.3889 15.4162 20.593 15.0325 19.9506L13.1236 16.8151C12.7398 16.1727 11.7601 16.1727 11.3764 16.8151Z" fill="white"/>
<path id="Vector_4" d="M19.9137 10.5H16.253C15.653 10.5 15.1667 10.9863 15.1667 11.5863V15.2471C15.1667 15.847 15.653 16.3333 16.253 16.3333H19.9137C20.5137 16.3333 21 15.847 21 15.2471V11.5863C21 10.9863 20.5137 10.5 19.9137 10.5Z" fill="white"/>
</g>
</svg>
