<svg width="28" height="28" viewBox="0 0 28 28" fill="none" xmlns="http://www.w3.org/2000/svg">
<g clip-path="url(#clip0_362_1568)">
<path d="M14 23.3333C20.4433 23.3333 25.6666 18.8935 25.6666 13.4167C25.6666 7.93984 20.4433 3.5 14 3.5C7.55666 3.5 2.33331 7.93984 2.33331 13.4167C2.33331 18.8935 7.55666 23.3333 14 23.3333Z" fill="#C5C5C5"/>
<path d="M17.6516 22.225C17.43 22.225 20.825 23.66 23.31 24.6866C24.255 25.0833 25.2116 24.15 24.85 23.1933L22.5166 17.1383L17.6516 22.2366V22.225Z" fill="#C5C5C5"/>
</g>
<path d="M9.33335 15.1666C9.97769 15.1666 10.5 14.6443 10.5 14C10.5 13.3556 9.97769 12.8333 9.33335 12.8333C8.68902 12.8333 8.16669 13.3556 8.16669 14C8.16669 14.6443 8.68902 15.1666 9.33335 15.1666Z" fill="white"/>
<path d="M14 15.1666C14.6444 15.1666 15.1667 14.6443 15.1667 14C15.1667 13.3556 14.6444 12.8333 14 12.8333C13.3557 12.8333 12.8334 13.3556 12.8334 14C12.8334 14.6443 13.3557 15.1666 14 15.1666Z" fill="white"/>
<path d="M18.6667 15.1666C19.311 15.1666 19.8333 14.6443 19.8333 14C19.8333 13.3556 19.311 12.8333 18.6667 12.8333C18.0223 12.8333 17.5 13.3556 17.5 14C17.5 14.6443 18.0223 15.1666 18.6667 15.1666Z" fill="white"/>
<defs>
<clipPath id="clip0_362_1568">
<rect width="23.3333" height="21.28" fill="white" transform="translate(2.33331 3.5)"/>
</clipPath>
</defs>
</svg>
