<svg xmlns="http://www.w3.org/2000/svg" width="24" height="24" viewBox="0 0 24 24" fill="none">
  <path d="M20.7697 16.1164C20.3801 14.9168 19.4721 14.3088 18.5956 13.721C17.8328 13.2091 17.1125 12.7254 16.6415 11.857C15.343 9.45151 14.6298 8 12.5026 8C10.3754 8 9.66001 9.45199 8.35846 11.8565C7.88698 12.7268 7.16315 13.2115 6.39948 13.7243C5.52293 14.3126 4.61671 14.9192 4.2258 16.1164C4.07369 16.5481 3.99714 17.0066 4.00002 17.4685C4.00002 19.4156 5.4366 21 7.02813 21C8.61965 21 10.7163 20.1335 12.5071 20.1335C14.2978 20.1335 16.3652 21 17.9767 21C19.5881 21 20.9999 19.4156 20.9999 17.4685C21.0012 17.0063 20.9231 16.5479 20.7697 16.1164Z" fill="#C5C5C5"/>
  <path d="M4.5 13C5.88071 13 7 11.433 7 9.5C7 7.567 5.88071 6 4.5 6C3.11929 6 2 7.567 2 9.5C2 11.433 3.11929 13 4.5 13Z" fill="#C5C5C5"/>
  <path d="M9.5 8C10.8807 8 12 6.65685 12 5C12 3.34315 10.8807 2 9.5 2C8.11929 2 7 3.34315 7 5C7 6.65685 8.11929 8 9.5 8Z" fill="#C5C5C5"/>
  <path d="M15.5 8C16.8807 8 18 6.65685 18 5C18 3.34315 16.8807 2 15.5 2C14.1193 2 13 3.34315 13 5C13 6.65685 14.1193 8 15.5 8Z" fill="#C5C5C5"/>
  <path d="M20.5 13C21.8807 13 23 11.433 23 9.5C23 7.567 21.8807 6 20.5 6C19.1193 6 18 7.567 18 9.5C18 11.433 19.1193 13 20.5 13Z" fill="#C5C5C5"/>
</svg>