<svg xmlns="http://www.w3.org/2000/svg" width="28" height="28" viewBox="0 0 28 28" fill="none">
  <path fill-rule="evenodd" clip-rule="evenodd" d="M6.23587 7.54601C5.31934 7.74818 4.66669 8.56049 4.66669 9.49906V21.3333C4.66669 22.4379 5.56212 23.3333 6.66669 23.3333H11.6667V16.3333H16.3334V23.3333H21.3334C22.4379 23.3333 23.3334 22.4379 23.3334 21.3333V9.49906C23.3334 8.56049 22.6807 7.74818 21.7642 7.54601L14.4308 5.92836C14.147 5.86576 13.853 5.86576 13.5692 5.92836L6.23587 7.54601Z" fill="#181D18"/>
  <path d="M3.0338 8.1817L3.03376 8.18154C2.90139 7.71718 3.16874 7.23096 3.63526 7.09737L3.63624 7.09709L13.8822 4.18573C13.9717 4.1603 14.0665 4.16034 14.156 4.18586L24.3646 7.09722L24.3661 7.09763C24.8323 7.23213 25.0984 7.71819 24.9662 8.18196L24.966 8.18273L24.6749 9.19766L24.6749 9.19783C24.5413 9.66312 24.0567 9.93203 23.5914 9.79914L3.0338 8.1817ZM3.0338 8.1817L3.32356 9.1969C3.32358 9.19695 3.32359 9.197 3.32361 9.19706C3.4564 9.66259 3.94117 9.93267 4.407 9.79952C4.40714 9.79948 4.40728 9.79944 4.40742 9.7994L14.0174 7.06991L23.5909 9.79898L3.0338 8.1817Z" fill="#181D18" stroke="#181D18" stroke-linejoin="round"/>
</svg>