<svg xmlns="http://www.w3.org/2000/svg" width="28" height="28" viewBox="0 0 28 28" fill="none">
  <path fill-rule="evenodd" clip-rule="evenodd" d="M14 14C17.2216 14 19.8333 11.3883 19.8333 8.16668C19.8333 4.94502 17.2216 2.33334 14 2.33334C10.7783 2.33334 8.16665 4.94502 8.16665 8.16668C8.16665 11.3883 10.7783 14 14 14ZM6.89856 16.7228C11.5793 15.6827 16.4299 15.6824 21.0999 16.7225C23.774 17.3082 25.6666 19.6874 25.6666 22.4117V23.3334C25.6666 24.6194 24.6193 25.6667 23.3333 25.6667H4.66665C3.38065 25.6667 2.33331 24.6194 2.33331 23.3334V22.4117C2.33331 19.6818 4.23086 17.3205 6.89659 16.7233L6.89856 16.7228Z" fill="#181D18"/>
</svg>