<svg width="28" height="28" viewBox="0 0 28 28" fill="none" xmlns="http://www.w3.org/2000/svg">
<g id="icon-roommate">
<g id="Group 67">
<path id="Vector" d="M18.9791 13.6163C21.3278 13.6163 23.2317 11.7124 23.2317 9.36373C23.2317 7.01509 21.3278 5.11115 18.9791 5.11115C16.6305 5.11115 14.7266 7.01509 14.7266 9.36373C14.7266 11.7124 16.6305 13.6163 18.9791 13.6163Z" fill="#AAAAAA"/>
<path id="Vector_2" d="M25.778 22.1084H12.1802C11.2483 22.1084 10.4739 21.3471 10.4739 20.4021V19.7327C10.4739 17.7246 11.839 16.0183 13.7946 15.5852C17.1809 14.837 20.751 14.837 24.1373 15.5852C26.093 16.0183 27.458 17.7246 27.458 19.7327V20.4021C27.458 21.334 26.6967 22.1084 25.7517 22.1084H25.778Z" fill="#AAAAAA"/>
<path id="Vector_3" d="M8.4789 13.6163C10.8283 13.6163 12.7315 11.7131 12.7315 9.36373C12.7315 7.01431 10.8283 5.11115 8.4789 5.11115C6.12948 5.11115 4.22632 7.01431 4.22632 9.36373C4.22632 11.7131 6.12948 13.6163 8.4789 13.6163Z" fill="#AAAAAA"/>
<path id="Vector_4" d="M9.17455 19.7326C9.17455 17.882 10.0671 16.2413 11.4977 15.2307C8.78079 14.8894 5.98511 14.9944 3.32069 15.5851C1.36503 16.0182 0 17.7245 0 19.7326V20.402C0 21.3339 0.761264 22.0952 1.69316 22.0952H9.71268C9.38455 21.6096 9.18767 21.032 9.18767 20.402V19.7326H9.17455Z" fill="#AAAAAA"/>
</g>
</g>
</svg>
