<svg xmlns="http://www.w3.org/2000/svg" width="24" height="24" viewBox="0 0 24 24" fill="none">
  <path d="M20.7698 16.1164C20.3802 14.9168 19.4722 14.3088 18.5956 13.721C17.8329 13.2091 17.1126 12.7254 16.6415 11.857C15.3431 9.45151 14.6299 8 12.5027 8C10.3755 8 9.66007 9.45199 8.35852 11.8565C7.88704 12.7268 7.16321 13.2115 6.39954 13.7243C5.52299 14.3126 4.61677 14.9192 4.22586 16.1164C4.07376 16.5481 3.9972 17.0066 4.00008 17.4685C4.00008 19.4156 5.43666 21 7.02819 21C8.61971 21 10.7164 20.1335 12.5071 20.1335C14.2979 20.1335 16.3653 21 17.9767 21C19.5882 21 21 19.4156 21 17.4685C21.0012 17.0063 20.9232 16.5479 20.7698 16.1164Z" fill="#181D18"/>
  <path d="M4.5 13C5.88071 13 7 11.433 7 9.5C7 7.567 5.88071 6 4.5 6C3.11929 6 2 7.567 2 9.5C2 11.433 3.11929 13 4.5 13Z" fill="#181D18"/>
  <path d="M9.5 8C10.8807 8 12 6.65685 12 5C12 3.34315 10.8807 2 9.5 2C8.11929 2 7 3.34315 7 5C7 6.65685 8.11929 8 9.5 8Z" fill="#181D18"/>
  <path d="M15.5 8C16.8807 8 18 6.65685 18 5C18 3.34315 16.8807 2 15.5 2C14.1193 2 13 3.34315 13 5C13 6.65685 14.1193 8 15.5 8Z" fill="#181D18"/>
  <path d="M20.5 13C21.8807 13 23 11.433 23 9.5C23 7.567 21.8807 6 20.5 6C19.1193 6 18 7.567 18 9.5C18 11.433 19.1193 13 20.5 13Z" fill="#181D18"/>
</svg>